<svg viewBox="0 0 150 23" xmlns="http://www.w3.org/2000/svg" fill-rule="evenodd" clip-rule="evenodd" stroke-linejoin="round" stroke-miterlimit="2"><path d="M141.144 1.996l.073.04a.303.303 0 010 .53l-.073.04a4.44 4.44 0 00-1.765 1.765l-.04.074a.303.303 0 01-.53 0l-.04-.074a4.44 4.44 0 00-1.765-1.765l-.073-.04a.303.303 0 010-.53l.073-.04A4.44 4.44 0 00138.768.23l.04-.073a.304.304 0 01.531 0l.04.073a4.44 4.44 0 001.765 1.766zm8.658 5.574l.04.022a.305.305 0 01.158.266c0 .11-.061.212-.158.265l-.04.022a8.532 8.532 0 00-3.39 3.39l-.023.042a.302.302 0 01-.531 0l-.023-.041a8.539 8.539 0 00-3.39-3.39l-.042-.023a.305.305 0 01-.157-.265c0-.11.06-.213.157-.266l.041-.022a8.532 8.532 0 003.39-3.39l.024-.04a.304.304 0 01.53 0l.024.04a8.528 8.528 0 003.39 3.39zM0 22.448h3.859v-7.292h8.172v-3.519H3.86V5.99h8.424l1.252-3.49H0v19.948zM32.06 2.5h-3.858v19.948h13.479l-1.253-3.49h-8.367V2.5zm74.199 11.775l-4.86-11.6a.745.745 0 00-1.376 0l-4.859 11.6L91.22 2.5h-4.087l6.9 19.757a.709.709 0 00.669.475h.027a.71.71 0 00.649-.425l5.346-12.203 5.348 12.203a.71.71 0 001.317-.05L114.317 2.5h-4.119l-3.94 11.775zM128.98 2.301a.788.788 0 00-.784.784v19.362h3.859V9.906l12.738 12.544a.782.782 0 00.552.226c.43 0 .784-.355.784-.785v-2.613a.976.976 0 00-.29-.692L129.526 2.527a.783.783 0 00-.545-.226zm-64.76-.085c-5.627.002-10.255 4.632-10.255 10.258 0 5.627 4.63 10.258 10.258 10.258 5.627 0 10.258-4.63 10.258-10.258 0-5.628-4.63-10.258-10.258-10.258h-.004zm0 16.966c-3.68 0-6.709-3.028-6.709-6.708s3.028-6.708 6.708-6.708 6.708 3.028 6.708 6.708-3.028 6.708-6.708 6.708z" fill-rule="nonzero"/></svg>