<svg width="120" height="40" viewBox="0 0 120 40" fill="none" xmlns="http://www.w3.org/2000/svg">
<g clip-path="url(#clip0_2_467)">
<path d="M114.186 0H4.99338C2.28523 0 0.0898438 2.16911 0.0898438 4.84485V35.1552C0.0898438 37.8309 2.28523 40 4.99338 40H114.186C116.894 40 119.09 37.8309 119.09 35.1552V4.84485C119.09 2.16911 116.894 0 114.186 0Z" fill="black"/>
<path d="M105.866 21.5224H112.193C111.182 18.1006 107.308 16.0655 101.763 16.0655C98.9102 16.0655 96.2836 16.6667 94.3649 17.7564C92.1321 19.0255 90.9519 20.9249 90.9519 23.2461C90.9519 25.5673 92.0192 27.4133 94.1256 28.6449C96.0014 29.7418 98.6415 30.3212 101.763 30.3212C108.847 30.3212 111.276 27.4121 112.106 25.5006H105.714C104.855 26.4861 103.473 26.9855 101.602 26.9855C98.8035 26.9855 97.0663 25.5527 97.0663 23.2461C97.0663 22.0461 97.5533 21.0461 98.4759 20.3539C99.2942 19.7394 100.423 19.4012 101.656 19.4012C103.681 19.4012 105.35 20.2473 105.866 21.5212V21.5224Z" fill="white"/>
<path d="M38.5403 24.4546V29.7927H59.6782V25.9794H45.2681L59.6782 15.4133V10.0752H38.9121L38.8139 13.8885H52.9062L38.5403 24.4546Z" fill="white"/>
<path d="M79.9573 19.3491C82.3275 19.3491 83.742 20.6873 83.742 22.9297V29.7927H89.6956L89.7484 22.2921C89.7607 20.6121 89.2368 19.2327 88.1916 18.1915C86.9182 16.9236 84.889 16.2255 82.4796 16.2255C79.4359 16.2255 76.959 17.2873 75.5052 19.2146L75.2647 19.5333L74.5495 16.6497H69.576V29.7939H75.5285V23.6727C75.5285 21.0061 77.2252 19.3503 79.9573 19.3503V19.3491Z" fill="white"/>
<path d="M67.5763 16.6497H61.5711V29.7939H67.5763V16.6497Z" fill="white"/>
<path d="M32.529 27.0764V12.3818C32.529 12.36 32.5168 12.3406 32.4983 12.3297L19.6525 4.98181C19.6341 4.97091 19.6095 4.97091 19.5911 4.98181L6.74405 12.3297C6.72565 12.3406 6.71338 12.36 6.71338 12.3818V27.0776C6.71338 27.0994 6.72565 27.1188 6.74405 27.1297L19.5899 34.4776C19.6083 34.4885 19.6329 34.4885 19.6513 34.4776L32.4971 27.1297C32.5155 27.1188 32.5278 27.0994 32.5278 27.0776L32.529 27.0764Z" fill="url(#paint0_linear_2_467)"/>
<path d="M64.5743 14.2279C66.2343 14.2279 67.58 13.0877 67.58 11.6812C67.58 10.2747 66.2343 9.13455 64.5743 9.13455C62.9143 9.13455 61.5687 10.2747 61.5687 11.6812C61.5687 13.0877 62.9143 14.2279 64.5743 14.2279Z" fill="white"/>
<path d="M17.7252 11.1406L12.6033 14.0897V16.143L16.7167 13.7709L16.7376 13.7915L13.5712 19.5297V21.7018L20.5898 17.6764L20.6094 17.697L15.1035 25.4279V27.8788L29.6252 19.5503L27.4267 18.2945L19.2783 23.017L19.2587 22.9976L24.4211 15.4448L22.5661 14.3685L16.2334 18.0157L16.2125 17.9951L19.5212 12.177L17.7252 11.1406Z" fill="black"/>
</g>
<defs>
<linearGradient id="paint0_linear_2_467" x1="19.6218" y1="4.97333" x2="19.6218" y2="34.4848" gradientUnits="userSpaceOnUse">
<stop stop-color="#00FFCE"/>
<stop offset="0.4" stop-color="#02FACA"/>
<stop offset="0.83" stop-color="#09EDC2"/>
<stop offset="1" stop-color="#0EE6BD"/>
</linearGradient>
<clipPath id="clip0_2_467">
<rect width="119" height="40" fill="white" transform="translate(0.0898438)"/>
</clipPath>
</defs>
</svg>
