<svg viewBox="0 0 284 213" fill="none" xmlns="http://www.w3.org/2000/svg">
<g clip-path="url(#clip0_114_471)">
<path fill-rule="evenodd" clip-rule="evenodd" d="M145.52 54.28L135.75 36.91L154.58 20.16L167.13 22.36L175.44 33.25L168.47 44.03L145.52 54.28Z" fill="#EFECEA"/>
<path fill-rule="evenodd" clip-rule="evenodd" d="M159.27 78.9L145.52 54.28L168.47 44.03L175.44 33.25L184.04 37.12L175.62 50.21L159.27 78.9Z" fill="#C1B9B6"/>
<path fill-rule="evenodd" clip-rule="evenodd" d="M175.44 33.25L175.11 23.77L167.13 22.36L175.44 33.25Z" fill="#BFD730"/>
<path fill-rule="evenodd" clip-rule="evenodd" d="M192.58 114.76L153.46 95.77L159.27 78.9L192.58 114.76Z" fill="#0E1E3B"/>
<path fill-rule="evenodd" clip-rule="evenodd" d="M175.11 23.77L174.14 0.22998L199.31 5.83998L207.83 10.82L214 22.99L212.91 31.16L207.94 28.16L184.04 37.12L175.44 33.25L175.11 23.77Z" fill="#D958A0"/>
<path fill-rule="evenodd" clip-rule="evenodd" d="M170.8 91.32L184.57 88.32L199.46 81.5999L178.27 53.7L170.8 91.32Z" fill="#001EB9"/>
<path fill-rule="evenodd" clip-rule="evenodd" d="M201.16 102.89L199.46 81.6L214.94 83.6L201.16 102.89Z" fill="#FFCC32"/>
<path fill-rule="evenodd" clip-rule="evenodd" d="M212.91 31.16L217.7 47.04L220.16 56.43L214.94 83.6L199.46 81.6L178.27 53.7L207.94 28.16L212.91 31.16Z" fill="#FFCC32"/>
<path fill-rule="evenodd" clip-rule="evenodd" d="M184.04 37.12L175.62 50.21L178.27 53.7L207.94 28.16L184.04 37.12Z" fill="#001EB9"/>
<path fill-rule="evenodd" clip-rule="evenodd" d="M93.9401 51.53L128.73 83.77L153.46 95.77L159.27 78.9L145.52 54.28L135.75 36.91L93.9401 51.53Z" fill="#D958A0"/>
<path fill-rule="evenodd" clip-rule="evenodd" d="M128.73 83.77L153.46 95.77L159.27 78.9L145.52 54.28L135.75 36.91L128.73 83.77Z" fill="#D01876"/>
<path fill-rule="evenodd" clip-rule="evenodd" d="M167.13 22.36L175.11 23.77L174.14 0.23L151.28 0L126.54 6.6L113.29 12.9L154.58 20.16L167.13 22.36Z" fill="#F99D33"/>
<path fill-rule="evenodd" clip-rule="evenodd" d="M113.29 12.9L77.28 36.08L93.94 51.53L135.75 36.91L154.58 20.16L113.29 12.9Z" fill="#50B167"/>
<path fill-rule="evenodd" clip-rule="evenodd" d="M93.9401 51.53L63.3101 62.24L77.2801 36.08L93.9401 51.53Z" fill="#BFD730"/>
<path fill-rule="evenodd" clip-rule="evenodd" d="M141.44 130.71L192.58 114.76L153.46 95.77L141.44 130.71Z" fill="#001EB9"/>
<path fill-rule="evenodd" clip-rule="evenodd" d="M153.46 95.77L128.73 83.77L102.8 115.02V115.03L141.44 130.71L153.46 95.77Z" fill="#50B167"/>
<path fill-rule="evenodd" clip-rule="evenodd" d="M102.8 115.02L128.73 83.77L76.59 84.91L67.26 110.68L102.8 115.02Z" fill="#42C1C7"/>
<path fill-rule="evenodd" clip-rule="evenodd" d="M76.5901 84.91L63.3101 62.24L93.9401 51.53L128.73 83.77L76.5901 84.91Z" fill="#F47A4D"/>
<path d="M157.59 41.31L153.28 39.5L150.22 35.32L150.46 30.35L156.91 26.17L160.64 26.57L163.96 28.9L166.16 34.68L164.82 37.97L157.59 41.31Z" fill="#42C1C7"/>
<path fill-rule="evenodd" clip-rule="evenodd" d="M102.8 115.02L67.26 110.68L76.59 84.91L102.8 115.02Z" fill="#00AAAF"/>
<path fill-rule="evenodd" clip-rule="evenodd" d="M93.9401 51.53L63.3101 62.24L76.5901 84.91L93.9401 51.53Z" fill="#F99D33"/>
<path fill-rule="evenodd" clip-rule="evenodd" d="M93.9401 51.53L135.75 36.91L154.58 20.16L113.29 12.9L93.9401 51.53Z" fill="#009F4C"/>
<path fill-rule="evenodd" clip-rule="evenodd" d="M154.58 20.16L113.29 12.9L126.54 6.59998L154.58 20.16Z" fill="#F47A4D"/>
<path fill-rule="evenodd" clip-rule="evenodd" d="M174.14 0.22998L175.11 23.77L167.13 22.36L154.58 20.16L174.14 0.22998Z" fill="#F47A4D"/>
<path fill-rule="evenodd" clip-rule="evenodd" d="M199.31 5.83997L207.83 10.82L214 22.99L212.91 31.16L207.94 28.16L184.04 37.12L175.44 33.25L199.31 5.83997Z" fill="#E44066"/>
<path fill-rule="evenodd" clip-rule="evenodd" d="M207.94 28.16L184.04 37.12L175.44 33.25L175.11 23.77L207.94 28.16Z" fill="#D01876"/>
<path fill-rule="evenodd" clip-rule="evenodd" d="M199.46 81.6L184.57 88.32L170.8 91.32L159.27 78.9L199.46 81.6Z" fill="#05147D"/>
<path fill-rule="evenodd" clip-rule="evenodd" d="M159.27 78.9L175.62 50.21L178.27 53.7L170.8 91.32L159.27 78.9Z" fill="#0E1E3B"/>
<path fill-rule="evenodd" clip-rule="evenodd" d="M178.27 53.7L175.62 50.21L159.27 78.9L178.27 53.7Z" fill="#05147D"/>
<path fill-rule="evenodd" clip-rule="evenodd" d="M217.7 47.04L220.16 56.43L214.94 83.6L199.46 81.6L217.7 47.04Z" fill="#FDB913"/>
<path fill-rule="evenodd" clip-rule="evenodd" d="M220.16 56.43L217.7 47.04L212.91 31.16L207.94 28.16L220.16 56.43Z" fill="#BFD730"/>
<path fill-rule="evenodd" clip-rule="evenodd" d="M168.47 44.03L145.52 54.28L135.75 36.91L168.47 44.03Z" fill="#EFECEA"/>
<path fill-rule="evenodd" clip-rule="evenodd" d="M175.62 50.21L184.04 37.12L175.44 33.25L168.47 44.03L175.62 50.21Z" fill="#A69B98"/>
<path d="M160.55 29.3399L159.66 28.5699L156.01 29.5899L154.06 33.3099L155.91 36.0999L158.03 37.3599L161.73 35.5299L162.16 32.4799L160.53 29.3399H160.55Z" fill="#05147D"/>
<path d="M159 34.0401H156.28H156.03L157.53 30.4301H157.76L159.27 34.0401H159Z" fill="#EFECEA"/>
<path d="M16.89 173.72L2.86 211.89H0L15.62 170.36H18.27L33.89 211.89H30.87L16.9 173.72H16.89Z" fill="#1a1a1a"/>
<path d="M38.3201 200.23V181.85H40.9201V199.7C40.9201 205.89 44.0501 209.95 49.5101 209.95C54.9701 209.95 58.8901 205.47 58.8901 199.23V181.85H61.4901V211.89H58.8901V206.29C57.0901 209.82 54.0701 212.59 49.1301 212.59C42.2901 212.59 38.3101 207.41 38.3101 200.22L38.3201 200.23Z" fill="#1a1a1a"/>
<path d="M68.46 196.99V196.87C68.46 187.09 75.09 181.14 81.61 181.14C87.02 181.14 90.52 184.56 92.74 188.33V168.89H95.34V211.89H92.74V205.17C90.41 209.12 86.96 212.59 81.61 212.59C75.09 212.59 68.46 206.76 68.46 196.98V196.99ZM92.9 196.93V196.81C92.9 189.09 87.49 183.91 81.87 183.91C76.25 183.91 71.27 188.68 71.27 196.75V196.87C71.27 204.76 76.2 209.83 81.87 209.83C87.54 209.83 92.9 204.59 92.9 196.93Z" fill="#1a1a1a"/>
<path d="M107.21 173.52C107.21 174.53 106.36 175.39 105.37 175.39C104.31 175.39 103.53 174.53 103.53 173.52C103.53 172.45 104.34 171.65 105.37 171.65C106.4 171.65 107.21 172.47 107.21 173.52ZM104.06 181.65H106.65V211.89H104.06V181.65Z" fill="#1a1a1a"/>
<path d="M141.81 196.91C141.81 205.59 136.01 212.6 127.4 212.6C118.79 212.6 112.86 205.57 112.86 196.91C112.86 188.25 118.86 181.14 127.4 181.14C135.94 181.14 141.81 188.22 141.81 196.91ZM138.96 196.91C138.96 189.67 134.54 183.85 127.38 183.85C120.22 183.85 115.69 189.64 115.69 196.91C115.69 204.18 120.3 209.97 127.38 209.97C134.46 209.97 138.96 204.1 138.96 196.91Z" fill="#1a1a1a"/>
<path d="M145.59 205.88L147.39 203.58C151.47 207.76 155.24 209.71 160.7 209.71C166.16 209.71 170.08 206.23 170.08 201.52V201.4C170.08 197.04 168.01 194.51 159.58 192.62C150.67 190.62 147.07 187.26 147.07 181.02V180.9C147.07 174.77 152.11 170.06 159 170.06C164.41 170.06 167.96 171.71 171.72 175.07L169.97 177.49C166.47 174.13 162.97 172.84 158.89 172.84C153.43 172.84 149.82 176.32 149.82 180.62V180.74C149.82 185.1 151.83 187.75 160.64 189.75C169.23 191.69 172.83 195.11 172.83 201.12V201.24C172.83 207.9 167.69 212.49 160.53 212.49C154.59 212.49 150.03 210.31 145.58 205.89L145.59 205.88Z" fill="#1a1a1a"/>
<path d="M192.05 210.29C189.68 212.42 186.33 212.86 184.23 212.02C182.02 211.19 180.33 209.11 180.33 204.16V184.5H176.25V181.59H180.33V173.03L183.2 172.24V181.59H189.24V184.5H183.2V204.28C183.2 208.14 184.52 208.97 185.46 209.3C186.83 209.85 189.09 209.3 190.48 208.07L192.08 210.29H192.06H192.05Z" fill="#1a1a1a"/>
<path d="M195.74 196.99V196.87C195.74 187.09 202.37 181.14 208.89 181.14C214.3 181.14 217.8 184.56 220.02 188.33V181.85H222.62V211.89H220.02V205.17C217.69 209.12 214.24 212.59 208.89 212.59C202.37 212.59 195.74 206.76 195.74 196.98V196.99ZM220.18 196.93V196.81C220.18 189.09 214.77 183.91 209.15 183.91C203.53 183.91 198.55 188.68 198.55 196.75V196.87C198.55 204.76 203.48 209.83 209.15 209.83C214.82 209.83 220.18 204.59 220.18 196.93Z" fill="#1a1a1a"/>
<path d="M253.37 204L256.13 205.27C253.89 209.53 249.72 212.4 244.45 212.58C236.16 212.83 230.07 205.73 229.82 197.32C229.57 188.84 235.25 181.37 243.57 181.14C248.85 180.99 253.17 183.61 255.66 187.71L252.97 189.14C251.01 186.06 247.72 183.72 243.67 183.84C237.01 184.04 232.43 190.46 232.63 197.21C232.83 203.91 237.74 210.04 244.4 209.86C248.47 209.73 251.61 207.2 253.4 204.02" fill="#1a1a1a"/>
<path d="M260.3 168.89H262.9V201.11L279.65 181.85H283.1L271.28 195.16L283.47 211.89H280.18L269.47 197.22L262.9 204.58V211.88H260.3V168.88V168.89Z" fill="#1a1a1a"/>
</g>
<defs>
<clipPath id="clip0_114_471">
<rect width="283.46" height="212.6" fill="white"/>
</clipPath>
</defs>
</svg>