<svg xmlns="http://www.w3.org/2000/svg" xmlns:xlink="http://www.w3.org/1999/xlink" viewBox="90 -5 425 610"><path fill="#ff8b00" d="M96.61-.3v600h413.1V-.3z"/><path fill="#fff" d="m197.11 535.5-.8 18-.6.7c-3.8 1.6-10.4 4.2-20.3 4.2-29 0-43-20.4-43-43.6 0-21.1 10.7-45.3 41.5-45.3 10.5 0 17.7 2.8 22 4.5l.5.6-1.1 16.6-1.1.2c-3-2.3-7.9-5.8-16.8-5.8-19.4 0-23 18.2-23 28.6 0 17.1 9.5 27.4 23.1 27.4 9.9 0 15.9-4.6 18.7-6.8zm56.8-45.3c2.4 2.8 3.4 6.3 4.2 9.8 1 4.6 1.2 8.9 1.3 11.9.5 18.1-3.3 31.2-17.1 31.2-16.5 0-17.6-19.6-17.6-30.4 0-14.5 3.4-22 9-25.6 3.2-1.9 6.4-2.4 8.7-2.4 4.5 0 8.7 2 11.5 5.5m18.8-7.7c-2-2.7-4.4-4.9-7.1-6.8-6.1-4.1-14.4-6.2-22.7-6.2-7.4 0-14.9 1.3-21.3 5.1-14.5 8.4-17.1 22.4-18.1 27.5-.7 4.1-1.1 8.2-1.1 12.3 0 8.2.9 23.6 12.1 34.1 9 8.6 21.4 9.8 27.5 9.8 9.1 0 18.4-2.2 25.4-8.1 11.8-9.9 14.1-26.3 14.1-36.6.1-18.8-5.8-27.4-8.8-31.1m41.8 3.5c1.7-.1 3.3-.1 5-.1 4.6 0 13.8 0 13.8 10.6 0 3.4-.8 7.8-5.2 10.6-3.3 2.1-7.6 2.3-13.6 2.4zm5.6 37.5c8 13.8 9.7 17.4 17.4 33.2l.9.6c3.7-.2 7.3-.5 10.9-.6 3.7-.1 7.5-.2 11.2-.2l.7-1.5c-4.5-5.9-5.8-7.7-14.4-21.6-3.8-6.2-5.7-9.4-8.7-14.7 5.3-2.4 16.2-7.5 16.2-22.8 0-5.3-1.4-16.3-11.2-21.5-6.2-3.3-12.6-3.4-26.5-3.1l-8.3.1h-14.5l-.6.7c.5 12.2 1 24.7.9 57.6 0 11.2-.1 16.7-.5 26.7l.7.7c8.7-.4 10.6-.5 20.3-.4l.7-.7c-1-14-1.1-17.9-1.2-32.2zm117.1 12c0 5.5.2 11.1.4 16.6l-.6 1c-8.3 2.8-15.8 5.3-28.1 5.3-7.4 0-12.5-1.1-15.9-2.1-4.7-1.3-13.3-4.2-20.4-13.4-5.4-7-8.3-16.5-8.3-27.9 0-8.1 1.8-17.9 6.1-25.5 9.4-16.2 24.3-20 37.8-20.1 12.4 0 20.3 3.4 25.3 5.6l.6.7c-1 7.3-1.2 9.2-1.8 16.7l-1 .4c-5.6-3.7-10.9-7.4-20-7.4-15 0-25.1 10.4-25.1 29.4 0 9.1 3.3 26.9 21.8 26.9 3.3 0 5.7-.6 8.9-1.3.2-11 .1-13.9-1-25.7l.6-.7 20.2-.4.6.7c-.1 6.1-.2 12.2-.2 18.2z"/><defs><path id="a" d="M129.71-.3h-32.3v600h412.3V-.3z"/></defs><clipPath id="b"><use xlink:href="#a" overflow="visible"/></clipPath><path fill="#fff" d="M474.41 471.8c-.4 16.7-.6 33.3-.6 50 0 17.5.2 23 .8 34.1l-.7.7c-9.9 0-12.2 0-21.2.4l-.6-.7c.5-12.6.7-19.9.7-34.2 0-30.8-.4-36.9-1.1-50l.5-.7c8.6.1 11.3.1 21.5-.4z" clip-path="url(#b)"/><defs><path id="c" d="M129.71-.3h-32.3v600h412.3V-.3z"/></defs><clipPath id="d"><use xlink:href="#c" overflow="visible"/></clipPath><path fill="#1d1d1b" d="M463.21 426.6s-138.9-82-156.8-237.9c-5.4-46.9-3.2-75.7-2.3-92.7.8-14.9 2.8-18.3 10.9-23-9.3 5-11.6 8-13 23.2-1.5 16.7-4.8 45.2-1.1 91.9 12.6 159.1 154.9 247.7 154.9 247.7s25.6-16.1 56.5-47.1c-27.4 25.1-49.1 37.9-49.1 37.9" clip-path="url(#d)"/><defs><path id="e" d="M465.21 38.9h-4c-86 .4-134.3 27.4-144.1 32.9s-12.2 8.2-13 24.3c-.9 17-3 45.8 2.3 92.7 17.9 155.3 155.8 237.3 156.8 237.9.4-.2 20.6-12.2 46.5-35.6V41.7c-13.5-1.7-28.3-2.8-44.5-2.8"/></defs><clipPath id="g"><use xlink:href="#e" overflow="visible"/></clipPath><radialGradient id="f" cx="873.406" cy="583.321" r="9.996" gradientTransform="translate(-30988.898 -20907.467)scale(35.9252)" gradientUnits="userSpaceOnUse"><stop offset="0" stop-color="#fcca8d"/><stop offset=".27" stop-color="#fabf75"/><stop offset=".55" stop-color="#f7a841"/><stop offset="1" stop-color="#f39000"/></radialGradient><path fill="url(#f)" d="M257.71 12.5h303.1v420.1h-303.1z" clip-path="url(#g)"/><defs><path id="h" d="M129.71-.3h-32.3v600h412.3V-.3z"/></defs><clipPath id="i"><use xlink:href="#h" overflow="visible"/></clipPath><path fill="#fff" d="M626.51 91.9c-.8-16.1-3.1-18.8-13-24.3-9.8-5.5-58.8-32.9-146.2-32.9-87.3 0-136.3 29-146.1 34.5-1.5.9-2.9 1.7-4.1 2.4 10-5.6 58.9-32.8 146.1-32.8 87.3 0 136.3 27.3 146.2 32.9 9.8 5.5 12.2 8.2 13 24.3.8 17 3 45.8-2.4 92.7-7.3 63.1-34.3 114-64 152.4 31.2-38.3 60.5-90.5 68.1-156.5 5.5-46.9 3.3-75.7 2.4-92.7" clip-path="url(#i)"/><path d="M76.71 726h-20.4v-36.4h-34.9V726H1.01v-87h20.4v33.7h34.9V639h20.4zm44.3 1.3c-19.7 0-34.5-12.2-34.5-32.3s14.9-32.4 34.5-32.4c19.7 0 34.4 12.4 34.4 32.4s-14.8 32.3-34.4 32.3m0-48.8c-8.9 0-14.1 6.9-14.1 16.1s5.2 16.1 14.1 16.1c8.8 0 14.1-6.9 14.1-16.1 0-9.1-5.3-16.1-14.1-16.1m140.3 47.5h-20.3v-33.8c0-6.7-1.3-13-8.2-13-7.1 0-10.1 6.3-10.1 14.9V726h-20.2v-33.8c0-7.7-1.8-13-8.3-13-7.1 0-10.1 6.3-10.1 14.9V726h-20.1v-62.1h20.2l-.2 8.9.3-.1c3.2-5.2 9.2-10 17.1-10 8.6 0 15.4 2.9 18.5 11.3 4.4-7.6 10.6-11.3 19.8-11.3 15.9 0 21.6 10.8 21.6 25.8zm72.3-26.3h-44.2c.9 8.9 7.7 13 15.9 13 8.1 0 15.1-3.5 18.7-5.9l7.9 10.5c-2 1.5-10.2 10.1-29.5 10.1-19.2 0-33.1-11.8-33.1-32.4 0-20.5 15.1-32.3 33.5-32.3s31.1 12.2 31.1 30.4c0 3-.3 6.6-.3 6.6m-18.5-11.5c-.1-5.7-4.3-12.5-12.7-12.5-8.3 0-12.6 6.6-12.9 12.5zm103.8 37.8h-20.4v-36.4h-34.9V726h-20.4v-87h20.4v33.7h34.9V639h20.4zm74.1-26.3h-44.2c.9 8.9 7.7 13 15.9 13 8.1 0 15.1-3.5 18.7-5.9l7.9 10.5c-2 1.5-10.2 10.1-29.5 10.1-19.2 0-33.1-11.8-33.1-32.4 0-20.5 15.1-32.3 33.5-32.3s31.1 12.2 31.1 30.4c0 3-.3 6.6-.3 6.6m-18.5-11.5c-.1-5.7-4.3-12.5-12.7-12.5-8.3 0-12.6 6.6-12.9 12.5zm82.6 37.8h-19.3l-.4-6.6c-2.6 2.6-7.7 7.9-17.8 7.9-11 0-22.6-5.9-22.6-19.8s12.7-18.5 24.2-19l15.6-.6v-1.4c0-6.6-4.7-10-12.7-10-7.9 0-15.9 3.5-19 5.5l-5.3-13.1c5.3-2.6 15-6.3 26.6-6.3s18.3 2.6 23.2 7.2c4.8 4.5 7.4 10.6 7.4 21V726zm-20.1-27.4-10 .6c-6.2.3-9.8 2.9-9.8 7.6 0 4.8 3.9 7.7 9.5 7.7 5.4 0 9.1-3.5 10.3-5.7zm68.3-19.4h-13.7v22.3c0 5.3.8 6.6 1.8 7.7.9 1 2.1 1.5 4.8 1.5 3.2 0 6-1.1 6-1.1l1 15.8c-1.5.4-7.1 2-14.4 2-7.2 0-12-2.1-15.1-5.8-3.2-3.7-4.4-8.8-4.4-18.3v-24h-8.8V664h8.8v-16.9h20.3V664h13.7z"/></svg>