<svg xmlns="http://www.w3.org/2000/svg" fill="none" viewBox="0 0 285 73"><path fill="#1a1a1a" d="M237.149 17.09c-5.715 0-8.779 3.881-8.779 9.415s3.069 9.448 8.779 9.448c5.709 0 8.777-3.914 8.777-9.448s-3.068-9.414-8.777-9.414m0 14.635c-3.102 0-4.195-1.34-4.195-5.22s1.093-5.182 4.195-5.182c3.101 0 4.194 1.306 4.194 5.182s-1.093 5.22-4.194 5.22m-116.865-5.22c0 5.182-2.361 9.448-7.828 9.448-2.185 0-3.947-.775-5.149-2.575v2.223h-4.584V10.194h4.584v9.438c1.197-1.763 2.964-2.537 5.149-2.537 5.467 0 7.828 4.233 7.828 9.415zm-4.584 0c0-3.596-1.268-5.182-4.194-5.182s-4.194 1.586-4.194 5.182 1.268 5.22 4.194 5.22 4.194-1.586 4.194-5.22m-21.636 4.512h-8.621v4.584h8.621v4.589h-8.621v4.588h8.621v-4.584h4.584V17.443h-4.584zm29.351-13.57h11.879v4.232h-7.296v13.927h-4.583V17.442zm125.532 18.159h4.584V21.679h7.296v-4.232h-11.88zm-89.855-25.412h4.583V35.6h-4.583v-2.223c-1.197 1.8-2.964 2.575-5.149 2.575-5.468 0-7.828-4.266-7.828-9.448s2.36-9.414 7.828-9.414c2.185 0 3.947.774 5.149 2.536zm0 16.311c0-3.596-1.268-5.182-4.194-5.182s-4.195 1.586-4.195 5.182 1.269 5.22 4.195 5.22 4.194-1.586 4.194-5.22m35.468-16.311h-4.584V35.6h4.584V21.674h7.405v13.927h4.584V17.442H194.56zm31.046 15.96V28.2h-11.215c.319 2.223 1.411 3.524 4.935 3.524 1.06 0 2.646 0 5.078-.565v4.161c-2.75.637-4.09.637-5.429.637-8.146 0-9.31-5.748-9.31-9.415 0-5.396 2.185-9.448 8.042-9.448s7.899 3.772 7.899 9.063zm-4.584-1.307c-.142-2.47-1.13-3.524-3.387-3.524-2.256 0-3.211 1.163-3.348 3.524zm-53.87-10.426h7.325v21.18h4.584V14.426h7.448v-4.232h-19.357v4.232zM10.241 10.203v25.389h-8.46V10.203zM35.63 35.592h8.464V10.203H35.63zm-8.465 0h8.465v8.464H10.24v-8.464h8.465v-8.465h8.464v8.465zm-8.464-16.924h8.464v-8.465h8.465v-8.46H10.24v8.46h8.465v8.465zm53.841-8.474h4.584V35.6h-4.584V25.11H61.997V35.6h-4.584V10.194h4.584v10.492h10.545zM138.406 35.6h4.583V17.442h-4.583zm0-25.407h4.583v4.327h-4.583zM80.85 17.442v13.57h4.584v-13.57zm201.067 0v22.743h-4.584v4.584h-8.621V40.18h8.621v-4.588h-8.621v-4.584h8.621v-13.57h4.584zm-17.789 0v13.57h4.589v-13.57zm-48.948 41.88a4.276 4.276 0 0 1-8.55 0V51.68a.84.84 0 0 1 .85-.836c.475 0 .836.375.836.836v4.237a4.27 4.27 0 0 1 2.589-.87 4.267 4.267 0 0 1 4.275 4.276m-1.687 0a2.587 2.587 0 0 0-2.588-2.588c-1.43 0-2.589 1.159-2.589 2.57v.019a2.59 2.59 0 0 0 2.589 2.588 2.597 2.597 0 0 0 2.588-2.588m9.534-3.339v8.394c0 1.924-1.582 3.505-3.525 3.505a3.5 3.5 0 0 1-3.149-1.976.84.84 0 0 1 .389-1.126.826.826 0 0 1 1.107.39 1.85 1.85 0 0 0 1.653 1.021 1.827 1.827 0 0 0 1.839-1.819v-1.225a3.37 3.37 0 0 1-1.753.474 3.43 3.43 0 0 1-3.425-3.386v-4.256a.837.837 0 0 1 1.672 0v4.223a1.76 1.76 0 0 0 1.753 1.752 1.76 1.76 0 0 0 1.753-1.752v-4.223c0-.461.375-.836.835-.836a.85.85 0 0 1 .851.836zm14.644 3.44v3.339a.82.82 0 0 1-.85.85c-.342 0-.817-.356-.817-.85-.732.612-1.549.85-2.522.85-2.399 0-4.309-1.786-4.309-4.19a4.28 4.28 0 0 1 4.309-4.308c2.403 0 4.189 1.905 4.189 4.309m-1.667 0c0-1.43-1.088-2.642-2.522-2.642-1.435 0-2.641 1.207-2.641 2.642s1.206 2.517 2.641 2.517c1.434 0 2.522-1.088 2.522-2.517m9.671 3.358a.85.85 0 0 1-.836.85h-5.297a.84.84 0 0 1-.764-.475.83.83 0 0 1 .085-.902l4.256-5.482h-3.61a.853.853 0 0 1-.836-.85.84.84 0 0 1 .836-.836h5.296c.323 0 .632.17.765.475a.8.8 0 0 1-.085.883l-4.256 5.5h3.61c.461 0 .836.376.836.837m9.419-3.425a.84.84 0 0 1-.85.836h-5.876a2.59 2.59 0 0 0 2.451 1.753 3.34 3.34 0 0 0 1.905-.56c.394-.257.921-.02 1.125.389.205.427-.019.869-.408 1.126-1.126.75-1.99.731-2.622.731a4.276 4.276 0 0 1 0-8.55c2.061 0 4.275 1.496 4.275 4.275m-6.726-.85h4.921c-.356-1.193-1.449-1.739-2.47-1.739a2.6 2.6 0 0 0-2.451 1.739m12.872-2.57c0 .46-.375.85-.85.85a2.59 2.59 0 0 0-2.589 2.589V62.8a.85.85 0 0 1-.836.85c-.46 0-.85-.39-.85-.85v-3.425a4.28 4.28 0 0 1 4.275-4.275.84.84 0 0 1 .85.836m1.278-2.774a.87.87 0 0 1-.256-.594.85.85 0 0 1 .256-.593.87.87 0 0 1 .594-.257c.218 0 .442.1.594.256a.85.85 0 0 1 .237.594.85.85 0 0 1-.237.594.86.86 0 0 1-.594.238.85.85 0 0 1-.594-.238m-.256 9.638v-6.864a.84.84 0 0 1 .85-.836c.475 0 .836.375.836.836V62.8a.84.84 0 0 1-.836.85.85.85 0 0 1-.85-.85m2.655-3.444a4.276 4.276 0 0 1 8.55 0 4.263 4.263 0 0 1-4.275 4.275 4.275 4.275 0 0 1-4.275-4.275m1.686 0a2.6 2.6 0 0 0 2.589 2.589 2.6 2.6 0 0 0 2.589-2.589 2.6 2.6 0 0 0-2.589-2.589 2.59 2.59 0 0 0-2.589 2.589m16.416 0v3.42c0 .475-.375.85-.85.85a.83.83 0 0 1-.836-.85v-3.42a2.59 2.59 0 0 0-2.589-2.589 2.59 2.59 0 0 0-2.589 2.589v3.42c0 .475-.375.85-.85.85a.83.83 0 0 1-.836-.85v-3.42a4.275 4.275 0 1 1 8.55 0"/></svg>