<svg xmlns="http://www.w3.org/2000/svg" fill="none" viewBox="0 0 252 45"><mask id="kaizan-logo_svg_a" width="252" height="45" x="0" y="0" fill="#000" maskUnits="userSpaceOnUse"><path fill="#fff" d="M0 0h252v45H0z"/><path d="M218.991 2.913c0-1.785 2.202-2.56 3.332-1.276l.131.165 23.078 32.236a.91.91 0 0 0 1.649-.53V2.913a1.91 1.91 0 0 1 1.701-1.898l.208-.011a1.91 1.91 0 0 1 1.899 1.701l.011.208v39.375c0 1.785-2.202 2.56-3.332 1.275l-.13-.164-23.079-32.236a.908.908 0 0 0-1.648.53v30.595a1.91 1.91 0 0 1-1.702 1.898l-.208.011a1.91 1.91 0 0 1-1.898-1.701l-.012-.209zM98.893 1a1.91 1.91 0 0 1 1.898 1.702l.012.208v39.38a1.91 1.91 0 0 1-3.808.208l-.012-.208V2.91A1.91 1.91 0 0 1 98.893 1M59.756 2.193C60.373.67 62.46.607 63.203 1.995l.097.208 15.677 39.382a1.91 1.91 0 0 1-3.461 1.602l-.088-.19-13.08-32.858a.91.91 0 0 0-1.688-.005L47.346 43.008a1.91 1.91 0 0 1-2.29 1.12l-.197-.067a1.91 1.91 0 0 1-1.12-2.29l.067-.197zm122.765 0c.617-1.523 2.705-1.586 3.447-.198l.097.208 15.677 39.382a1.91 1.91 0 0 1-3.461 1.602l-.088-.19-13.081-32.858a.909.909 0 0 0-1.687-.005l-13.314 32.874a1.91 1.91 0 0 1-2.289 1.12l-.198-.067a1.91 1.91 0 0 1-1.12-2.29l.067-.197zm-33.104-.738c1.472 0 2.365 1.58 1.677 2.825l-.11.175-24.007 34.49a.91.91 0 0 0 .747 1.43h21.693a1.91 1.91 0 0 1 1.898 1.7l.012.209a1.91 1.91 0 0 1-1.702 1.898l-.208.011h-27.088c-1.473 0-2.365-1.58-1.677-2.825l.11-.175 24.004-34.49a.909.909 0 0 0-.746-1.43h-20.436a1.91 1.91 0 0 1-1.899-1.7l-.011-.209a1.91 1.91 0 0 1 1.702-1.898l.208-.011zm-122.094.222a1.91 1.91 0 0 1 .355 2.513l-.134.178-13.384 15.78c-.594.7-.573 1.732.047 2.407l17.14 18.668a1.91 1.91 0 0 1-2.64 2.75l-.173-.167-16.509-17.98a1.82 1.82 0 0 0-2.726.054L5.25 30.652a1.82 1.82 0 0 0-.432 1.176v10.687a1.91 1.91 0 0 1-3.808.208L1 42.515V3.133a1.91 1.91 0 0 1 3.808-.208l.011.208v19.645a.91.91 0 0 0 1.603.588l18.21-21.468a1.91 1.91 0 0 1 2.69-.221"/></mask><path fill="#1a1a1a" d="M218.991 2.913c0-1.785 2.202-2.56 3.332-1.276l.131.165 23.078 32.236a.91.91 0 0 0 1.649-.53V2.913a1.91 1.91 0 0 1 1.701-1.898l.208-.011a1.91 1.91 0 0 1 1.899 1.701l.011.208v39.375c0 1.785-2.202 2.56-3.332 1.275l-.13-.164-23.079-32.236a.908.908 0 0 0-1.648.53v30.595a1.91 1.91 0 0 1-1.702 1.898l-.208.011a1.91 1.91 0 0 1-1.898-1.701l-.012-.209zM98.893 1a1.91 1.91 0 0 1 1.898 1.702l.012.208v39.38a1.91 1.91 0 0 1-3.808.208l-.012-.208V2.91A1.91 1.91 0 0 1 98.893 1M59.756 2.193C60.373.67 62.46.607 63.203 1.995l.097.208 15.677 39.382a1.91 1.91 0 0 1-3.461 1.602l-.088-.19-13.08-32.858a.91.91 0 0 0-1.688-.005L47.346 43.008a1.91 1.91 0 0 1-2.29 1.12l-.197-.067a1.91 1.91 0 0 1-1.12-2.29l.067-.197zm122.765 0c.617-1.523 2.705-1.586 3.447-.198l.097.208 15.677 39.382a1.91 1.91 0 0 1-3.461 1.602l-.088-.19-13.081-32.858a.909.909 0 0 0-1.687-.005l-13.314 32.874a1.91 1.91 0 0 1-2.289 1.12l-.198-.067a1.91 1.91 0 0 1-1.12-2.29l.067-.197zm-33.104-.738c1.472 0 2.365 1.58 1.677 2.825l-.11.175-24.007 34.49a.91.91 0 0 0 .747 1.43h21.693a1.91 1.91 0 0 1 1.898 1.7l.012.209a1.91 1.91 0 0 1-1.702 1.898l-.208.011h-27.088c-1.473 0-2.365-1.58-1.677-2.825l.11-.175 24.004-34.49a.909.909 0 0 0-.746-1.43h-20.436a1.91 1.91 0 0 1-1.899-1.7l-.011-.209a1.91 1.91 0 0 1 1.702-1.898l.208-.011zm-122.094.222a1.91 1.91 0 0 1 .355 2.513l-.134.178-13.384 15.78c-.594.7-.573 1.732.047 2.407l17.14 18.668a1.91 1.91 0 0 1-2.64 2.75l-.173-.167-16.509-17.98a1.82 1.82 0 0 0-2.726.054L5.25 30.652a1.82 1.82 0 0 0-.432 1.176v10.687a1.91 1.91 0 0 1-3.808.208L1 42.515V3.133a1.91 1.91 0 0 1 3.808-.208l.011.208v19.645a.91.91 0 0 0 1.603.588l18.21-21.468a1.91 1.91 0 0 1 2.69-.221"/><path stroke="#1a1a1a" d="M218.991 2.913c0-1.785 2.202-2.56 3.332-1.276l.131.165 23.078 32.236a.91.91 0 0 0 1.649-.53V2.913a1.91 1.91 0 0 1 1.701-1.898l.208-.011a1.91 1.91 0 0 1 1.899 1.701l.011.208v39.375c0 1.785-2.202 2.56-3.332 1.275l-.13-.164-23.079-32.236a.908.908 0 0 0-1.648.53v30.595a1.91 1.91 0 0 1-1.702 1.898l-.208.011a1.91 1.91 0 0 1-1.898-1.701l-.012-.209zM98.893 1a1.91 1.91 0 0 1 1.898 1.702l.012.208v39.38a1.91 1.91 0 0 1-3.808.208l-.012-.208V2.91A1.91 1.91 0 0 1 98.893 1ZM59.756 2.193C60.373.67 62.46.607 63.203 1.995l.097.208 15.677 39.382a1.91 1.91 0 0 1-3.461 1.602l-.088-.19-13.08-32.858a.91.91 0 0 0-1.688-.005L47.346 43.008a1.91 1.91 0 0 1-2.29 1.12l-.197-.067a1.91 1.91 0 0 1-1.12-2.29l.067-.197zm122.765 0c.617-1.523 2.705-1.586 3.447-.198l.097.208 15.677 39.382a1.91 1.91 0 0 1-3.461 1.602l-.088-.19-13.081-32.858a.909.909 0 0 0-1.687-.005l-13.314 32.874a1.91 1.91 0 0 1-2.289 1.12l-.198-.067a1.91 1.91 0 0 1-1.12-2.29l.067-.197zm-33.104-.738c1.472 0 2.365 1.58 1.677 2.825l-.11.175-24.007 34.49a.91.91 0 0 0 .747 1.43h21.693a1.91 1.91 0 0 1 1.898 1.7l.012.209a1.91 1.91 0 0 1-1.702 1.898l-.208.011h-27.088c-1.473 0-2.365-1.58-1.677-2.825l.11-.175 24.004-34.49a.909.909 0 0 0-.746-1.43h-20.436a1.91 1.91 0 0 1-1.899-1.7l-.011-.209a1.91 1.91 0 0 1 1.702-1.898l.208-.011zm-122.094.222a1.91 1.91 0 0 1 .355 2.513l-.134.178-13.384 15.78c-.594.7-.573 1.732.047 2.407l17.14 18.668a1.91 1.91 0 0 1-2.64 2.75l-.173-.167-16.509-17.98a1.82 1.82 0 0 0-2.726.054L5.25 30.652a1.82 1.82 0 0 0-.432 1.176v10.687a1.91 1.91 0 0 1-3.808.208L1 42.515V3.133a1.91 1.91 0 0 1 3.808-.208l.011.208v19.645a.91.91 0 0 0 1.603.588l18.21-21.468a1.91 1.91 0 0 1 2.69-.221Z" mask="url(#kaizan-logo_svg_a)"/></svg>