<svg xmlns="http://www.w3.org/2000/svg" viewBox="0 0 2460.87 540"><g><path d="M537.754 242.968H428.742l54.506-94.4L397.465 0H226.041l-85.783 148.569 38.886 67.347h62.474l-38.886-67.347 54.549-94.474h108.945l54.548 94.474-54.506 94.399H85.752L0 391.483 85.753 540h171.484l54.516-94.417L366.269 540h171.484l85.753-148.517zm-311.75 242.928H116.986l-54.513-94.413 54.513-94.41h109.016l54.513 94.41zm85.749-148.512-23.275-40.312h46.55zm194.766 148.512H397.502l-54.512-94.413 54.512-94.41H506.52l54.513 94.41z" class="kaluza-logo_svg_cls-1"/><g><path d="M1341.16 485.896h-41.748q-21.183-.002-34.487-11.105c-8.878-7.402-13.308-17.474-13.308-30.224v-1.851h-9.076c-3.235 6.17-8.075 13.37-14.524 21.59-6.453 8.233-15.935 15.324-28.436 21.28-12.505 5.959-29.04 8.947-49.611 8.947q-32.075-.001-57.176-11.105c-16.741-7.402-30.05-18.296-39.932-32.695-9.887-14.39-14.82-31.864-14.82-52.433 0-20.97 4.933-38.34 14.82-52.124 9.883-13.774 23.39-24.152 40.54-31.149 17.138-6.988 36.604-10.49 58.384-10.49h90.755V284.8c0-17.675-5.25-31.864-15.732-42.564-10.495-10.687-26.62-16.035-48.404-16.035-21.382 0-37.718 5.145-49.007 15.42-11.294 10.282-18.756 23.652-22.384 40.096l-58.084-19.122c4.84-16.445 12.603-31.356 23.296-44.722q16.024-20.041 42.652-32.385c17.746-8.224 39.12-12.34 64.135-12.34 38.72 0 69.17 10.084 91.36 30.227 22.177 20.156 33.275 48.73 33.275 85.744V414.34c0 12.337 5.643 18.507 16.94 18.507H1346zM1159.046 442.1c25.006 0 45.168-7.299 60.503-21.9 15.322-14.593 22.992-34.641 22.992-60.146v-6.166h-87.123c-16.547 0-29.855 3.604-39.932 10.795-10.09 7.2-15.128 17.792-15.128 31.77 0 13.985 5.237 25.086 15.732 33.31 10.482 8.229 24.804 12.337 42.956 12.337m960.955 43.795h-243.826v-77.722l176.063-164.086v-8.638h-170.01v-53.665H2120v78.342L1943.335 424.21v8.022h181.506zm-466.048 5.551c-22.594 0-42.76-5.146-60.503-15.42q-26.633-15.413-41.748-43.795c-10.085-18.912-15.124-41.536-15.124-67.858V181.784h62.316v178.27c0 26.327 6.449 45.755 19.36 58.294 12.906 12.552 30.855 18.817 53.847 18.817 25.412 0 45.878-8.732 61.412-26.219 15.52-17.473 23.291-42.659 23.291-75.565V181.784h62.32v304.111h-61.108v-45.647h-9.68c-5.654 12.337-15.731 23.963-30.251 34.853s-35.907 16.345-64.132 16.345m-256.871-5.551v-431.8h62.32v431.8zm1058.948.001h-41.747q-21.185-.002-34.488-11.105c-8.878-7.402-13.308-17.474-13.308-30.224v-1.851h-9.076c-3.235 6.17-8.075 13.37-14.524 21.59-6.453 8.233-15.935 15.324-28.436 21.28-12.505 5.959-29.04 8.947-49.611 8.947q-32.075-.001-57.176-11.105c-16.741-7.402-30.049-18.296-39.932-32.695-9.886-14.39-14.82-31.864-14.82-52.433 0-20.97 4.934-38.34 14.82-52.124 9.883-13.774 23.39-24.152 40.54-31.149 17.139-6.988 36.604-10.49 58.384-10.49h90.755V284.8c0-17.675-5.25-31.864-15.732-42.564-10.495-10.687-26.62-16.035-48.404-16.035-21.382 0-37.718 5.145-49.007 15.42-11.293 10.282-18.756 23.652-22.384 40.096l-58.084-19.122c4.84-16.445 12.603-31.356 23.296-44.722q16.023-20.042 42.652-32.385c17.746-8.224 39.12-12.34 64.136-12.34 38.72 0 69.17 10.084 91.359 30.227 22.177 20.156 33.276 48.73 33.276 85.744V414.34c0 12.337 5.642 18.507 16.94 18.507h25.411zM2273.916 442.1c25.006 0 45.168-7.299 60.503-21.9 15.322-14.593 22.992-34.641 22.992-60.146v-6.166h-87.123c-16.547 0-29.855 3.604-39.932 10.795-10.09 7.2-15.128 17.792-15.128 31.77 0 13.985 5.237 25.086 15.732 33.31 10.482 8.229 24.804 12.337 42.956 12.337M1014.558 181.784h-80.79L809.94 324.617V54.095h-61.794v431.8h61.794V334.812l133.745 151.085h81.467L886.634 329.042z" class="kaluza-logo_svg_cls-1"/></g></g></svg>