<svg xmlns="http://www.w3.org/2000/svg" fill="none" viewBox="0 0 33 34"><path fill="#0b4ed5" fill-rule="evenodd" d="M15.626 1.647a2.57 2.57 0 0 1 2.587.002l11.32 6.616a2.8 2.8 0 0 1 1.387 2.417v11.6c0 1.03-.836 1.866-1.867 1.866l-4.666.017a1.88 1.88 0 0 1-1.867-1.883v-6.54c0-.584-.311-1.123-.817-1.415l-3.85-2.223a1.87 1.87 0 0 0-1.866 0l-3.85 2.223a1.63 1.63 0 0 0-.817 1.414v6.54a1.867 1.867 0 0 1-1.867 1.867H4.787a1.867 1.867 0 0 1-1.867-1.866V10.655a2.8 2.8 0 0 1 1.39-2.42z" clip-rule="evenodd"/><path fill="#0b4ed5" d="M18.293 17.005a1.283 1.283 0 1 1 2.566 0 1.283 1.283 0 0 1-2.566 0M4.914 30.277l-.84 1.007v1.776H2.67v-6.39h1.403v3.04h.056l.914-1.236 1.45-1.804H8.08l-2.17 2.627 2.364 3.763H6.622z"/><path fill="#0b4ed5" d="M12.148 33.06a.88.88 0 0 1-.619-.229 1.06 1.06 0 0 1-.305-.613h-.055q-.11.467-.49.714-.378.238-.932.238-.73 0-1.117-.385-.388-.384-.388-1.016 0-.76.554-1.126.563-.375 1.524-.375h.766v-.302q0-.348-.185-.55-.184-.21-.618-.21-.407 0-.647.174t-.397.393l-.812-.714q.295-.43.738-.668.452-.247 1.22-.247 1.034 0 1.55.449.517.448.517 1.309v2.105h.453v1.053zm-1.893-.833q.342 0 .582-.146.249-.147.249-.477v-.567h-.665q-.803 0-.803.54v.137q0 .266.166.394.166.12.471.119m3.198.833v-4.806h1.366v.815h.055q.13-.375.453-.65.323-.276.896-.275.747 0 1.126.494.388.495.388 1.41v3.012H16.37v-2.902q0-.466-.148-.687-.147-.229-.526-.229-.165 0-.323.046a.8.8 0 0 0-.286.128.7.7 0 0 0-.194.23.6.6 0 0 0-.074.301v3.113zm6.829 0q-.711 0-1.08-.357-.36-.357-.36-1.044v-2.352h-.683v-1.053h.341q.277 0 .379-.128.102-.138.101-.385v-.787h1.228v1.3h.96v1.053h-.96v2.7h.887v1.053zm5.048 0a.88.88 0 0 1-.618-.229 1.06 1.06 0 0 1-.304-.613h-.056q-.11.467-.49.714-.378.238-.932.238-.729 0-1.117-.385-.387-.384-.388-1.016 0-.76.554-1.126.564-.375 1.524-.375h.766v-.302q0-.348-.184-.55-.185-.21-.62-.21-.405 0-.645.174t-.397.393l-.813-.714q.295-.43.739-.668.452-.247 1.218-.247 1.035 0 1.552.449.517.448.517 1.309v2.105h.452v1.053zm-1.892-.833q.342 0 .582-.146.25-.147.25-.477v-.567h-.666q-.803 0-.803.54v.137q0 .266.166.394.167.12.471.119m3.198.833v-4.806h1.366v.815h.056q.13-.375.452-.65.323-.276.896-.275.748 0 1.126.494.388.495.388 1.41v3.012h-1.367v-2.902q0-.466-.147-.687-.148-.229-.527-.229-.165 0-.323.046a.8.8 0 0 0-.286.128.7.7 0 0 0-.194.23.6.6 0 0 0-.074.301v3.113z"/></svg>