<svg xmlns="http://www.w3.org/2000/svg" viewBox="0 0 178.2 56"><g><path d="M19.3 1.4H0v53.4h39.5V36.6H19.3zm47.5 0-8 14.9-8-14.9h-18L49 34.6v20.2h19.2V34.4l16.5-33zm58.4 24c-1.8-1.2-3.8-2.1-5.9-2.8-2.2-.7-4.4-1.3-6.7-1.7-3.3-.6-5.8-1.1-7.6-1.6s-3-1.1-3.1-2.5c-.1-.5 0-1.8.7-2.5 1-1 2.3-1.3 3.8-1.3 2.5-.1 3.3.4 4.2 1 .9.7 1.4 2.1 1.4 3.6v.1h18.1v-.2c-.3-6.2-2.5-10.3-6.5-13.2S114.1-.1 107-.1q-11.4 0-17.4 4.8c-4.1 3.2-6.1 7.6-6.1 13.1 0 2.8.5 5.2 1.5 7.1.9 1.8 2.3 3.4 4 4.6 1.8 1.2 3.7 2.2 5.8 2.8 2.2.7 4.4 1.3 6.6 1.7 3.4.6 6 1.2 7.9 1.7s3.3 1.5 3.3 2.7-.5 2.1-1.1 2.6-2 1-3.5 1c-1.8 0-3.2-.5-4.2-1.2-.9-.7-1.8-2.1-1.9-3.5v-.4H82.7v.1c.1 4.2 1 7.2 2.5 10.1q2.25 4.35 7.5 6.6c1.8.7 3.9 1.3 6.2 1.7q3.6.6 8.1.6c8.1 0 14.1-1.6 18-4.9 3.9-3.2 5.9-7.8 5.9-13.6 0-2.9-.5-5.4-1.6-7.3-1-1.9-2.4-3.6-4.1-4.8m8.8-24v16.4h12.9v37h18.5v-37h12.8V1.4zm0 0"/></g></svg>