<svg xmlns="http://www.w3.org/2000/svg" viewBox="0 0 209.8 85"><g><path fill="#0a9928" d="M13.5 24.8c4.3 0 8.5 1.2 12 3.7l-1.2-3.1h12.9l4.4 15.5 1 3.5s.5-1.8 1-3.5l4.5-15.5H61l-1.1 3.3c3.5-2.5 7.7-3.8 12-3.7.6 0 1.3 0 1.9.1L67 0 0 18l2.6 9.8c3.3-2 7-3 10.9-3m58.3 11.3c-3.5-.1-6.3 2.7-6.4 6.2v.5c-.2 3.4 2.3 6.3 5.7 6.5h.7c3.4.1 6.3-2.5 6.4-6v-.6c0-.5 0-1-.1-1.5l-.3-.8c-.8-2.6-3.3-4.4-6-4.3m-52 6.5c.2-3.5-2.4-6.5-5.9-6.7h-.5c-3.5-.1-6.3 2.7-6.4 6.2v.5c-.2 3.4 2.3 6.3 5.7 6.5h.7c3.8.2 6.4-2.5 6.4-6.5m52 17.5c-9.4 0-17.2-5.3-18.7-14.3l-5.3 13.8H37.3L32 45.8c-1.5 9-9.3 14.3-18.7 14.3-.7 0-1.5 0-2.2-.1l6.7 25 67-18-2.6-9.7c-3.1 1.9-6.7 2.8-10.4 2.8m23.7-15.6c-.2 3.5 2.4 6.6 6 6.8h.7c4.9 0 6.3-3 7.6-3 .8 0 1.4.7 1.4 1.5v.1c0 1.8-4.6 4.6-9 4.6-7.2 0-10.4-5.6-10.4-11.6s3.8-11.6 10.1-11.6 9.7 5.6 9.7 11c0 1.4-.4 2-2 2H95.5zm12.4-2.8c0-3.3-1.9-6.9-6-6.9-4.6-.1-6.3 3.5-6.4 6.9zm6.7-8.2c-.1-1 .6-1.9 1.6-2h.3c1 0 1.9.8 1.9 1.9v1.2l.1.1c1.5-2 3.8-3.1 6.3-3 3.5 0 7.9 2.2 7.9 8.6v12.5c.1 1-.6 1.9-1.6 2h-.3c-1 0-1.9-.8-1.9-1.9V40.5c.2-2.9-1.9-5.3-4.8-5.6-2.9-.2-5.3 1.9-5.6 4.8v13.1c.1 1-.6 1.9-1.6 2h-.3c-1 0-1.9-.8-1.9-1.9V33.5zm24.8 11c-.2 3.5 2.4 6.6 6 6.8h.7c4.9 0 6.3-3 7.6-3 .8 0 1.4.7 1.4 1.5v.1c0 1.8-4.6 4.6-9 4.6-7.2 0-10.4-5.6-10.4-11.6s3.8-11.6 10.1-11.6 9.7 5.6 9.7 11c0 1.4-.4 2-2 2h-14.1zm12.3-2.8c0-3.3-1.9-6.9-6-6.9-4.6-.1-6.3 3.5-6.4 6.9zm6.7-8.2c-.1-1 .6-1.9 1.6-2h.3c1 0 1.9.8 1.9 1.9v2.1h.1c.8-1.8 2.9-4 5-4 1-.1 1.9.6 2 1.6v.3c0 1.1-.8 1.8-2.3 2-2.2.4-4.9 2-4.9 6.4v10.8c.1 1-.6 1.9-1.6 2h-.3c-1 0-1.9-.8-1.9-1.9V33.5zm31.4 19.2c0 6.7-4.1 10.8-10.2 10.8-3.8 0-8.6-2.2-8.6-4.1-.1-.9.5-1.7 1.4-1.8h.2c1.6 0 3.4 2.6 7.4 2.6 4.8 0 6.1-3.7 6.1-6.9v-1.9h-.1c-1.2 2.1-3.4 3.3-5.7 3.3-6.4 0-9.9-5.6-9.9-11.6s3.5-11.6 9.9-11.6c2.2.1 4.3 1.1 5.7 2.9h.1v-1c0-1.4 1-1.8 2-1.8s1.8.8 1.8 1.8v19.3zm-9.6-1.3c4.6 0 6.1-4.5 6.1-8.3s-1.6-8.3-6.1-8.3-6.1 4.5-6.1 8.3 1.5 8.3 6.1 8.3M193 35.1c-.3-.7-.5-1.3-.5-2 0-.9.7-1.6 1.6-1.6s1.7.5 1.9 1.4l5.2 15.5h.1l5-15.5c.2-.8.9-1.4 1.8-1.4s1.6.7 1.6 1.6c-.1.7-.3 1.4-.5 2L199.8 62c-.2.8-.9 1.3-1.8 1.4-.9 0-1.6-.7-1.6-1.6.1-.7.3-1.4.5-2l2.3-6.3z"/></g></svg>