<svg xmlns="http://www.w3.org/2000/svg" viewBox="0 0 151.33 42.59"><path fill="#ef3b3a" d="M8 41.8H0V25.87a14.8 14.8 0 0 1 1.35-6.43A10.3 10.3 0 0 1 5.44 15a13.1 13.1 0 0 1 6.85-1.65 15 15 0 0 1 2.75.25 11.8 11.8 0 0 1 2.41.7V22a7.3 7.3 0 0 0-2.19-.9 9.5 9.5 0 0 0-2.26-.28 4.84 4.84 0 0 0-3.71 1.43A5.48 5.48 0 0 0 8 26.15zm27.07.73a15.9 15.9 0 0 1-7.77-1.88 13.8 13.8 0 0 1-5.42-5.22 15 15 0 0 1-2-7.77 15.1 15.1 0 0 1 1.82-7.32A13.92 13.92 0 0 1 34.34 13a13.9 13.9 0 0 1 7.52 2 13 13 0 0 1 4.74 5.14 15.1 15.1 0 0 1 1.66 7v2.36h-22l1.23-2a8.37 8.37 0 0 0 .82 4.21 6.8 6.8 0 0 0 2.63 2.89 7.65 7.65 0 0 0 4.07 1 7.83 7.83 0 0 0 4.07-1.07 7 7 0 0 0 2.78-3L48 34.68a13.3 13.3 0 0 1-5.13 5.8 14.54 14.54 0 0 1-7.8 2.05M27.94 25h12.4a5.5 5.5 0 0 0-1-2.61 5.55 5.55 0 0 0-2.1-1.8 7.27 7.27 0 0 0-6 0 5.85 5.85 0 0 0-2.14 1.82A7.5 7.5 0 0 0 27.94 25"/><path fill="#050606" d="M67.73 42.59a14.91 14.91 0 0 1-13.05-7.32 14 14 0 0 1-2-7.33 15.6 15.6 0 0 1 1.85-7.66 13.14 13.14 0 0 1 5.16-5.19 15.3 15.3 0 0 1 7.58-1.85 11.9 11.9 0 0 1 5.61 1.35 11.7 11.7 0 0 1 4.18 3.59A8.22 8.22 0 0 1 78.67 23l-3.87-.68V1.22h8v26.72a14.4 14.4 0 0 1-2 7.52 14.15 14.15 0 0 1-5.39 5.22 15.64 15.64 0 0 1-7.68 1.91m0-7.52a6.9 6.9 0 0 0 3.67-1 7.3 7.3 0 0 0 2.53-2.61 7.1 7.1 0 0 0 .92-3.54 7.4 7.4 0 0 0-.92-3.62 6.87 6.87 0 0 0-2.53-2.6 7 7 0 0 0-3.67-1 6.91 6.91 0 0 0-6.15 3.56 7.27 7.27 0 0 0-.92 3.62 7 7 0 0 0 .92 3.54 7.3 7.3 0 0 0 2.53 2.61 6.8 6.8 0 0 0 3.62 1.04"/><path fill="#ef3b3a" d="M94.6 9.88a5 5 0 0 1-2.49-.65 4.6 4.6 0 0 1-1.8-1.8 5 5 0 0 1-.64-2.49A4.85 4.85 0 0 1 92.11.67 4.8 4.8 0 0 1 94.6 0a4.7 4.7 0 0 1 2.47.67 4.93 4.93 0 0 1 1.77 1.8 4.87 4.87 0 0 1 .64 2.47 5 5 0 0 1-.64 2.49 4.64 4.64 0 0 1-1.77 1.8 4.87 4.87 0 0 1-2.47.65"/><path fill="#050606" d="M90.62 14.03h7.97v27.78h-7.97zm35.57 6.73h-21.77V14h21.77zm-8.86 21h-8V12.57a13.3 13.3 0 0 1 1.35-6.06 10 10 0 0 1 4-4.27 13.25 13.25 0 0 1 6.8-1.57 14.7 14.7 0 0 1 2.75.26 11.2 11.2 0 0 1 2.41.7V9a6.8 6.8 0 0 0-2.13-.9 9.7 9.7 0 0 0-2.3-.28A5.2 5.2 0 0 0 118.65 9a4.42 4.42 0 0 0-1.32 3.51zm33.55-21h-21.77V14h21.77zM142 41.8h-8V12.57a13.3 13.3 0 0 1 1.35-6.06 10 10 0 0 1 4-4.27 13.25 13.25 0 0 1 6.82-1.57 15 15 0 0 1 2.75.26 11.2 11.2 0 0 1 2.41.7V9a7 7 0 0 0-2.13-.9 9.8 9.8 0 0 0-2.3-.28A5.23 5.23 0 0 0 143.33 9a4.45 4.45 0 0 0-1.33 3.46z"/></svg>