<svg xmlns="http://www.w3.org/2000/svg" viewBox="0 2 116 25"><path fill="#1a1a1a" d="M115.946 8.136h-1.106v9.331h1.106zM109.524 8.136l-3.393 9.331h1.158l.852-2.4h3.908l.845 2.4h1.183l-3.38-9.331h-1.173m-1.063 6.025 1.641-4.627 1.626 4.627zM103.562 14.869q.144 0 .249.107a.35.35 0 0 1 .106.252v1.88a.34.34 0 0 1-.106.252.34.34 0 0 1-.249.107h-8.313A.34.34 0 0 1 95 17.36a.35.35 0 0 1-.106-.252V8.495c0-.097.036-.184.106-.252a.34.34 0 0 1 .249-.107h8.18q.145 0 .249.107a.35.35 0 0 1 .106.252v1.88a.35.35 0 0 1-.106.252.34.34 0 0 1-.249.107h-5.117v.84h4.393q.146 0 .249.108a.35.35 0 0 1 .106.252v1.732a.34.34 0 0 1-.106.252.34.34 0 0 1-.249.107h-4.393v.841h5.248zM90.567 8.136q1.236 0 2.156.425.92.426 1.408 1.16.486.73.487 1.64 0 1.494-.92 2.346-.92.84-3.128.84h-1.737v2.561a.34.34 0 0 1-.106.252.34.34 0 0 1-.249.107h-2.827a.34.34 0 0 1-.249-.107.35.35 0 0 1-.105-.252V8.495c0-.097.035-.184.105-.252a.34.34 0 0 1 .25-.107h4.918zm-.053 3.946q.316 0 .5-.186a.73.73 0 0 0 .184-.52.82.82 0 0 0-.184-.548.63.63 0 0 0-.5-.214h-1.671v1.468zM77.799 17.014q-.171.454-.59.453h-2.486a.32.32 0 0 1-.212-.079.32.32 0 0 1-.077-.214l.012-.079 2.868-8.519a.7.7 0 0 1 .196-.305.56.56 0 0 1 .394-.133h3.657q.25-.001.394.133.144.133.197.305l2.867 8.52.012.078q0 .119-.093.214a.26.26 0 0 1-.195.08h-2.486q-.422 0-.59-.454l-.33-.933h-3.21zm1.935-6.305-.935 2.774h1.867l-.935-2.774zM68.348 11.557q1.408.156 2.252.504.856.351 1.239.92.385.57.385 1.427-.001.932-.601 1.633-.588.687-1.636 1.062-1.048.362-2.39.362-1.498 0-2.53-.377-1.037-.376-1.549-.999-.511-.635-.51-1.386a.28.28 0 0 1 .075-.206.33.33 0 0 1 .219-.08h2.621q.268 0 .435.169.218.207.485.285.268.065.754.064 1.214 0 1.214-.377 0-.156-.166-.26-.154-.118-.563-.194-.396-.09-1.176-.18-1.753-.208-2.687-.882-.933-.686-.932-1.93 0-.883.525-1.557t1.483-1.05q.972-.376 2.249-.377c.852 0 1.661.143 2.327.428q.997.416 1.523 1.037.525.622.525 1.217 0 .13-.09.207a.3.3 0 0 1-.219.079h-2.75a.6.6 0 0 1-.396-.156 1 1 0 0 0-.332-.206q-.192-.077-.588-.079-.856 0-.857.362 0 .195.332.31.333.105 1.33.22zM62.366 14.81q.14 0 .244.105.102.102.103.247v1.826a.34.34 0 0 1-.103.247.33.33 0 0 1-.244.105h-8.08a.34.34 0 0 1-.244-.105.34.34 0 0 1-.102-.247V8.615q0-.144.102-.248a.33.33 0 0 1 .244-.104h7.954q.14.001.244.104a.34.34 0 0 1 .103.247v1.827a.34.34 0 0 1-.103.247.33.33 0 0 1-.244.105h-4.973v.817h4.27q.139 0 .244.105a.34.34 0 0 1 .102.247v1.684a.34.34 0 0 1-.102.247.33.33 0 0 1-.244.104h-4.27v.818h5.101zM53.169 14.68q.139 0 .244.105a.34.34 0 0 1 .103.247v1.956a.34.34 0 0 1-.103.247.33.33 0 0 1-.244.105h-7.467a.34.34 0 0 1-.243-.105.34.34 0 0 1-.104-.247V8.615q.001-.144.104-.248a.33.33 0 0 1 .243-.104h2.762q.14.001.244.104.102.103.103.247v6.066h4.36zM38.007 16.897q-.164.44-.575.44h-2.418a.3.3 0 0 1-.204-.079.32.32 0 0 1-.078-.206l.013-.079 2.787-8.282a.7.7 0 0 1 .191-.298.54.54 0 0 1 .385-.13h3.553a.55.55 0 0 1 .385.13.66.66 0 0 1 .19.298l2.788 8.282.012.079q0 .119-.09.206a.26.26 0 0 1-.191.08H42.34q-.41 0-.576-.441l-.319-.907h-3.119zm1.88-6.13-.907 2.696h1.814zM31.18 11.557q1.409.156 2.25.504.856.351 1.242.92.384.57.384 1.427 0 .932-.6 1.633-.589.687-1.637 1.062-1.047.362-2.39.362-1.497 0-2.53-.377-1.037-.376-1.548-.999-.513-.635-.513-1.386 0-.13.078-.206a.33.33 0 0 1 .216-.08h2.621q.268 0 .435.169.218.207.485.285.268.065.754.064 1.214 0 1.214-.377 0-.156-.166-.26-.154-.118-.563-.194-.396-.09-1.176-.18-1.754-.208-2.684-.882-.934-.686-.933-1.93 0-.883.526-1.557.524-.674 1.482-1.05.973-.376 2.25-.377c.852 0 1.66.143 2.327.428q.997.416 1.52 1.037.526.622.526 1.217 0 .13-.091.207a.3.3 0 0 1-.216.079h-2.75a.6.6 0 0 1-.397-.156 1 1 0 0 0-.331-.206q-.193-.077-.588-.079-.856 0-.857.362 0 .195.331.31.333.105 1.33.22z"/><path fill="#F724DE" d="M.136 7.073c-.018-1.35.502-1.916 2.184-2.18L19.78 1.92c1.76-.227 2.488 1.021 2.45 2.12l-1.35 16.528a2.035 2.035 0 0 1-2.022 1.979H9.356a.41.41 0 0 0-.404.446l.301 3.554c.033.384-.43.598-.693.32l-3.526-3.693a2.01 2.01 0 0 0-1.455-.627H2.02A2.036 2.036 0 0 1 0 20.627z"/><path d="m13.226 14.795-.543-1.274c-.035-.079-.06-.163-.103-.27.495.008 1.993-.094 2.41-.27a.57.57 0 0 0 .29-.257c.193-.36.344-.744.545-1.098a.95.95 0 0 0 .055-.859c-.196-.438-.163-.443-.636-.453-.098-.003-.553.028-.626-.095-.103-.178-.186-.364-.291-.59l.965.07c-.078-.213-.181-.45-.236-.629-.07-.226-.209-.356-.417-.45-.629-.288-1.255-.594-1.88-.89q-.31-.147-.626-.295a.406.406 0 0 0-.535.19q-.804 1.67-1.599 3.33a.66.66 0 0 1-.306.314c-.619.31-2.127.976-2.38 1.144a.9.9 0 0 0-.26.26c-1.46 2.387-3.05 4.988-4.515 7.388-.056.089.01.203.115.203l3.999-.005c.073 0 .178-.079.21-.15.255-.53.498-1.065.742-1.597.161-.344.32-.688.483-1.04a.186.186 0 0 1 .269-.079c.532.337 1.045.655 1.545.986a.48.48 0 0 1 .171.3l.123 1.39c.01.109.1.195.211.195h3.31a.21.21 0 0 0 .209-.183l.357-2.405a.96.96 0 0 0-.066-.51l-.995-2.366z"/><path d="m17.838 17.33-1.865-4.527-1.201 2.489c-.113.232-.136.45-.106.703q.067.562.119 1.128l.326 2.943c.013.11.1.19.209.19.535 0 1.37-.007 1.817-.002.2.003.269-.117.289-.216.068-.339.402-1.926.457-2.138a.8.8 0 0 0-.047-.573zM13.293 5.983c.759.1 1.357.705 1.455 1.477.01.087.133.087.143 0a1.7 1.7 0 0 1 1.458-1.477c.085-.01.085-.135 0-.145a1.694 1.694 0 0 1-1.458-1.475c-.01-.087-.133-.087-.143 0a1.694 1.694 0 0 1-1.455 1.475c-.086.01-.086.135 0 .145"/></svg>