<svg xmlns="http://www.w3.org/2000/svg" viewBox="30 255 620 135"><style>.skimlinks-logo_svg_st0{fill:#00a9c5}</style><path d="M120.5 360.4c-3.9 5.5-9.2 9.9-15.3 12.7-27.5 12.4-59.9.1-72.3-27.5s-.1-59.9 27.5-72.3c4-1.8 8.3-3.1 12.6-3.9.3 0 .5.3.5.6 0 .1-.1.2-.1.3-8.9 4.5-28.4 20.8 16.3 41.4 41.6 19.2 38.4 37.8 30.8 48.7" class="skimlinks-logo_svg_st0"/><path d="M135.9 329h.2c.2-1.7.2-3.4.2-5.3.1-22-13-41.9-33.3-50.5l-1.7-.8c-10-3.6-15.5 1.1-15.5 1.1-3.4 2-4.5 6.4-2.5 9.9.3.5.6.9 1 1.3 1.9 1.9 4.2 3.3 6.6 4.4 11 4.9 43.1 18.7 45 39.7h.2z" class="skimlinks-logo_svg_st0"/><path fill="#003056" d="M202.6 295.7c.3.5.4 1 .4 1.5 0 .4 0 .9-.2 1.3l-.8 1.1-1.1.8c-.9.4-1.9.4-2.8 0l-1.1-.9-.9-.9-.9-.8c-4-2.2-8.9-1.8-12.5.9-1.8 1.5-2.9 3.7-2.8 6.1 0 3.4 2.5 6.1 7.2 7.9l6.1 2.5c4 1.4 7.6 3.8 10.4 7 2.1 2.8 3.1 6.2 3 9.6.2 5-1.8 9.8-5.3 13.2-3.5 3.5-8.3 5.4-13.2 5.3-7.4.4-14.2-4-16.8-11-.3-.8-.5-1.6-.6-2.5 0-.5.2-.9.4-1.3l.8-1.1 1.1-.8c1.2-.5 2.6-.3 3.6.6.7.5 1.1 1.3 1.3 2.1.3 1.2.8 2.2 1.5 3.2 3.9 4.9 11 5.8 15.9 1.9.3-.2.6-.5.9-.8 2.1-2.1 3.1-5 3-7.9 0-1.2-.2-2.3-.6-3.4l-.8-1.5-.9-1.5-1.3-1.3-1.5-1.1-1.9-1.1-2.3-.9-5.7-2.8c-7.9-3.4-11.7-8.1-11.7-14.6 0-4.1 1.8-8 4.9-10.6 3.4-2.9 7.8-4.5 12.3-4.4 4.7-.1 9.2 1.8 12.3 5.3zm35.2 28.6 18.7 23.3 1.3 1.1c1 .5 2.2.6 3.2.2l1.1-.8.8-1.1c.2-.5.4-1 .4-1.5 0-.4 0-.9-.2-1.3l-.8-1.1-19.9-24c-.5-.6-.8-1.4-.8-2.3.1-.8.5-1.6 1.1-2.1l.6-.6 18-18 .6-.9c.2-.4.2-.9.2-1.3s0-.9-.2-1.3l-.8-1.1-1.1-.8h-1.3c-.9 0-1.8.4-2.5 1.1l-.4.4-20.6 21.2c-.4.6-1.3.7-1.8.3-.2-.1-.3-.3-.4-.5-.2-.3-.4-.7-.4-1.1v-18c0-.5 0-1-.2-1.5l-.8-1.1-1.1-.8c-.9-.4-1.9-.4-2.8 0l-1.1.8-.8 1.1c-.1.4-.2.9-.2 1.3v51.6c0 .4 0 .9.2 1.3l.8 1.1 1.1.8c.9.4 1.9.4 2.8 0l1.1-.8.8-1.1c.2-.4.2-.9.2-1.3v-19.1c-.1-.9.1-1.7.6-2.5.4-.6 1-.9 1.7-.9h.2c1.1 0 2.1.4 2.7 1.3m54.3 22.7c.2-.5.2-1 .2-1.5v-51.3c0-.5 0-1-.2-1.5l-.8-1.1-1.1-.8-1.3-.4h-1.3l-1.1.8-.8 1.1c-.1.4-.2.9-.2 1.3v51.1c0 .5.2 1 .4 1.5l.8 1.3 1.1.9c.8.4 1.8.4 2.6 0l1.1-.8zM399 292.7c-.1.4-.2.9-.2 1.3v53.9c0 .4.1.7.4.9l.9.4h20.6l1.3-.4.9-.8.8-1.1c.2-.4.2-.9.2-1.3 0-.5 0-.9-.2-1.3l-.8-1.1-.9-.8-1.3-.4h-11.5c-.9 0-1.7-.3-2.3-.9q-.9-.9-.9-2.1v-45.4c0-.5 0-1-.2-1.5l-.8-1.1-1.1-.8-1.3-.4h-1.3l-1.1.8zm50.5 54.3c.1-.4.2-.9.2-1.3v-51.5c0-.5 0-1-.2-1.5l-.8-1.1-1.1-.8-1.3-.4H445l-1.1.8-.8 1.1c-.1.4-.2.9-.2 1.3v51.1c0 .5.2 1 .4 1.5l.8 1.3 1.1.9c.8.4 1.8.4 2.6 0l1.1-.8zm174.7-51.3c.3.5.4 1 .4 1.5 0 .4 0 .9-.2 1.3l-.8 1.1-1.1.8c-.9.4-1.9.4-2.8 0l-1.1-.9-.9-.9-.9-.8c-4-2.2-8.9-1.8-12.5.9-1.8 1.5-2.9 3.7-2.8 6.1 0 3.4 2.5 6.1 7.2 7.9l6.1 2.5c4 1.4 7.6 3.8 10.4 7 2.2 2.8 3.3 6.3 3.2 9.8.1 4.9-1.8 9.6-5.3 13.1s-8.3 5.4-13.2 5.3c-7.4.4-14.2-4-16.8-11-.3-.7-.5-1.5-.6-2.3 0-.5.2-.9.4-1.3l.8-1.1 1.1-.8c1.2-.5 2.6-.3 3.6.6.7.5 1.1 1.3 1.3 2.1.3 1.2.8 2.2 1.5 3.2 3.9 4.9 11 5.8 15.9 1.9.3-.2.6-.5.9-.8 2.1-2.1 3.1-5 3-7.9 0-1.2-.2-2.3-.6-3.4l-.8-1.5-.9-1.5-1.3-1.3-1.5-1.1-1.9-1.1-2.3-.9-5.9-2.5c-7.9-3.4-11.7-8.1-11.7-14.6 0-4.1 1.8-8 4.9-10.6 3.4-2.9 7.8-4.5 12.3-4.4 4.7-.1 9.2 1.8 12.3 5.3zm-119 31.4.6-.8c.1-.2.2-.5.2-.8v-31.8c0-.5.2-.9.4-1.3l.8-1.1 1.1-.8c.9-.4 1.9-.4 2.8 0l1.1.8.8 1.1c.2.5.2 1 .2 1.5v53.9c-.5 1.1-1.7 1.5-2.7 1.1-.3-.1-.6-.4-.9-.7l-25.2-35.9h-.2l-1.2-.3c-.8 0-1.4.6-1.5 1.3v32.2c0 .4 0 .9-.2 1.3l-.8 1.1-1.1.8c-.9.4-1.9.4-2.8 0l-1.1-.8-.8-1.1c-.2-.4-.3-.9-.4-1.3v-53.2c0-1.1 1-2.1 2.1-2 .7 0 1.3.3 1.6.9l24.8 35c.1 0 1 1.7 2.4.9m-191.1 18v.4c0 .5.2.9.4 1.3l.8 1.1 1.1.8c1.2.5 2.6.4 3.6-.4.6-.5 1.1-1.1 1.3-1.9l5.5-30.6v-.9l.6-.8c.4-.2.9-.2 1.3 0 .3.3.6.7.8 1.1l14 31.4v.4c.3.9 1.3 1.4 2.2 1 .5-.2.9-.6 1-1l14.2-31.2.6-1.1.9-.8c.5-.1 1 0 1.3.4.2.3.4.6.4.9l5.5 30.8c.1.9.5 1.7 1.1 2.3 1 .9 2.5 1.1 3.8.6l1.1-.8.8-1.1c.2-.7.3-1.4.2-2.1l-9.3-53c.1-.6-.4-1.2-1-1.2-.6-.1-1.2.4-1.2 1l-18.2 41.4c-.2.6-.9 1-1.5.9h-.4c-.3-.2-.6-.4-.8-.8l-17.6-41.4c-.3-.6-1-.8-1.5-.5-.3.1-.5.4-.5.7zm231.2-31.8.4.4c.6.2 1.3.1 1.7-.4l20.8-21.4.4-.4c.6-.7 1.5-1.1 2.5-1.1h1.3l1.1.8.8 1.1c.2.4.2.9.2 1.3s0 .9-.2 1.3l-.6.9-18 18-.6.6c-.6.5-1 1.3-1.1 2.1 0 .8.2 1.6.8 2.3l19.9 23.8.8 1.1c.1.4.2.9.2 1.3 0 .5-.1 1-.4 1.5l-.8 1.1-1.1.8c-1 .4-2.2.3-3.2-.2l-1.3-1.1-18.9-22.9-1.1-.9-1.3-.4h-.2c-.7 0-1.3.4-1.7.9-.5.7-.7 1.6-.6 2.5v19.3c0 .5 0 .9-.2 1.3l-.8 1.1-1.1.8c-.9.4-1.9.4-2.8 0l-1.1-.8-.9-1.1c-.1-.4-.2-.9-.2-1.3V294c0-.4 0-.9.2-1.3l.8-1.1 1.1-.8c.9-.4 1.9-.4 2.8 0l1.1.8.8 1.1c.2.5.2 1 .2 1.5v18c0 .4.2.8.4 1.1z"/></svg>