<svg xmlns="http://www.w3.org/2000/svg" viewBox="0 0 358 52.4"><style>.wagestream-logo_svg_st0{fill:#2c225c}</style><g><g><path d="M181.5 30.4h6.7c-.4 3.4-3.4 6.1-7.3 6.1-5.7 0-9.5-4.2-9.5-9.1 0-5.3 3.4-9.3 8.9-9.3 4.9 0 7.5 2.4 7.7 2.6l2.4-3.6c-.2-.2-3.6-3.4-10.1-3.4-8.1 0-14.1 5.9-14.1 13.7 0 7.5 6.5 13.3 14.6 13.3 6.1 0 12.5-3.6 12.5-14.5h-11.7v4.2zm20.2-1.2h8.5v-4.4h-8.7v-5.7h10.7v-4.4h-15.3v25.6h16.6v-4h-11.8zm-62.3 11.1h5.5l2.2-4.6H159l2.2 4.6h5.5l-13.5-26.9zm9.7-8.9 3.8-8.3 4 8.3zM137 14.7l-5.9 15.5-7.7-16.7-7.7 16.7-6-15.7h-5.5l11.3 26.8 7.9-17.1 8.1 17.1 10.9-26.6zm149.7 14.5h8.5v-4.4h-8.5v-5.7h10.7v-4.4h-15.6v25.6h16.6v-4h-11.7zm67.8-15.3-11.9 18.6-11.9-18.6-3.6 26.4h5.2l1.2-12.9 8.9 13.9 8.9-14.1 1.4 13.1h5.3zm-55.4 26.4h5.5l2.2-4.6h11.9l2.2 4.6h5.5l-13.7-27.1zm9.5-8.9 3.8-8.3 4 8.3zm-72.9-12.5h7.7v21.4h5V18.9h7.7v-4.4h-20.4zm40.5 3.4c0-6.9-6.7-7.9-11.7-7.9H259v25.9h4.9v-9.7h.6l9.9 9.7h6.7L270 30.2c3.3-1 6.2-3 6.2-7.9M264 26.2v-7.5h1.8c3.6 0 5.3 1.4 5.3 3.6 0 2.6-1.8 3.8-5.5 3.8H264zm-41.8-5.5c0-1.6 1.6-2.4 3.4-2.4s3.6.8 5.1 2.2l2.4-3.6c-.6-.6-3.4-3-7.5-3-4.2 0-8.5 2.4-8.5 7.1 0 7.9 11.5 7.1 11.5 12.5 0 1.8-1.4 3-4 3-2.8 0-5.3-1.6-6.7-2.8l-2.6 3.4c1.4 1.6 5.1 3.8 8.9 3.6 6.1 0 9.7-3.4 9.7-7.5 0-9-11.7-8-11.7-12.5" class="wagestream-logo_svg_st0"/></g><g><path d="M9.3 24.3c3.7.9 6.4 2.7 11.4 6.9 5 4.3 7.9 5 10 5.8 0 0-2.1 4.7-6.5 14.1-.3.6-.8 1.1-1.4 1.3H22c-.6 0-1.3-.3-1.7-1.3-7.4-17.9-11-26.8-11-26.8m59.3-.1s-3.7 8.9-11 26.8c-.4.9-1 1.2-1.5 1.3h-.8c-.7 0-1.2-.6-1.6-1.3-4.1-8.9-6.2-13.6-6.4-14.1 2.1-.8 4.9-1.5 10-5.8 4.9-4.2 7.6-6 11.3-6.9M39.3 0c.8 0 1.5.4 1.8 1.3 7.5 16.4 11.2 24.6 11.2 24.6-2.8 2.3-5.1 3.6-8.1 4.4 0 0-1.7-3.6-5.2-10.7-.1-.1-.1-.2-.2-.2s-.1.1-.2.2c-3.4 7.2-5 10.8-5 10.7-3.9-1-6-2.8-8.1-4.3L36.6 1.4c.3-.9 1-1.3 1.7-1.3zM9.8 0c.6 0 1.2.5 1.4 1 5 12.9 7.5 19.4 7.5 19.4-5.2-3.3-9.7-3.8-12.6-4 0 0-2-4.9-6-14.6C-.2.8.3.1 1.2 0zm66.7 0c1.1 0 1.7.7 1.4 1.8-4 9.8-6 14.6-6 14.6-2.8.2-7.4.7-12.6 4 0 0 2.5-6.5 7.5-19.4.1-.5.6-.9 1.1-1z" class="wagestream-logo_svg_st0"/></g></g></svg>