<svg xmlns="http://www.w3.org/2000/svg" viewBox="0 0 102 32" fill="none">
<mask id="mask0_217_10669-17" style="mask-type:luminance" maskUnits="userSpaceOnUse" x="2" y="2" width="28" height="28">
<path d="M2.17334 2.17261H29.1857V29.185H2.17334V2.17261Z" fill="white"></path>
</mask>
<g mask="url(#mask0_217_10669-17)">
<mask id="mask1_217_10669-18" style="mask-type:luminance" maskUnits="userSpaceOnUse" x="2" y="2" width="28" height="28">
<path d="M15.6795 2.17261C8.21996 2.17261 2.17334 8.21972 2.17334 15.6789C2.17334 23.1384 8.21996 29.185 15.6795 29.185C23.1386 29.185 29.1857 23.1384 29.1857 15.6789C29.1857 8.21972 23.1386 2.17261 15.6795 2.17261Z" fill="white"></path>
</mask>
<g mask="url(#mask1_217_10669-18)">
<path d="M2.17334 2.17261H29.1857V29.185H2.17334V2.17261Z" fill="white"></path>
</g>
</g>
<mask id="mask2_217_10669-19" style="mask-type:luminance" maskUnits="userSpaceOnUse" x="0" y="0" width="31" height="31">
<path d="M0.741699 0.741943H30.6215V30.6218H0.741699V0.741943Z" fill="white"></path>
</mask>
<g mask="url(#mask2_217_10669-19)">
<path d="M15.6786 2.23544C23.0918 2.23544 29.1221 8.26575 29.1221 15.6789C29.1221 23.092 23.0918 29.1219 15.6786 29.1219C8.26551 29.1219 2.23569 23.092 2.23569 15.6789C2.23569 8.26575 8.26551 2.23544 15.6786 2.23544ZM15.6786 0.741943C7.42909 0.741943 0.741699 7.42934 0.741699 15.6789C0.741699 23.9285 7.42909 30.6159 15.6786 30.6159C23.9282 30.6159 30.6157 23.9285 30.6157 15.6789C30.6157 7.42934 23.9282 0.741943 15.6786 0.741943Z" fill="#008037"></path>
</g>
<mask id="mask3_217_10669-20" style="mask-type:luminance" maskUnits="userSpaceOnUse" x="1" y="3" width="7" height="7">
<path d="M1.70996 3.58179H7.65431V9.65262H1.70996V3.58179Z" fill="white"></path>
</mask>
<g mask="url(#mask3_217_10669-20)">
<mask id="mask4_217_10669-21" style="mask-type:luminance" maskUnits="userSpaceOnUse" x="1" y="1" width="10" height="9">
<path d="M6.99969 9.53732L1.79443 4.85525L4.94051 1.35791L10.1458 6.03997L6.99969 9.53732Z" fill="white"></path>
</mask>
<g mask="url(#mask4_217_10669-21)">
<mask id="mask5_217_10669-22" style="mask-type:luminance" maskUnits="userSpaceOnUse" x="1" y="3" width="7" height="7">
<path d="M6.99917 9.53733L7.5441 3.7002L1.79736 4.85823L6.99917 9.53733Z" fill="white"></path>
</mask>
<g mask="url(#mask5_217_10669-22)">
<path d="M6.99969 9.53732L1.79443 4.85525L4.94051 1.35791L10.1458 6.03997L6.99969 9.53732Z" fill="#008037"></path>
</g>
</g>
</g>
<mask id="mask6_217_10669-23" style="mask-type:luminance" maskUnits="userSpaceOnUse" x="6" y="14" width="4" height="7">
<path d="M6.06641 14.6589H9.34439V20.7668H6.06641V14.6589Z" fill="white"></path>
</mask>
<g mask="url(#mask6_217_10669-23)">
<mask id="mask7_217_10669-24" style="mask-type:luminance" maskUnits="userSpaceOnUse" x="6" y="14" width="4" height="7">
<path d="M8.72635 20.7608H6.68396C6.34356 20.7608 6.06641 20.4837 6.06641 20.1433V15.277C6.06641 14.9366 6.34356 14.6589 6.68396 14.6589H8.72635C9.06724 14.6589 9.34439 14.9366 9.34439 15.277V20.1433C9.34439 20.4837 9.06724 20.7608 8.72635 20.7608Z" fill="white"></path>
</mask>
<g mask="url(#mask7_217_10669-24)">
<path d="M6.06641 14.6589H9.34439V20.7668H6.06641V14.6589Z" fill="#008037"></path>
</g>
</g>
<mask id="mask8_217_10669-25" style="mask-type:luminance" maskUnits="userSpaceOnUse" x="11" y="10" width="4" height="11">
<path d="M11.562 10.4067H14.8401V20.7659H11.562V10.4067Z" fill="white"></path>
</mask>
<g mask="url(#mask8_217_10669-25)">
<mask id="mask9_217_10669-26" style="mask-type:luminance" maskUnits="userSpaceOnUse" x="11" y="10" width="4" height="11">
<path d="M14.2219 20.7609H12.1796C11.8392 20.7609 11.562 20.4837 11.562 20.1434V11.0248C11.562 10.6844 11.8392 10.4067 12.1796 10.4067H14.2219C14.5624 10.4067 14.8401 10.6844 14.8401 11.0248V20.1434C14.8401 20.4837 14.5624 20.7609 14.2219 20.7609Z" fill="white"></path>
</mask>
<g mask="url(#mask9_217_10669-26)">
<path d="M11.562 10.4067H14.8401V20.7659H11.562V10.4067Z" fill="#008037"></path>
</g>
</g>
<mask id="mask10_217_10669-27" style="mask-type:luminance" maskUnits="userSpaceOnUse" x="16" y="7" width="10" height="15">
<path d="M16.8877 7.37598H25.235V21.0354H16.8877V7.37598Z" fill="white"></path>
</mask>
<g mask="url(#mask10_217_10669-27)">
<mask id="mask11_217_10669-28" style="mask-type:luminance" maskUnits="userSpaceOnUse" x="11" y="7" width="18" height="19">
<path d="M11.4277 10.9972L25.2062 7.44751L28.827 21.5017L15.0486 25.0513L11.4277 10.9972Z" fill="white"></path>
</mask>
<g mask="url(#mask11_217_10669-28)">
<mask id="mask12_217_10669-29" style="mask-type:luminance" maskUnits="userSpaceOnUse" x="11" y="7" width="18" height="19">
<path d="M25.1744 7.45557L11.396 11.0053L15.0168 25.0594L28.7953 21.5096L25.1744 7.45557Z" fill="white"></path>
</mask>
<g mask="url(#mask12_217_10669-29)">
<path d="M18.2869 20.7043C18.2869 20.7043 12.5129 15.2021 25.1788 7.46924C25.1788 7.46924 23.4946 13.2886 23.4748 15.5622C23.464 16.739 22.1132 22.0089 18.2869 20.7043Z" fill="#008037"></path>
</g>
</g>
</g>
<mask id="mask13_217_10669-30" style="mask-type:luminance" maskUnits="userSpaceOnUse" x="17" y="11" width="6" height="13">
<path d="M17.645 11.2966H22.957V23.9442H17.645V11.2966Z" fill="white"></path>
</mask>
<g mask="url(#mask13_217_10669-30)">
<mask id="mask14_217_10669-31" style="mask-type:luminance" maskUnits="userSpaceOnUse" x="11" y="7" width="18" height="19">
<path d="M11.4268 10.9975L25.2052 7.44775L28.826 21.5019L15.0477 25.0516L11.4268 10.9975Z" fill="white"></path>
</mask>
<g mask="url(#mask14_217_10669-31)">
<mask id="mask15_217_10669-32" style="mask-type:luminance" maskUnits="userSpaceOnUse" x="11" y="7" width="18" height="19">
<path d="M25.1734 7.45581L11.395 11.0055L15.0159 25.0596L28.7943 21.5099L25.1734 7.45581Z" fill="white"></path>
</mask>
<g mask="url(#mask15_217_10669-32)">
<path d="M17.7831 23.7727C17.7831 23.7727 16.5577 16.6619 22.927 11.3831C22.927 11.3831 17.6951 16.8576 18.3992 23.6141C18.3992 23.6141 18.3383 24.1601 17.7831 23.7727Z" fill="#050A30"></path>
</g>
</g>
</g>
<path d="M40.2309 22.5661L35.6997 6.52979H39.5523L42.3711 17.8053H42.5173L45.3988 6.52979H49.2095L52.091 17.7426H52.2477L55.0247 6.52979H58.8877L54.3461 22.5661H50.4102L47.4033 11.7291H47.1841L44.1773 22.5661H40.2309ZM62.8256 28.5798C62.3106 28.5798 61.8338 28.538 61.3953 28.4545C60.9638 28.3779 60.6192 28.2875 60.3617 28.183L61.2386 25.2389C61.7885 25.3989 62.2792 25.4755 62.7107 25.4685C63.1423 25.4616 63.5217 25.3258 63.8487 25.0613C64.1828 24.8039 64.4648 24.3723 64.6944 23.7668L65.0181 22.9002L59.2028 6.52979H63.2119L66.9078 18.6406H67.0749L70.7811 6.52979H74.8007L68.3799 24.508C68.0806 25.3571 67.6839 26.0846 67.1896 26.6901C66.6955 27.3026 66.09 27.7689 65.373 28.089C64.6631 28.4162 63.814 28.5798 62.8256 28.5798ZM76.1571 22.5661V20.1649L84.4259 9.7976V9.66183H76.4286V6.52979H89.0509V9.10848L81.179 19.2983V19.434H89.3225V22.5661H76.1571ZM91.8247 22.5661V6.52979H95.4896V9.20246H95.6566C95.9485 8.27678 96.4493 7.5633 97.1602 7.06224C97.8763 6.55415 98.6942 6.30005 99.613 6.30005C99.8219 6.30005 100.055 6.31055 100.312 6.33144C100.577 6.3453 100.796 6.36966 100.971 6.40452V9.88107C100.81 9.82542 100.556 9.7767 100.208 9.73491C99.8671 9.68619 99.5363 9.66183 99.2161 9.66183C98.5273 9.66183 97.9078 9.81146 97.3586 10.1108C96.8147 10.4031 96.3874 10.8103 96.0745 11.3323C95.7605 11.8543 95.6041 12.4564 95.6041 13.1385V22.5661H91.8247Z" fill="#1a1a1a"></path>
</svg>