<?xml version="1.0" encoding="UTF-8" standalone="no"?>
<svg xmlns:rdf="http://www.w3.org/1999/02/22-rdf-syntax-ns#" xmlns="http://www.w3.org/2000/svg" xml:space="preserve" height="143.47" width="318.12" version="1.1" xmlns:cc="http://creativecommons.org/ns#" xmlns:xlink="http://www.w3.org/1999/xlink" xmlns:dc="http://purl.org/dc/elements/1.1/"><defs><clipPath id="h"><path d="m285 315.44c0 1.31-0.54 2.61-1.46 3.54-0.93 0.92-2.23 1.46-3.54 1.46s-2.61-0.54-3.54-1.46c-0.92-0.93-1.46-2.23-1.46-3.54s0.54-2.61 1.46-3.54c0.93-0.92 2.23-1.46 3.54-1.46s2.61 0.54 3.54 1.46c0.92 0.93 1.46 2.23 1.46 3.54"/></clipPath><linearGradient id="a" gradientUnits="userSpaceOnUse" gradientTransform="matrix(80,0,0,80,240,315.44)" y1="1"><stop stop-color="#cee6ff" offset="0"/><stop stop-color="#aad4ff" offset="1"/></linearGradient><linearGradient id="g" gradientUnits="userSpaceOnUse" gradientTransform="matrix(80,0,0,80,160,315.44)" y1="1"><stop stop-color="#ffcece" offset="0"/><stop stop-color="#faa" offset="1"/></linearGradient><linearGradient id="f" gradientUnits="userSpaceOnUse" gradientTransform="matrix(80,0,0,80,320,315.44)" y1="1"><stop stop-color="#ffcece" offset="0"/><stop stop-color="#faa" offset="1"/></linearGradient><linearGradient id="e" gradientUnits="userSpaceOnUse" gradientTransform="matrix(80,0,0,80,400,315.44)" y1="1"><stop stop-color="#ffe6ce" offset="0"/><stop stop-color="#ffd4aa" offset="1"/></linearGradient><linearGradient id="d" gradientUnits="userSpaceOnUse" gradientTransform="matrix(80,0,0,80,480,315.44)" y1="1"><stop stop-color="#ceceff" offset="0"/><stop stop-color="#aaf" offset="1"/></linearGradient><linearGradient id="c" gradientUnits="userSpaceOnUse" gradientTransform="matrix(80,0,0,80,560,315.44)" y1="1"><stop stop-color="#ceffe6" offset="0"/><stop stop-color="#aaffd4" offset="1"/></linearGradient><linearGradient id="b" gradientUnits="userSpaceOnUse" gradientTransform="matrix(80,0,0,80,640,315.44)" y1="1"><stop stop-color="#ffceff" offset="0"/><stop stop-color="#faf" offset="1"/></linearGradient>
</defs><g stroke="#000" stroke-miterlimit="10" stroke-width="1.125"><path d="m297.72 57.354-2.8125-7.9312 5.2312-0.16875-2.4188 8.1z"/><path d="m249.06 57.073-3.825-7.5375 5.175-0.7875-1.35 8.325z"/><path d="m200.41 101.79 0.73125 8.3812-5.0625-1.1812 4.3312-7.2z"/><path d="m159.06 102.07 0.84375 8.3812-5.0625-1.0688 4.2188-7.3125z"/><path d="m69.062 57.073-5.6812-6.2438 4.7812-2.1375 0.9 8.3812z"/></g><g stroke="#000" stroke-miterlimit="10" stroke-width="1.125" fill="none"><path d="m69.062 102.07c0 52.538 127.12 52.256 131.34-0.28125"/><path d="m69.062 102.07c0 36 90 36 90 0"/><path d="m24.062 57.073c0-36 90-36 90 0"/><path d="m24.062 57.073c0-18 45-18 45 0"/><path d="m114.06 57.073c0-54 135-54 135 0"/></g><g transform="matrix(.5625 0 0 -.5625 -88.438 279.51)"><path fill="url(#g)" d="m240 355.44c0-22.1-17.9-40-40-40s-40 17.9-40 40 17.9 40 40 40 40-17.9 40-40z"/></g><path d="m46.562 79.573c0 12.431-10.069 22.5-22.5 22.5s-22.5-10.069-22.5-22.5 10.069-22.5 22.5-22.5 22.5 10.069 22.5 22.5z" stroke="#000" stroke-miterlimit="10" stroke-width="1.125" fill="none"/><g transform="matrix(.5625 0 0 -.5625 -88.438 279.51)"><path fill="url(#a)" d="m320 355.44c0-22.1-17.9-40-40-40s-40 17.9-40 40 17.9 40 40 40 40-17.9 40-40z"/></g><path d="m91.562 79.573c0 12.431-10.069 22.5-22.5 22.5s-22.5-10.069-22.5-22.5 10.069-22.5 22.5-22.5 22.5 10.069 22.5 22.5z" stroke="#000" stroke-miterlimit="10" stroke-width="1.125" fill="none"/><g transform="matrix(.5625 0 0 -.5625 -88.438 279.51)"><path fill="url(#f)" d="m400 355.44c0-22.1-17.9-40-40-40s-40 17.9-40 40 17.9 40 40 40 40-17.9 40-40z"/></g><path d="m136.56 79.573c0 12.431-10.069 22.5-22.5 22.5s-22.5-10.069-22.5-22.5 10.069-22.5 22.5-22.5 22.5 10.069 22.5 22.5z" stroke="#000" stroke-miterlimit="10" stroke-width="1.125" fill="none"/><path d="m114.06 57.073-4.2188-7.3125 5.0625-1.0688-0.84375 8.3812z" stroke="#000" stroke-miterlimit="10" stroke-width="1.125"/><g transform="matrix(.5625 0 0 -.5625 -88.438 279.51)"><path fill="url(#b)" d="m720 355.44c0-22.1-17.9-40-40-40s-40 17.9-40 40 17.9 40 40 40 40-17.9 40-40z"/></g><path d="m316.56 79.573c0 12.431-10.069 22.5-22.5 22.5s-22.5-10.069-22.5-22.5 10.069-22.5 22.5-22.5 22.5 10.069 22.5 22.5z" stroke="#000" stroke-miterlimit="10" stroke-width="1.125" fill="none"/><path d="m114.06 57.073c0-73.462 189.51-73.181 183.66 0.28125" stroke="#000" stroke-miterlimit="10" stroke-width="1.125" fill="none"/><g transform="matrix(.5625 0 0 -.5625 -88.438 279.51)"><path fill="url(#c)" d="m640 355.44c0-22.1-17.9-40-40-40s-40 17.9-40 40 17.9 40 40 40 40-17.9 40-40z"/></g><path d="m271.56 79.573c0 12.431-10.069 22.5-22.5 22.5s-22.5-10.069-22.5-22.5 10.069-22.5 22.5-22.5 22.5 10.069 22.5 22.5z" stroke="#000" stroke-miterlimit="10" stroke-width="1.125" fill="none"/><g transform="matrix(.5625 0 0 -.5625 -88.438 279.51)"><path fill="url(#d)" d="m560 355.44c0-22.1-17.9-40-40-40s-40 17.9-40 40 17.9 40 40 40 40-17.9 40-40z"/></g><path d="m226.56 79.573c0 12.431-10.069 22.5-22.5 22.5s-22.5-10.069-22.5-22.5 10.069-22.5 22.5-22.5 22.5 10.069 22.5 22.5z" stroke="#000" stroke-miterlimit="10" stroke-width="1.125" fill="none"/><g transform="matrix(.5625 0 0 -.5625 -88.438 279.51)"><path fill="url(#e)" d="m480 355.44c0-22.1-17.9-40-40-40s-40 17.9-40 40 17.9 40 40 40 40-17.9 40-40z"/></g><path d="m181.56 79.573c0 12.431-10.069 22.5-22.5 22.5s-22.5-10.069-22.5-22.5 10.069-22.5 22.5-22.5 22.5 10.069 22.5 22.5z" stroke="#000" stroke-miterlimit="10" stroke-width="1.125" fill="none"/><path d="m69.062 102.07-0.337-1.63" stroke="#000" stroke-miterlimit="10" stroke-width="1.125" fill="none"/><g transform="matrix(.5625 0 0 -.5625 -88.438 279.51)"><g clip-path="url(#h)"><path fill="url(#a)" d="m320 355.44c0-22.1-17.9-40-40-40s-40 17.9-40 40 17.9 40 40 40 40-17.9 40-40z"/><path d="m320 355.44c0-22.1-17.9-40-40-40s-40 17.9-40 40 17.9 40 40 40 40-17.9 40-40z" stroke="#000" stroke-miterlimit="10" stroke-width="2" fill="none"/></g></g><g font-family="Sans" fill="#000000"><g font-size="32px"><text style="word-spacing:0px;letter-spacing:0px" xml:space="preserve" line-height="125%" y="83.941185" x="16.36035"><tspan y="83.941185" x="16.36035" font-size="12px">50</tspan></text>
<text style="word-spacing:0px;letter-spacing:0px" xml:space="preserve" line-height="125%" y="83.941185" x="61.530273"><tspan y="83.941185" x="61.530273" font-size="12px">40</tspan></text>
<text style="word-spacing:0px;letter-spacing:0px" xml:space="preserve" line-height="125%" y="83.941185" x="106.36621"><tspan y="83.941185" x="106.36621" font-size="12px">30</tspan></text></g><g font-size="12px">
<text style="word-spacing:0px;letter-spacing:0px" xml:space="preserve" line-height="125%" y="83.941185" x="151.38379"><tspan y="83.941185" x="151.38379">20</tspan></text>
<text style="word-spacing:0px;letter-spacing:0px" xml:space="preserve" line-height="125%" y="83.941185" x="196.16406"><tspan y="83.941185" x="196.16406">10</tspan></text>
<text style="word-spacing:0px;letter-spacing:0px" xml:space="preserve" line-height="125%" y="83.941185" x="241.50978"><tspan y="83.941185" x="241.50978">25</tspan></text>
<text style="word-spacing:0px;letter-spacing:0px" xml:space="preserve" line-height="125%" y="83.862068" x="286.29004"><tspan y="83.862068" x="286.29004">15</tspan></text>
</g></g></svg>
