<?xml version="1.0" encoding="UTF-8" standalone="no"?>
<svg xmlns:rdf="http://www.w3.org/1999/02/22-rdf-syntax-ns#" xmlns="http://www.w3.org/2000/svg" xml:space="preserve" height="138.12" width="318.12" version="1.1" xmlns:cc="http://creativecommons.org/ns#" xmlns:xlink="http://www.w3.org/1999/xlink" xmlns:dc="http://purl.org/dc/elements/1.1/"><defs><linearGradient id="g" gradientUnits="userSpaceOnUse" gradientTransform="matrix(80,0,0,80,480,552)" y1="1"><stop stop-color="#ffcece" offset="0"/><stop stop-color="#faa" offset="1"/></linearGradient><linearGradient id="f" gradientUnits="userSpaceOnUse" gradientTransform="matrix(80,0,0,80,320,472)" y1="1"><stop stop-color="#cee6ff" offset="0"/><stop stop-color="#aad4ff" offset="1"/></linearGradient><linearGradient id="e" gradientUnits="userSpaceOnUse" gradientTransform="matrix(80,0,0,80,640,472)" y1="1"><stop stop-color="#ffcece" offset="0"/><stop stop-color="#faa" offset="1"/></linearGradient><linearGradient id="d" gradientUnits="userSpaceOnUse" gradientTransform="matrix(80,0,0,80,720,392)" y1="1"><stop stop-color="#ffceff" offset="0"/><stop stop-color="#faf" offset="1"/></linearGradient><linearGradient id="c" gradientUnits="userSpaceOnUse" gradientTransform="matrix(80,0,0,80,560,392)" y1="1"><stop stop-color="#ceffe6" offset="0"/><stop stop-color="#aaffd4" offset="1"/></linearGradient><linearGradient id="b" gradientUnits="userSpaceOnUse" gradientTransform="matrix(80,0,0,80,240,392)" y1="1"><stop stop-color="#ffe6ce" offset="0"/><stop stop-color="#ffd4aa" offset="1"/></linearGradient><linearGradient id="a" gradientUnits="userSpaceOnUse" gradientTransform="matrix(45 0 0 -45 91.562 136.56)" y1="1"><stop stop-color="#ceceff" offset="0"/><stop stop-color="#aaf" offset="1"/></linearGradient></defs><g stroke="#000" stroke-miterlimit="10" stroke-width="1.125"><path d="m69.062 46.562-1.237-8.324 5.175 0.843-3.938 7.481z"/><path d="m24.062 91.562-1.125-8.3812 5.1188 0.95625-3.9938 7.425z"/><path d="m114.06 91.562-3.9938-7.425 5.1188-0.95625-1.125 8.3812z"/><path d="m204.06 91.562-1.125-8.3812 5.1188 0.95625-3.9938 7.425z"/><path d="m297.72 91.844-3.7125-7.5375 5.1188-0.7875-1.4062 8.325z"/><path d="m249.06 46.562-3.9375-7.4812 5.175-0.84375-1.2375 8.325z"/></g><g transform="matrix(.5625 0 0 -.5625 -133.44 357.06)"><path fill="url(#g)" d="m560 592c0-22.1-17.9-40-40-40s-40 17.9-40 40 17.9 40 40 40 40-17.9 40-40z"/></g><path d="m181.56 24.062c0 12.431-10.069 22.5-22.5 22.5s-22.5-10.069-22.5-22.5 10.069-22.5 22.5-22.5 22.5 10.069 22.5 22.5z" stroke="#000" stroke-miterlimit="10" stroke-width="1.125" fill="none"/><g transform="matrix(.5625 0 0 -.5625 -133.44 357.06)"><path fill="url(#f)" d="m400 512c0-22.1-17.9-40-40-40s-40 17.9-40 40 17.9 40 40 40 40-17.9 40-40z"/></g><path d="m91.562 69.062c0 12.431-10.069 22.5-22.5 22.5s-22.5-10.069-22.5-22.5 10.069-22.5 22.5-22.5 22.5 10.069 22.5 22.5z" stroke="#000" stroke-miterlimit="10" stroke-width="1.125" fill="none"/><g transform="matrix(.5625 0 0 -.5625 -133.44 357.06)"><path fill="url(#e)" d="m720 512c0-22.1-17.9-40-40-40s-40 17.9-40 40 17.9 40 40 40 40-17.9 40-40z"/></g><g stroke="#000" stroke-miterlimit="10" stroke-width="1.125" fill="none"><path d="m271.56 69.062c0 12.431-10.069 22.5-22.5 22.5s-22.5-10.069-22.5-22.5 10.069-22.5 22.5-22.5 22.5 10.069 22.5 22.5z"/><path d="m136.56 24.062c-28.462 0-67.5-5.9625-67.5 22.5"/><path d="m181.56 22.062c28.462 0 67.5-5.9625 67.5 22.5"/></g><g transform="matrix(.5625 0 0 -.5625 -133.44 357.06)"><path fill="url(#d)" d="m800 432c0-22.1-17.9-40-40-40s-40 17.9-40 40 17.9 40 40 40 40-17.9 40-40z"/></g><path d="m316.56 114.06c0 12.431-10.069 22.5-22.5 22.5s-22.5-10.069-22.5-22.5 10.069-22.5 22.5-22.5 22.5 10.069 22.5 22.5z" stroke="#000" stroke-miterlimit="10" stroke-width="1.125" fill="none"/><path d="m271.56 69.062c13.894 0 27.281 8.9438 26.156 22.781" stroke="#000" stroke-miterlimit="10" stroke-width="1.125" fill="none"/><g transform="matrix(.5625 0 0 -.5625 -133.44 357.06)"><path fill="url(#c)" d="m640 432c0-22.1-17.9-40-40-40s-40 17.9-40 40 17.9 40 40 40 40-17.9 40-40z"/></g><path d="m226.56 114.06c0 12.431-10.069 22.5-22.5 22.5s-22.5-10.069-22.5-22.5 10.069-22.5 22.5-22.5 22.5 10.069 22.5 22.5z" stroke="#000" stroke-miterlimit="10" stroke-width="1.125" fill="none"/><path d="m226.56 69.062c-12.712 0-22.5 9.7875-22.5 22.5" stroke="#000" stroke-miterlimit="10" stroke-width="1.125" fill="none"/><path fill="url(#a)" d="m136.56 114.06c0 12.431-10.069 22.5-22.5 22.5s-22.5-10.069-22.5-22.5 10.069-22.5 22.5-22.5 22.5 10.069 22.5 22.5z"/><path d="m136.56 114.06c0 12.431-10.069 22.5-22.5 22.5s-22.5-10.069-22.5-22.5 10.069-22.5 22.5-22.5 22.5 10.069 22.5 22.5z" stroke="#000" stroke-miterlimit="10" stroke-width="1.125" fill="none"/><g transform="matrix(.5625 0 0 -.5625 -133.44 357.06)"><path fill="url(#b)" d="m320 432c0-22.1-17.9-40-40-40s-40 17.9-40 40 17.9 40 40 40 40-17.9 40-40z"/></g><g stroke="#000" stroke-miterlimit="10" stroke-width="1.125" fill="none"><path d="m46.562 114.06c0 12.431-10.069 22.5-22.5 22.5s-22.5-10.069-22.5-22.5 10.069-22.5 22.5-22.5 22.5 10.069 22.5 22.5z"/><path d="m46.562 69.062c-12.712 0-22.5 9.7875-22.5 22.5"/><path d="m91.562 69.062c12.712 0 22.5 9.7875 22.5 22.5"/></g><g font-family="Sans" fill="#000000"><text style="word-spacing:0px;letter-spacing:0px" xml:space="preserve" font-size="32px" line-height="125%" y="28.430664" x="151.36035"><tspan y="28.430664" x="151.36035" font-size="12px">50</tspan></text><g font-size="12px">
<text style="word-spacing:0px;letter-spacing:0px" xml:space="preserve" line-height="125%" y="73.430664" x="61.530273"><tspan y="73.430664" x="61.530273">40</tspan></text>
<text style="word-spacing:0px;letter-spacing:0px" xml:space="preserve" line-height="125%" y="118.43066" x="106.16406"><tspan y="118.43066" x="106.16406">10</tspan></text>
<text style="word-spacing:0px;letter-spacing:0px" xml:space="preserve" line-height="125%" y="118.43066" x="16.383789"><tspan y="118.43066" x="16.383789">20</tspan></text>
<text style="word-spacing:0px;letter-spacing:0px" xml:space="preserve" line-height="125%" y="118.43066" x="196.50977"><tspan y="118.43066" x="196.50977">25</tspan></text>
<text style="word-spacing:0px;letter-spacing:0px" xml:space="preserve" line-height="125%" y="73.430664" x="241.36621"><tspan y="73.430664" x="241.36621">30</tspan></text>
<text style="word-spacing:0px;letter-spacing:0px" xml:space="preserve" line-height="125%" y="118.35156" x="286.29004"><tspan y="118.35156" x="286.29004">15</tspan></text>
</g></g></svg>
