<?xml version="1.0" encoding="UTF-8" standalone="no"?>
<svg xmlns:rdf="http://www.w3.org/1999/02/22-rdf-syntax-ns#" xmlns="http://www.w3.org/2000/svg" height="303" width="372.38" version="1.1" xmlns:cc="http://creativecommons.org/ns#" xmlns:xlink="http://www.w3.org/1999/xlink" xmlns:dc="http://purl.org/dc/elements/1.1/">
 <defs>
  <clipPath id="o" clipPathUnits="userSpaceOnUse">
   <path d="m570 345c2 0 5-3 5-5 0-3-3-5-5-5-3 0-5 2-5 5 0 2 2 5 5 5z"/>
  </clipPath>
  <clipPath id="p" clipPathUnits="userSpaceOnUse">
   <path d="m490 425c2 0 5-3 5-5 0-3-3-5-5-5-3 0-5 2-5 5 0 2 2 5 5 5z"/>
  </clipPath>
  <clipPath id="q" clipPathUnits="userSpaceOnUse">
   <path d="m570 325c2 0 5-3 5-5 0-3-3-5-5-5-3 0-5 2-5 5 0 2 2 5 5 5z"/>
  </clipPath>
  <clipPath id="r" clipPathUnits="userSpaceOnUse">
   <path d="m490 325c2 0 5-3 5-5 0-3-3-5-5-5-3 0-5 2-5 5 0 2 2 5 5 5z"/>
  </clipPath>
  <clipPath id="s" clipPathUnits="userSpaceOnUse">
   <path d="m570 305c2 0 5-3 5-5 0-3-3-5-5-5-3 0-5 2-5 5 0 2 2 5 5 5z"/>
  </clipPath>
  <clipPath id="t" clipPathUnits="userSpaceOnUse">
   <path d="m490 225c2 0 5-3 5-5 0-3-3-5-5-5-3 0-5 2-5 5 0 2 2 5 5 5z"/>
  </clipPath>
  <clipPath id="u" clipPathUnits="userSpaceOnUse">
   <path d="m650 525c2 0 5-3 5-5 0-3-3-5-5-5-3 0-5 2-5 5 0 2 2 5 5 5z"/>
  </clipPath>
  <clipPath id="v" clipPathUnits="userSpaceOnUse">
   <path d="m650 365c2 0 5-3 5-5 0-3-3-5-5-5-3 0-5 2-5 5 0 2 2 5 5 5z"/>
  </clipPath>
  <clipPath id="w" clipPathUnits="userSpaceOnUse">
   <path d="m410 465c2 0 5-3 5-5 0-3-3-5-5-5-3 0-5 2-5 5 0 2 2 5 5 5z"/>
  </clipPath>
  <clipPath id="x" clipPathUnits="userSpaceOnUse">
   <path d="m426 526c2 0 5-3 5-5 0-3-3-5-5-5-3 0-5 2-5 5 0 2 2 5 5 5z"/>
  </clipPath>
  <clipPath id="y" clipPathUnits="userSpaceOnUse">
   <path d="m170 365c2 0 5-3 5-5 0-3-3-5-5-5-3 0-5 2-5 5 0 2 2 5 5 5z"/>
  </clipPath>
  <clipPath id="z" clipPathUnits="userSpaceOnUse">
   <path d="m170 525c2 0 5-3 5-5 0-3-3-5-5-5-3 0-5 2-5 5 0 2 2 5 5 5z"/>
  </clipPath>
  <clipPath id="aa" clipPathUnits="userSpaceOnUse">
   <path d="m330 225c2 0 5-3 5-5 0-3-3-5-5-5-3 0-5 2-5 5 0 2 2 5 5 5z"/>
  </clipPath>
  <clipPath id="ab" clipPathUnits="userSpaceOnUse">
   <path d="m250 305c2 0 5-3 5-5 0-3-3-5-5-5-3 0-5 2-5 5 0 2 2 5 5 5z"/>
  </clipPath>
  <clipPath id="ac" clipPathUnits="userSpaceOnUse">
   <path d="m330 425c2 0 5-3 5-5 0-3-3-5-5-5-3 0-5 2-5 5 0 2 2 5 5 5z"/>
  </clipPath>
  <clipPath id="ad" clipPathUnits="userSpaceOnUse">
   <path d="m250 335c2 0 5-3 5-5 0-3-3-5-5-5-3 0-5 2-5 5 0 2 2 5 5 5z"/>
  </clipPath>
  <clipPath id="ae" clipPathUnits="userSpaceOnUse">
   <path d="m330 325c2 0 5-3 5-5 0-3-3-5-5-5-3 0-5 2-5 5 0 2 2 5 5 5z"/>
  </clipPath>
  <clipPath id="af" clipPathUnits="userSpaceOnUse">
   <path d="m250 325c2 0 5-3 5-5 0-3-3-5-5-5-3 0-5 2-5 5 0 2 2 5 5 5z"/>
  </clipPath>
  <clipPath id="ag" clipPathUnits="userSpaceOnUse">
   <path d="m170 285c2 0 5-3 5-5 0-3-3-5-5-5-3 0-5 2-5 5 0 2 2 5 5 5z"/>
  </clipPath>
  <clipPath id="ah" clipPathUnits="userSpaceOnUse">
   <path d="m650 285c2 0 5-3 5-5 0-3-3-5-5-5-3 0-5 2-5 5 0 2 2 5 5 5z"/>
  </clipPath>
  <linearGradient id="b" y2=".5" gradientUnits="userSpaceOnUse" gradientTransform="matrix(160,0,0,160,90,280)">
   <stop stop-color="#fecdcd" offset="0"/>
   <stop stop-color="#feaaaa" offset="1"/>
  </linearGradient>
  <linearGradient id="h" y2=".5" gradientUnits="userSpaceOnUse" gradientTransform="matrix(160,0,0,160,90,520)">
   <stop stop-color="#fecdcd" offset="0"/>
   <stop stop-color="#feaaaa" offset="1"/>
  </linearGradient>
  <linearGradient id="g" y2=".75" gradientUnits="userSpaceOnUse" gradientTransform="matrix(160,0,0,160,330,520)">
   <stop stop-color="#cde5fe" offset="0"/>
   <stop stop-color="#aad4fe" offset="1"/>
  </linearGradient>
  <linearGradient id="e" y2=".5" gradientUnits="userSpaceOnUse" gradientTransform="matrix(160,0,0,160,330,280)">
   <stop stop-color="#fee5cd" offset="0"/>
   <stop stop-color="#fed4aa" offset="1"/>
  </linearGradient>
  <linearGradient id="c" y2=".5" gradientUnits="userSpaceOnUse" gradientTransform="matrix(160,0,0,160,330,380)">
   <stop stop-color="#fee5cd" offset="0"/>
   <stop stop-color="#fed4aa" offset="1"/>
  </linearGradient>
  <linearGradient id="d" y2=".5" gradientUnits="userSpaceOnUse" gradientTransform="matrix(160,0,0,160,330,180)">
   <stop stop-color="#fee5cd" offset="0"/>
   <stop stop-color="#fed4aa" offset="1"/>
  </linearGradient>
  <linearGradient id="a" y2=".5" gradientUnits="userSpaceOnUse" gradientTransform="matrix(160,0,0,160,570,280)">
   <stop stop-color="#fecdcd" offset="0"/>
   <stop stop-color="#feaaaa" offset="1"/>
  </linearGradient>
  <linearGradient id="f" y2="1" gradientUnits="userSpaceOnUse" gradientTransform="matrix(120,0,0,120,590,520)">
   <stop stop-color="#cdcdfe" offset="0"/>
   <stop stop-color="#aaaafe" offset="1"/>
  </linearGradient>
  <linearGradient id="n" y2=".667" gradientUnits="userSpaceOnUse" gradientTransform="matrix(60,0,0,60,90,500)">
   <stop stop-color="#f0f0f0" offset="0"/>
   <stop stop-color="#e5e5e5" offset="1"/>
  </linearGradient>
  <linearGradient id="m" y2=".667" gradientUnits="userSpaceOnUse" gradientTransform="matrix(60,0,0,60,680,260)">
   <stop stop-color="#f0f0f0" offset="0"/>
   <stop stop-color="#e5e5e5" offset="1"/>
  </linearGradient>
  <linearGradient id="l" y2=".667" gradientUnits="userSpaceOnUse" gradientTransform="matrix(60,0,0,60,450,520)">
   <stop stop-color="#f0f0f0" offset="0"/>
   <stop stop-color="#e5e5e5" offset="1"/>
  </linearGradient>
  <linearGradient id="k" y2=".667" gradientUnits="userSpaceOnUse" gradientTransform="matrix(60,0,0,60,450,160)">
   <stop stop-color="#f0f0f0" offset="0"/>
   <stop stop-color="#e5e5e5" offset="1"/>
  </linearGradient>
  <linearGradient id="j" y2=".667" gradientUnits="userSpaceOnUse" gradientTransform="matrix(60,0,0,60,80,260)">
   <stop stop-color="#f0f0f0" offset="0"/>
   <stop stop-color="#e5e5e5" offset="1"/>
  </linearGradient>
  <linearGradient id="i" y2=".667" gradientUnits="userSpaceOnUse" gradientTransform="matrix(60,0,0,60,680,510)">
   <stop stop-color="#f0f0f0" offset="0"/>
   <stop stop-color="#e5e5e5" offset="1"/>
  </linearGradient>
 </defs>
 <g transform="translate(-128.99 -317.17)">
  <g transform="matrix(.5625 0 0 .5625 84.549 259.6)">
   <path fill="url(#b)" d="m90 285c0-3 2.2-5 5-5h150c2 0 5 2 5 5v70c0 2-3 5-5 5h-150c-2.8 0-5-3-5-5v-70z"/>
   <path d="m90 285c0-3 2.2-5 5-5h150c2 0 5 2 5 5v70c0 2-3 5-5 5h-150c-2.8 0-5-3-5-5v-70z" stroke="#000" stroke-miterlimit="10" stroke-width="2" fill="none"/>
   <g transform="matrix(.00878 0 0 .00878 124 323.14)">
    <g transform="translate(0,326)">
     <path d="m719-143c233-2 340-141 340-369v-952h186v948c-10 341-189 536-536 536-344 0-525-198-525-540v-942h187v952c0 232 114 369 348 367"/>
    </g>
    <g transform="translate(1430)">
     <g transform="translate(0,326)">
      <path d="m1075-1047c0 224-126 331-289 392l398 655h-219l-351-604h-229v604h-186v-1462h356c327 0 520 110 520 415zm-192 9c0-204-132-267-338-265h-160v541h164c207 1 334-71 334-276"/>
     </g>
    </g>
    <g transform="translate(2638)">
     <g transform="translate(0,326)">
      <path d="m199 0v-1462h186v1296h573v166h-759"/>
     </g>
    </g>
    <g transform="translate(3644)">
     <g transform="translate(0,326)"></g>
    </g>
   </g>
   <g transform="matrix(.00878 0 0 .00878 161 323.14)">
    <g transform="translate(0,326)">
     <path d="m125-735c0-454 187-750 637-750 442 0 631 305 631 752 0 356-126 601-379 708 59 131 155 219 270 297l-121 142c-136-98-261-229-327-398-499 33-711-273-711-751zm637-586c-333 0-440 248-440 588 0 338 105 590 438 590s436-251 436-590-102-588-434-588"/>
    </g>
    <g transform="translate(1518)">
     <g transform="translate(0,326)">
      <path d="m563-131c230 1 287-166 287-397v-570h182v1098h-147l-27-147h-10c-60 101-161 165-316 167-259 3-368-141-368-401v-717h182v707c0 164 60 259 217 260"/>
     </g>
    </g>
    <g transform="translate(2724)">
     <g transform="translate(0,326)">
      <path d="m944-53c-94 46-196 77-336 73-333-9-495-220-495-561 0-264 92-451 269-538 104-51 258-51 363-3 158 72 246 228 248 455v113h-692c6 236 86 371 309 375 139 2 240-31 334-76v162zm-147-609c-2-176-59-305-234-305-171 0-246 129-258 305h492"/>
     </g>
    </g>
    <g transform="translate(3820)">
     <g transform="translate(0,326)">
      <path d="m563-131c230 1 287-166 287-397v-570h182v1098h-147l-27-147h-10c-60 101-161 165-316 167-259 3-368-141-368-401v-717h182v707c0 164 60 259 217 260"/>
     </g>
    </g>
    <g transform="translate(5026)">
     <g transform="translate(0,326)">
      <path d="m944-53c-94 46-196 77-336 73-333-9-495-220-495-561 0-264 92-451 269-538 104-51 258-51 363-3 158 72 246 228 248 455v113h-692c6 236 86 371 309 375 139 2 240-31 334-76v162zm-147-609c-2-176-59-305-234-305-171 0-246 129-258 305h492"/>
     </g>
    </g>
   </g>
   <path fill="url(#h)" d="m218 520c17 0 32 17 32 40 0 22-15 40-32 40h-96c-18 0-32-18-32-40 0-23 14-40 32-40h96z"/>
   <path d="m218 520c17 0 32 17 32 40 0 22-15 40-32 40h-96c-18 0-32-18-32-40 0-23 14-40 32-40h96z" stroke="#000" stroke-miterlimit="10" stroke-width="2" fill="none"/>
   <g transform="matrix(.00878 0 0 .00878 128 563.14)">
    <g transform="translate(0,326)">
     <path d="m559-1319c-187 0-306 130-241 307 59 162 301 189 444 275 120 72 207 159 207 346 0 287-202 407-496 411-140 2-280-22-369-69v-178c102 46 224 84 369 86 190 2 310-62 313-232 3-135-71-183-163-233-80-44-231-93-309-144-115-76-191-176-191-362 0-255 180-366 438-371 154-3 280 33 383 80l-67 156c-83-36-199-72-318-72"/>
    </g>
    <g transform="translate(1063)">
     <g transform="translate(0,326)">
      <path d="m944-53c-94 46-196 77-336 73-333-9-495-220-495-561 0-264 92-451 269-538 104-51 258-51 363-3 158 72 246 228 248 455v113h-692c6 236 86 371 309 375 139 2 240-31 334-76v162zm-147-609c-2-176-59-305-234-305-171 0-246 129-258 305h492"/>
     </g>
    </g>
    <g transform="translate(2159)">
     <g transform="translate(0,326)">
      <path d="m944-53c-94 46-196 77-336 73-333-9-495-220-495-561 0-264 92-451 269-538 104-51 258-51 363-3 158 72 246 228 248 455v113h-692c6 236 86 371 309 375 139 2 240-31 334-76v162zm-147-609c-2-176-59-305-234-305-171 0-246 129-258 305h492"/>
     </g>
    </g>
    <g transform="translate(3255)">
     <g transform="translate(0,326)">
      <path d="m856-958c-21-183-9-398-12-598h182v1556h-147l-27-147h-8c-63 95-155 167-314 167-307 0-417-246-417-567 0-260 76-450 247-535 51-25 108-36 170-36 155 1 249 69 314 160h12zm-12 452c5-254-32-463-281-461-90 0-153 39-199 109-81 124-82 504 0 624 45 66 110 103 201 103 222 0 275-157 279-375"/>
     </g>
    </g>
    <g transform="translate(4455)">
     <g transform="translate(0,326)"></g>
    </g>
   </g>
   <g transform="matrix(.00878 0 0 .00878 171 563.14)">
    <g transform="translate(0,326)">
     <path d="m719-143c233-2 340-141 340-369v-952h186v948c-10 341-189 536-536 536-344 0-525-198-525-540v-942h187v952c0 232 114 369 348 367"/>
    </g>
    <g transform="translate(1430)">
     <g transform="translate(0,326)">
      <path d="m1075-1047c0 224-126 331-289 392l398 655h-219l-351-604h-229v604h-186v-1462h356c327 0 520 110 520 415zm-192 9c0-204-132-267-338-265h-160v541h164c207 1 334-71 334-276"/>
     </g>
    </g>
    <g transform="translate(2638)">
     <g transform="translate(0,326)">
      <path d="m199 0v-1462h186v1296h573v166h-759"/>
     </g>
    </g>
    <g transform="translate(3644)">
     <g transform="translate(0,326)">
      <path d="m481-967c-140-5-232 63-189 190 66 110 246 141 360 208 97 57 179 119 179 268 0 236-176 319-417 321-139 1-239-21-324-69v-166c89 44 194 82 324 86 154 5 272-60 229-214-87-145-336-165-454-283-49-49-83-106-83-201 0-211 164-288 381-291 135-2 236 33 330 76l-63 147c-79-33-167-68-273-72"/>
     </g>
    </g>
   </g>
   <path fill="url(#g)" d="m354 604c-14 0-24-11-24-24 0-11 6-20 16-23 0-31 40-37 56-25 8-18 48-12 48 6 24-6 48 18 32 48 16 24 0 54-32 42-8 15-40 15-48 0-16 12-48 6-48-24z"/>
   <path d="m354 604c-14 0-24-11-24-24 0-11 6-20 16-23 0-31 40-37 56-25 8-18 48-12 48 6 24-6 48 18 32 48 16 24 0 54-32 42-8 15-40 15-48 0-16 12-48 6-48-24z" stroke="#000" stroke-miterlimit="10" stroke-width="2" fill="none"/>
   <g transform="matrix(.00878 0 0 .00878 377 583.14)">
    <g transform="translate(0,326)">
     <path d="m612 0h-530v-102l172-41v-1176l-172-41v-102h530v102l-172 41v1176l172 41v102"/>
    </g>
    <g transform="translate(694)">
     <g transform="translate(0,326)">
      <path d="m674-1118c257 0 369 132 368 401v717h-182v-707c-1-164-59-259-217-260-230-2-287 167-287 398v569h-182v-1098h148l26 148h10c61-100 160-168 316-168"/>
     </g>
    </g>
    <g transform="translate(1900)">
     <g transform="translate(0,326)">
      <path d="m371-324c1 116 27 195 135 195 53 0 108-9 149-21v138c-47 20-111 31-178 32-210 0-290-128-289-344v-637h-155v-81l155-78 78-230h105v252h276v137h-276v637"/>
     </g>
    </g>
    <g transform="translate(2594)">
     <g transform="translate(0,326)">
      <path d="m944-53c-94 46-196 77-336 73-333-9-495-220-495-561 0-264 92-451 269-538 104-51 258-51 363-3 158 72 246 228 248 455v113h-692c6 236 86 371 309 375 139 2 240-31 334-76v162zm-147-609c-2-176-59-305-234-305-171 0-246 129-258 305h492"/>
     </g>
    </g>
    <g transform="translate(3690)">
     <g transform="translate(0,326)">
      <path d="m352-897c71-121 155-243 362-219 24 3 45 5 62 8l-24 168c-258-57-396 105-396 348v592h-182v-1098h148l22 201h8"/>
     </g>
    </g>
    <g transform="translate(4507)">
     <g transform="translate(0,326)">
      <path d="m674-1118c257 0 369 132 368 401v717h-182v-707c-1-164-59-259-217-260-230-2-287 167-287 398v569h-182v-1098h148l26 148h10c61-100 160-168 316-168"/>
     </g>
    </g>
    <g transform="translate(5713)">
     <g transform="translate(0,326)">
      <path d="m944-53c-94 46-196 77-336 73-333-9-495-220-495-561 0-264 92-451 269-538 104-51 258-51 363-3 158 72 246 228 248 455v113h-692c6 236 86 371 309 375 139 2 240-31 334-76v162zm-147-609c-2-176-59-305-234-305-171 0-246 129-258 305h492"/>
     </g>
    </g>
    <g transform="translate(6809)">
     <g transform="translate(0,326)">
      <path d="m371-324c1 116 27 195 135 195 53 0 108-9 149-21v138c-47 20-111 31-178 32-210 0-290-128-289-344v-637h-155v-81l155-78 78-230h105v252h276v137h-276v637"/>
     </g>
    </g>
   </g>
   <path fill="url(#e)" d="m330 285c0-3 2-5 5-5h150c2 0 5 2 5 5v70c0 2-3 5-5 5h-150c-3 0-5-3-5-5v-70z"/>
   <path d="m330 285c0-3 2-5 5-5h150c2 0 5 2 5 5v70c0 2-3 5-5 5h-150c-3 0-5-3-5-5v-70z" stroke="#000" stroke-miterlimit="10" stroke-width="2" fill="none"/>
   <g transform="matrix(.00878 0 0 .00878 378 323.14)">
    <g transform="translate(0,326)">
     <path d="m1098-1241c-85-41-178-82-305-78-330 11-471 249-471 588 0 349 127 583 471 588 125 2 227-30 327-58v162c-101 41-215 61-358 59-451-6-637-300-637-753 0-348 137-584 381-695 192-87 511-61 670 31"/>
    </g>
    <g transform="translate(1235)">
     <g transform="translate(0,326)">
      <path d="m352-897c71-121 155-243 362-219 24 3 45 5 62 8l-24 168c-258-57-396 105-396 348v592h-182v-1098h148l22 201h8"/>
     </g>
    </g>
    <g transform="translate(2032)">
     <g transform="translate(0,326)">
      <path d="m528-1118c261 0 396 106 396 366v752h-131l-37-152h-8c-73 102-160 175-336 172-207-4-318-117-318-327 0-109 39-193 116-252s194-91 351-96l184-7c13-190-36-305-217-305-119 0-209 41-292 82l-64-137c93-49 217-96 356-96zm-245 813c0 117 66 178 176 178 189 0 281-117 284-311v-99c-222 12-460-2-460 232"/>
     </g>
    </g>
    <g transform="translate(3119)">
     <g transform="translate(0,326)">
      <path d="m1008 0c-83-307-170-609-244-926h-6c-67 325-163 618-246 926h-211l-281-1098h191c68 317 150 620 197 957h6c61-343 168-640 254-957h196c84 318 185 619 248 957h6c44-341 134-641 203-957h186l-284 1098h-215"/>
     </g>
    </g>
    <g transform="translate(4647)">
     <g transform="translate(0,326)">
      <path d="m356 0h-182v-1556h182v1556"/>
     </g>
    </g>
    <g transform="translate(5177)">
     <g transform="translate(0,326)">
      <path d="m944-53c-94 46-196 77-336 73-333-9-495-220-495-561 0-264 92-451 269-538 104-51 258-51 363-3 158 72 246 228 248 455v113h-692c6 236 86 371 309 375 139 2 240-31 334-76v162zm-147-609c-2-176-59-305-234-305-171 0-246 129-258 305h492"/>
     </g>
    </g>
    <g transform="translate(6273)">
     <g transform="translate(0,326)">
      <path d="m352-897c71-121 155-243 362-219 24 3 45 5 62 8l-24 168c-258-57-396 105-396 348v592h-182v-1098h148l22 201h8"/>
     </g>
    </g>
   </g>
   <path fill="url(#c)" d="m330 385c0-3 2-5 5-5h150c2 0 5 2 5 5v70c0 2-3 5-5 5h-150c-3 0-5-3-5-5v-70z"/>
   <path d="m330 385c0-3 2-5 5-5h150c2 0 5 2 5 5v70c0 2-3 5-5 5h-150c-3 0-5-3-5-5v-70z" stroke="#000" stroke-miterlimit="10" stroke-width="2" fill="none"/>
   <g transform="matrix(.00878 0 0 .00878 378 423.14)">
    <g transform="translate(0,326)">
     <path d="m1098-1241c-85-41-178-82-305-78-330 11-471 249-471 588 0 349 127 583 471 588 125 2 227-30 327-58v162c-101 41-215 61-358 59-451-6-637-300-637-753 0-348 137-584 381-695 192-87 511-61 670 31"/>
    </g>
    <g transform="translate(1235)">
     <g transform="translate(0,326)">
      <path d="m352-897c71-121 155-243 362-219 24 3 45 5 62 8l-24 168c-258-57-396 105-396 348v592h-182v-1098h148l22 201h8"/>
     </g>
    </g>
    <g transform="translate(2032)">
     <g transform="translate(0,326)">
      <path d="m528-1118c261 0 396 106 396 366v752h-131l-37-152h-8c-73 102-160 175-336 172-207-4-318-117-318-327 0-109 39-193 116-252s194-91 351-96l184-7c13-190-36-305-217-305-119 0-209 41-292 82l-64-137c93-49 217-96 356-96zm-245 813c0 117 66 178 176 178 189 0 281-117 284-311v-99c-222 12-460-2-460 232"/>
     </g>
    </g>
    <g transform="translate(3119)">
     <g transform="translate(0,326)">
      <path d="m1008 0c-83-307-170-609-244-926h-6c-67 325-163 618-246 926h-211l-281-1098h191c68 317 150 620 197 957h6c61-343 168-640 254-957h196c84 318 185 619 248 957h6c44-341 134-641 203-957h186l-284 1098h-215"/>
     </g>
    </g>
    <g transform="translate(4647)">
     <g transform="translate(0,326)">
      <path d="m356 0h-182v-1556h182v1556"/>
     </g>
    </g>
    <g transform="translate(5177)">
     <g transform="translate(0,326)">
      <path d="m944-53c-94 46-196 77-336 73-333-9-495-220-495-561 0-264 92-451 269-538 104-51 258-51 363-3 158 72 246 228 248 455v113h-692c6 236 86 371 309 375 139 2 240-31 334-76v162zm-147-609c-2-176-59-305-234-305-171 0-246 129-258 305h492"/>
     </g>
    </g>
    <g transform="translate(6273)">
     <g transform="translate(0,326)">
      <path d="m352-897c71-121 155-243 362-219 24 3 45 5 62 8l-24 168c-258-57-396 105-396 348v592h-182v-1098h148l22 201h8"/>
     </g>
    </g>
   </g>
   <path fill="url(#d)" d="m330 185c0-3 2-5 5-5h150c2 0 5 2 5 5v70c0 2-3 5-5 5h-150c-3 0-5-3-5-5v-70z"/>
   <path d="m330 185c0-3 2-5 5-5h150c2 0 5 2 5 5v70c0 2-3 5-5 5h-150c-3 0-5-3-5-5v-70z" stroke="#000" stroke-miterlimit="10" stroke-width="2" fill="none"/>
   <g transform="matrix(.00878 0 0 .00878 378 223.14)">
    <g transform="translate(0,326)">
     <path d="m1098-1241c-85-41-178-82-305-78-330 11-471 249-471 588 0 349 127 583 471 588 125 2 227-30 327-58v162c-101 41-215 61-358 59-451-6-637-300-637-753 0-348 137-584 381-695 192-87 511-61 670 31"/>
    </g>
    <g transform="translate(1235)">
     <g transform="translate(0,326)">
      <path d="m352-897c71-121 155-243 362-219 24 3 45 5 62 8l-24 168c-258-57-396 105-396 348v592h-182v-1098h148l22 201h8"/>
     </g>
    </g>
    <g transform="translate(2032)">
     <g transform="translate(0,326)">
      <path d="m528-1118c261 0 396 106 396 366v752h-131l-37-152h-8c-73 102-160 175-336 172-207-4-318-117-318-327 0-109 39-193 116-252s194-91 351-96l184-7c13-190-36-305-217-305-119 0-209 41-292 82l-64-137c93-49 217-96 356-96zm-245 813c0 117 66 178 176 178 189 0 281-117 284-311v-99c-222 12-460-2-460 232"/>
     </g>
    </g>
    <g transform="translate(3119)">
     <g transform="translate(0,326)">
      <path d="m1008 0c-83-307-170-609-244-926h-6c-67 325-163 618-246 926h-211l-281-1098h191c68 317 150 620 197 957h6c61-343 168-640 254-957h196c84 318 185 619 248 957h6c44-341 134-641 203-957h186l-284 1098h-215"/>
     </g>
    </g>
    <g transform="translate(4647)">
     <g transform="translate(0,326)">
      <path d="m356 0h-182v-1556h182v1556"/>
     </g>
    </g>
    <g transform="translate(5177)">
     <g transform="translate(0,326)">
      <path d="m944-53c-94 46-196 77-336 73-333-9-495-220-495-561 0-264 92-451 269-538 104-51 258-51 363-3 158 72 246 228 248 455v113h-692c6 236 86 371 309 375 139 2 240-31 334-76v162zm-147-609c-2-176-59-305-234-305-171 0-246 129-258 305h492"/>
     </g>
    </g>
    <g transform="translate(6273)">
     <g transform="translate(0,326)">
      <path d="m352-897c71-121 155-243 362-219 24 3 45 5 62 8l-24 168c-258-57-396 105-396 348v592h-182v-1098h148l22 201h8"/>
     </g>
    </g>
   </g>
   <path fill="url(#a)" d="m570 285c0-3 2-5 5-5h150c2 0 5 2 5 5v70c0 2-3 5-5 5h-150c-3 0-5-3-5-5v-70z"/>
   <path d="m570 285c0-3 2-5 5-5h150c2 0 5 2 5 5v70c0 2-3 5-5 5h-150c-3 0-5-3-5-5v-70z" stroke="#000" stroke-miterlimit="10" stroke-width="2" fill="none"/>
   <g transform="matrix(.00878 0 0 .00878 622 323.14)">
    <g transform="translate(0,326)">
     <path d="m958 0h-759v-1462h759v164h-573v452h535v162h-535v520h573v164"/>
    </g>
    <g transform="translate(1081)">
     <g transform="translate(0,326)">
      <path d="m408-563-353-535h207l250 410 250-410h207l-355 535 373 563h-207l-268-436-270 436h-207"/>
     </g>
    </g>
    <g transform="translate(2105)">
     <g transform="translate(0,326)">
      <path d="m371-324c1 116 27 195 135 195 53 0 108-9 149-21v138c-47 20-111 31-178 32-210 0-290-128-289-344v-637h-155v-81l155-78 78-230h105v252h276v137h-276v637"/>
     </g>
    </g>
    <g transform="translate(2799)">
     <g transform="translate(0,326)">
      <path d="m352-897c71-121 155-243 362-219 24 3 45 5 62 8l-24 168c-258-57-396 105-396 348v592h-182v-1098h148l22 201h8"/>
     </g>
    </g>
    <g transform="translate(3596)">
     <g transform="translate(0,326)">
      <path d="m528-1118c261 0 396 106 396 366v752h-131l-37-152h-8c-73 102-160 175-336 172-207-4-318-117-318-327 0-109 39-193 116-252s194-91 351-96l184-7c13-190-36-305-217-305-119 0-209 41-292 82l-64-137c93-49 217-96 356-96zm-245 813c0 117 66 178 176 178 189 0 281-117 284-311v-99c-222 12-460-2-460 232"/>
     </g>
    </g>
    <g transform="translate(4683)">
     <g transform="translate(0,326)">
      <path d="m860-39c-76 40-148 61-266 59-333-6-481-218-481-563 0-354 148-568 489-575 100-2 211 26 277 59l-54 154c-63-26-137-53-223-53-235 0-301 158-301 413 0 251 67 400 293 406 107 3 193-30 266-62v162"/>
     </g>
    </g>
    <g transform="translate(5631)">
     <g transform="translate(0,326)">
      <path d="m371-324c1 116 27 195 135 195 53 0 108-9 149-21v138c-47 20-111 31-178 32-210 0-290-128-289-344v-637h-155v-81l155-78 78-230h105v252h276v137h-276v637"/>
     </g>
    </g>
   </g>
   <path fill="url(#f)" d="m710 628c0 6-27 12-60 12-34 0-60-6-60-12v-96c0-7 26-12 60-12 33 0 60 5 60 12v96z"/>
   <path d="m710 628c0 6-27 12-60 12-34 0-60-6-60-12v-96c0-7 26-12 60-12 33 0 60 5 60 12v96z" stroke="#000" stroke-miterlimit="10" stroke-width="2" fill="none"/>
   <path d="m710 532c0 6-27 12-60 12-34 0-60-6-60-12" stroke="#000" stroke-miterlimit="10" stroke-width="2" fill="none"/>
   <g transform="matrix(.00878 0 0 .00878 612 589.14)">
    <g transform="translate(0,326)">
     <path d="m606-1462c446 9 670 266 670 717 0 479-236 740-711 745h-366v-1462h407zm-59 1302c362-1 533-208 532-579-1-354-145-561-493-564h-201v1143h162"/>
    </g>
    <g transform="translate(1401)">
     <g transform="translate(0,326)">
      <path d="m528-1118c261 0 396 106 396 366v752h-131l-37-152h-8c-73 102-160 175-336 172-207-4-318-117-318-327 0-109 39-193 116-252s194-91 351-96l184-7c13-190-36-305-217-305-119 0-209 41-292 82l-64-137c93-49 217-96 356-96zm-245 813c0 117 66 178 176 178 189 0 281-117 284-311v-99c-222 12-460-2-460 232"/>
     </g>
    </g>
    <g transform="translate(2488)">
     <g transform="translate(0,326)">
      <path d="m371-324c1 116 27 195 135 195 53 0 108-9 149-21v138c-47 20-111 31-178 32-210 0-290-128-289-344v-637h-155v-81l155-78 78-230h105v252h276v137h-276v637"/>
     </g>
    </g>
    <g transform="translate(3182)">
     <g transform="translate(0,326)">
      <path d="m528-1118c261 0 396 106 396 366v752h-131l-37-152h-8c-73 102-160 175-336 172-207-4-318-117-318-327 0-109 39-193 116-252s194-91 351-96l184-7c13-190-36-305-217-305-119 0-209 41-292 82l-64-137c93-49 217-96 356-96zm-245 813c0 117 66 178 176 178 189 0 281-117 284-311v-99c-222 12-460-2-460 232"/>
     </g>
    </g>
    <g transform="translate(4269)">
     <g transform="translate(0,326)">
      <path d="m356-954c63-96 155-164 314-164 308 0 417 247 417 567 0 259-75 450-246 535-51 25-108 36-171 36-155-1-249-68-314-159h-12l-37 139h-133v-1556h182c-2 202 5 412-8 602h8zm0 403c1 237 46 421 281 420 90 0 153-39 199-109 81-124 82-503 0-624-45-67-110-103-201-103-236 0-279 179-279 416"/>
     </g>
    </g>
    <g transform="translate(5469)">
     <g transform="translate(0,326)">
      <path d="m528-1118c261 0 396 106 396 366v752h-131l-37-152h-8c-73 102-160 175-336 172-207-4-318-117-318-327 0-109 39-193 116-252s194-91 351-96l184-7c13-190-36-305-217-305-119 0-209 41-292 82l-64-137c93-49 217-96 356-96zm-245 813c0 117 66 178 176 178 189 0 281-117 284-311v-99c-222 12-460-2-460 232"/>
     </g>
    </g>
    <g transform="translate(6556)">
     <g transform="translate(0,326)">
      <path d="m481-967c-140-5-232 63-189 190 66 110 246 141 360 208 97 57 179 119 179 268 0 236-176 319-417 321-139 1-239-21-324-69v-166c89 44 194 82 324 86 154 5 272-60 229-214-87-145-336-165-454-283-49-49-83-106-83-201 0-211 164-288 381-291 135-2 236 33 330 76l-63 147c-79-33-167-68-273-72"/>
     </g>
    </g>
    <g transform="translate(7480)">
     <g transform="translate(0,326)">
      <path d="m944-53c-94 46-196 77-336 73-333-9-495-220-495-561 0-264 92-451 269-538 104-51 258-51 363-3 158 72 246 228 248 455v113h-692c6 236 86 371 309 375 139 2 240-31 334-76v162zm-147-609c-2-176-59-305-234-305-171 0-246 129-258 305h492"/>
     </g>
    </g>
   </g>
   <path d="m650 280c0-192-480-192-480 0" stroke="#000" stroke-miterlimit="10" stroke-width="2" fill="none"/>
   <path d="m650 280v3" stroke="#000" stroke-miterlimit="10" stroke-width="2" fill="none"/>
   <path d="m170 280-4-15 10 1-6 14z"/>
   <path d="m170 280-4-15 10 1-6 14z" stroke="#000" stroke-miterlimit="10" stroke-width="2" fill="none"/>
   <g clip-path="url(#ah)">
    <path fill="url(#a)" d="m570 285c0-3 2-5 5-5h150c2 0 5 2 5 5v70c0 2-3 5-5 5h-150c-3 0-5-3-5-5v-70z"/>
    <path d="m570 285c0-3 2-5 5-5h150c2 0 5 2 5 5v70c0 2-3 5-5 5h-150c-3 0-5-3-5-5v-70z" stroke="#000" stroke-miterlimit="10" stroke-width="2" fill="none"/>
   </g>
   <g clip-path="url(#ag)">
    <path fill="url(#b)" d="m90 285c0-3 2.2-5 5-5h150c2 0 5 2 5 5v70c0 2-3 5-5 5h-150c-2.8 0-5-3-5-5v-70z"/>
    <path d="m90 285c0-3 2.2-5 5-5h150c2 0 5 2 5 5v70c0 2-3 5-5 5h-150c-2.8 0-5-3-5-5v-70z" stroke="#000" stroke-miterlimit="10" stroke-width="2" fill="none"/>
   </g>
   <path d="m250 320h80" stroke="#000" stroke-miterlimit="10" stroke-width="2" fill="none"/>
   <path d="m250 320h-3" stroke="#000" stroke-miterlimit="10" stroke-width="2" fill="none"/>
   <path d="m330 320-15 4v-9l15 5z"/>
   <path d="m330 320-15 4v-9l15 5z" stroke="#000" stroke-miterlimit="10" stroke-width="2" fill="none"/>
   <g clip-path="url(#af)">
    <path fill="url(#b)" d="m90 285c0-3 2.2-5 5-5h150c2 0 5 2 5 5v70c0 2-3 5-5 5h-150c-2.8 0-5-3-5-5v-70z"/>
    <path d="m90 285c0-3 2.2-5 5-5h150c2 0 5 2 5 5v70c0 2-3 5-5 5h-150c-2.8 0-5-3-5-5v-70z" stroke="#000" stroke-miterlimit="10" stroke-width="2" fill="none"/>
   </g>
   <g clip-path="url(#ae)">
    <path fill="url(#e)" d="m330 285c0-3 2-5 5-5h150c2 0 5 2 5 5v70c0 2-3 5-5 5h-150c-3 0-5-3-5-5v-70z"/>
    <path d="m330 285c0-3 2-5 5-5h150c2 0 5 2 5 5v70c0 2-3 5-5 5h-150c-3 0-5-3-5-5v-70z" stroke="#000" stroke-miterlimit="10" stroke-width="2" fill="none"/>
   </g>
   <path d="m250 330 80 90" stroke="#000" stroke-miterlimit="10" stroke-width="2" fill="none"/>
   <path d="m250 330-2-3" stroke="#000" stroke-miterlimit="10" stroke-width="2" fill="none"/>
   <path d="m330 420-13-8 7-6 6 14z"/>
   <path d="m330 420-13-8 7-6 6 14z" stroke="#000" stroke-miterlimit="10" stroke-width="2" fill="none"/>
   <g clip-path="url(#ad)">
    <path fill="url(#b)" d="m90 285c0-3 2.2-5 5-5h150c2 0 5 2 5 5v70c0 2-3 5-5 5h-150c-2.8 0-5-3-5-5v-70z"/>
    <path d="m90 285c0-3 2.2-5 5-5h150c2 0 5 2 5 5v70c0 2-3 5-5 5h-150c-2.8 0-5-3-5-5v-70z" stroke="#000" stroke-miterlimit="10" stroke-width="2" fill="none"/>
   </g>
   <g clip-path="url(#ac)">
    <path fill="url(#c)" d="m330 385c0-3 2-5 5-5h150c2 0 5 2 5 5v70c0 2-3 5-5 5h-150c-3 0-5-3-5-5v-70z"/>
    <path d="m330 385c0-3 2-5 5-5h150c2 0 5 2 5 5v70c0 2-3 5-5 5h-150c-3 0-5-3-5-5v-70z" stroke="#000" stroke-miterlimit="10" stroke-width="2" fill="none"/>
   </g>
   <path d="m250 300 80-80" stroke="#000" stroke-miterlimit="10" stroke-width="2" fill="none"/>
   <path d="m250 300-3 2" stroke="#000" stroke-miterlimit="10" stroke-width="2" fill="none"/>
   <path d="m330 220-7 13-7-7 14-6z"/>
   <path d="m330 220-7 13-7-7 14-6z" stroke="#000" stroke-miterlimit="10" stroke-width="2" fill="none"/>
   <g clip-path="url(#ab)">
    <path fill="url(#b)" d="m90 285c0-3 2.2-5 5-5h150c2 0 5 2 5 5v70c0 2-3 5-5 5h-150c-2.8 0-5-3-5-5v-70z"/>
    <path d="m90 285c0-3 2.2-5 5-5h150c2 0 5 2 5 5v70c0 2-3 5-5 5h-150c-2.8 0-5-3-5-5v-70z" stroke="#000" stroke-miterlimit="10" stroke-width="2" fill="none"/>
   </g>
   <g clip-path="url(#aa)">
    <path fill="url(#d)" d="m330 185c0-3 2-5 5-5h150c2 0 5 2 5 5v70c0 2-3 5-5 5h-150c-3 0-5-3-5-5v-70z"/>
    <path d="m330 185c0-3 2-5 5-5h150c2 0 5 2 5 5v70c0 2-3 5-5 5h-150c-3 0-5-3-5-5v-70z" stroke="#000" stroke-miterlimit="10" stroke-width="2" fill="none"/>
   </g>
   <path d="m170 520v-160" stroke="#000" stroke-miterlimit="10" stroke-width="2" fill="none"/>
   <path d="m170 520v3" stroke="#000" stroke-miterlimit="10" stroke-width="2" fill="none"/>
   <path d="m170 360 4 14h-9l5-14z"/>
   <path d="m170 360 4 14h-9l5-14z" stroke="#000" stroke-miterlimit="10" stroke-width="2" fill="none"/>
   <g clip-path="url(#z)">
    <path fill="url(#h)" d="m218 520c17 0 32 17 32 40 0 22-15 40-32 40h-96c-18 0-32-18-32-40 0-23 14-40 32-40h96z"/>
    <path d="m218 520c17 0 32 17 32 40 0 22-15 40-32 40h-96c-18 0-32-18-32-40 0-23 14-40 32-40h96z" stroke="#000" stroke-miterlimit="10" stroke-width="2" fill="none"/>
   </g>
   <g clip-path="url(#y)">
    <path fill="url(#b)" d="m90 285c0-3 2.2-5 5-5h150c2 0 5 2 5 5v70c0 2-3 5-5 5h-150c-2.8 0-5-3-5-5v-70z"/>
    <path d="m90 285c0-3 2.2-5 5-5h150c2 0 5 2 5 5v70c0 2-3 5-5 5h-150c-2.8 0-5-3-5-5v-70z" stroke="#000" stroke-miterlimit="10" stroke-width="2" fill="none"/>
   </g>
   <path d="m426 521-16-61" stroke="#000" stroke-miterlimit="10" stroke-width="4" fill="none"/>
   <path d="m426 521-9-13 9-2v15z"/>
   <path d="m426 521-9-13 9-2v15z" stroke="#000" stroke-miterlimit="10" stroke-width="4" fill="none"/>
   <path d="m410 460 8 12-9 3 1-15z"/>
   <path d="m410 460 8 12-9 3 1-15z" stroke="#000" stroke-miterlimit="10" stroke-width="4" fill="none"/>
   <g clip-path="url(#x)">
    <path fill="url(#g)" d="m354 604c-14 0-24-11-24-24 0-11 6-20 16-23 0-31 40-37 56-25 8-18 48-12 48 6 24-6 48 18 32 48 16 24 0 54-32 42-8 15-40 15-48 0-16 12-48 6-48-24z"/>
    <path d="m354 604c-14 0-24-11-24-24 0-11 6-20 16-23 0-31 40-37 56-25 8-18 48-12 48 6 24-6 48 18 32 48 16 24 0 54-32 42-8 15-40 15-48 0-16 12-48 6-48-24z" stroke="#000" stroke-miterlimit="10" stroke-width="2" fill="none"/>
   </g>
   <g clip-path="url(#w)">
    <path fill="url(#c)" d="m330 385c0-3 2-5 5-5h150c2 0 5 2 5 5v70c0 2-3 5-5 5h-150c-3 0-5-3-5-5v-70z"/>
    <path d="m330 385c0-3 2-5 5-5h150c2 0 5 2 5 5v70c0 2-3 5-5 5h-150c-3 0-5-3-5-5v-70z" stroke="#000" stroke-miterlimit="10" stroke-width="2" fill="none"/>
   </g>
   <path d="m650 360v160" stroke="#000" stroke-miterlimit="10" stroke-width="2" fill="none"/>
   <path d="m650 360v-3" stroke="#000" stroke-miterlimit="10" stroke-width="2" fill="none"/>
   <path d="m650 520-5-15h9l-4 15z"/>
   <path d="m650 520-5-15h9l-4 15z" stroke="#000" stroke-miterlimit="10" stroke-width="2" fill="none"/>
   <g clip-path="url(#v)">
    <path fill="url(#a)" d="m570 285c0-3 2-5 5-5h150c2 0 5 2 5 5v70c0 2-3 5-5 5h-150c-3 0-5-3-5-5v-70z"/>
    <path d="m570 285c0-3 2-5 5-5h150c2 0 5 2 5 5v70c0 2-3 5-5 5h-150c-3 0-5-3-5-5v-70z" stroke="#000" stroke-miterlimit="10" stroke-width="2" fill="none"/>
   </g>
   <g clip-path="url(#u)">
    <path fill="url(#f)" d="m710 628c0 6-27 12-60 12-34 0-60-6-60-12v-96c0-7 26-12 60-12 33 0 60 5 60 12v96z"/>
    <path d="m710 628c0 6-27 12-60 12-34 0-60-6-60-12v-96c0-7 26-12 60-12 33 0 60 5 60 12v96z" stroke="#000" stroke-miterlimit="10" stroke-width="2" fill="none"/>
    <path d="m710 532c0 6-27 12-60 12-34 0-60-6-60-12" stroke="#000" stroke-miterlimit="10" stroke-width="2" fill="none"/>
   </g>
   <g transform="matrix(.00878 0 0 .00878 435 493.14)">
    <g transform="translate(0,326)">
     <path d="m385 0h-186v-1462h759v164h-573v516h535v164h-535v618"/>
    </g>
    <g transform="translate(1006)">
     <g transform="translate(0,326)">
      <path d="m944-53c-94 46-196 77-336 73-333-9-495-220-495-561 0-264 92-451 269-538 104-51 258-51 363-3 158 72 246 228 248 455v113h-692c6 236 86 371 309 375 139 2 240-31 334-76v162zm-147-609c-2-176-59-305-234-305-171 0-246 129-258 305h492"/>
     </g>
    </g>
    <g transform="translate(2102)">
     <g transform="translate(0,326)">
      <path d="m371-324c1 116 27 195 135 195 53 0 108-9 149-21v138c-47 20-111 31-178 32-210 0-290-128-289-344v-637h-155v-81l155-78 78-230h105v252h276v137h-276v637"/>
     </g>
    </g>
    <g transform="translate(2796)">
     <g transform="translate(0,326)">
      <path d="m860-39c-76 40-148 61-266 59-333-6-481-218-481-563 0-354 148-568 489-575 100-2 211 26 277 59l-54 154c-63-26-137-53-223-53-235 0-301 158-301 413 0 251 67 400 293 406 107 3 193-30 266-62v162"/>
     </g>
    </g>
    <g transform="translate(3744)">
     <g transform="translate(0,326)">
      <path d="m674-1118c257 0 369 132 368 401v717h-182v-707c-1-164-59-259-217-260-230-2-287 167-287 398v569h-182v-1556h182c-2 202 6 416-8 606h10c61-100 160-168 316-168"/>
     </g>
    </g>
    <g transform="translate(4950)">
     <g transform="translate(0,326)"></g>
    </g>
   </g>
   <g transform="matrix(.00878 0 0 .00878 484 493.14)">
    <g transform="translate(0,326)">
     <path d="m719-143c233-2 340-141 340-369v-952h186v948c-10 341-189 536-536 536-344 0-525-198-525-540v-942h187v952c0 232 114 369 348 367"/>
    </g>
    <g transform="translate(1430)">
     <g transform="translate(0,326)">
      <path d="m1075-1047c0 224-126 331-289 392l398 655h-219l-351-604h-229v604h-186v-1462h356c327 0 520 110 520 415zm-192 9c0-204-132-267-338-265h-160v541h164c207 1 334-71 334-276"/>
     </g>
    </g>
    <g transform="translate(2638)">
     <g transform="translate(0,326)">
      <path d="m199 0v-1462h186v1296h573v166h-759"/>
     </g>
    </g>
    <g transform="translate(3644)">
     <g transform="translate(0,326)">
      <path d="m481-967c-140-5-232 63-189 190 66 110 246 141 360 208 97 57 179 119 179 268 0 236-176 319-417 321-139 1-239-21-324-69v-166c89 44 194 82 324 86 154 5 272-60 229-214-87-145-336-165-454-283-49-49-83-106-83-201 0-211 164-288 381-291 135-2 236 33 330 76l-63 147c-79-33-167-68-273-72"/>
     </g>
    </g>
   </g>
   <g transform="matrix(.00878 0 0 .00878 519 433.14)">
    <g transform="translate(0,326)">
     <path d="m559-1319c-187 0-306 130-241 307 59 162 301 189 444 275 120 72 207 159 207 346 0 287-202 407-496 411-140 2-280-22-369-69v-178c102 46 224 84 369 86 190 2 310-62 313-232 3-135-71-183-163-233-80-44-231-93-309-144-115-76-191-176-191-362 0-255 180-366 438-371 154-3 280 33 383 80l-67 156c-83-36-199-72-318-72"/>
    </g>
    <g transform="translate(1063)">
     <g transform="translate(0,326)">
      <path d="m528-1118c261 0 396 106 396 366v752h-131l-37-152h-8c-73 102-160 175-336 172-207-4-318-117-318-327 0-109 39-193 116-252s194-91 351-96l184-7c13-190-36-305-217-305-119 0-209 41-292 82l-64-137c93-49 217-96 356-96zm-245 813c0 117 66 178 176 178 189 0 281-117 284-311v-99c-222 12-460-2-460 232"/>
     </g>
    </g>
    <g transform="translate(2150)">
     <g transform="translate(0,326)">
      <path d="m375 0-375-1098h188c101 324 219 632 299 977h7c80-346 198-653 299-977h188l-375 1098h-231"/>
     </g>
    </g>
    <g transform="translate(3131)">
     <g transform="translate(0,326)">
      <path d="m944-53c-94 46-196 77-336 73-333-9-495-220-495-561 0-264 92-451 269-538 104-51 258-51 363-3 158 72 246 228 248 455v113h-692c6 236 86 371 309 375 139 2 240-31 334-76v162zm-147-609c-2-176-59-305-234-305-171 0-246 129-258 305h492"/>
     </g>
    </g>
    <g transform="translate(4227)">
     <g transform="translate(0,326)"></g>
    </g>
   </g>
   <g transform="matrix(.00878 0 0 .00878 560 433.14)">
    <g transform="translate(0,326)">
     <path d="m371-324c1 116 27 195 135 195 53 0 108-9 149-21v138c-47 20-111 31-178 32-210 0-290-128-289-344v-637h-155v-81l155-78 78-230h105v252h276v137h-276v637"/>
    </g>
    <g transform="translate(694)">
     <g transform="translate(0,326)">
      <path d="m944-53c-94 46-196 77-336 73-333-9-495-220-495-561 0-264 92-451 269-538 104-51 258-51 363-3 158 72 246 228 248 455v113h-692c6 236 86 371 309 375 139 2 240-31 334-76v162zm-147-609c-2-176-59-305-234-305-171 0-246 129-258 305h492"/>
     </g>
    </g>
    <g transform="translate(1790)">
     <g transform="translate(0,326)">
      <path d="m408-563-353-535h207l250 410 250-410h207l-355 535 373 563h-207l-268-436-270 436h-207"/>
     </g>
    </g>
    <g transform="translate(2814)">
     <g transform="translate(0,326)">
      <path d="m371-324c1 116 27 195 135 195 53 0 108-9 149-21v138c-47 20-111 31-178 32-210 0-290-128-289-344v-637h-155v-81l155-78 78-230h105v252h276v137h-276v637"/>
     </g>
    </g>
    <g transform="translate(3508)">
     <g transform="translate(0,326)"></g>
    </g>
   </g>
   <g transform="matrix(.00878 0 0 .00878 596 433.14)">
    <g transform="translate(0,326)">
     <path d="m371-324c1 116 27 195 135 195 53 0 108-9 149-21v138c-47 20-111 31-178 32-210 0-290-128-289-344v-637h-155v-81l155-78 78-230h105v252h276v137h-276v637"/>
    </g>
    <g transform="translate(694)">
     <g transform="translate(0,326)">
      <path d="m113-551c0-340 147-567 481-567 325 0 475 233 475 567 0 342-147 571-481 571-325 0-475-235-475-571zm477-416c-231 0-289 166-289 416s60 420 291 420 289-170 289-420c0-251-60-416-291-416"/>
     </g>
    </g>
    <g transform="translate(1876)">
     <g transform="translate(0,326)"></g>
    </g>
   </g>
   <g transform="matrix(.00878 0 0 .00878 617 433.14)">
    <g transform="translate(0,326)">
     <path d="m606-1462c446 9 670 266 670 717 0 479-236 740-711 745h-366v-1462h407zm-59 1302c362-1 533-208 532-579-1-354-145-561-493-564h-201v1143h162"/>
    </g>
    <g transform="translate(1401)">
     <g transform="translate(0,326)">
      <path d="m1159-424c-4 287-185 424-475 424h-485v-1462h399c301 1 525 71 520 370-3 192-118 289-291 316v10c191 33 335 117 332 342zm-231-655c-4-182-121-224-320-224h-223v461h244c185 1 303-55 299-237zm35 647c0-190-127-254-324-254h-254v528h266c199 1 312-80 312-274"/>
     </g>
    </g>
   </g>
   <g transform="matrix(.00878 0 0 .00878 180 453.14)">
    <g transform="translate(0,326)">
     <path d="m561-1462c316 1 514 118 514 428 0 320-205 463-540 465h-150v569h-186v-1462h362zm322 438c-3-205-121-279-338-279h-160v576h129c227 2 372-71 369-297"/>
    </g>
    <g transform="translate(1180)">
     <g transform="translate(0,326)">
      <path d="m563-131c230 1 287-166 287-397v-570h182v1098h-147l-27-147h-10c-60 101-161 165-316 167-259 3-368-141-368-401v-717h182v707c0 164 60 259 217 260"/>
     </g>
    </g>
    <g transform="translate(2386)">
     <g transform="translate(0,326)">
      <path d="m481-967c-140-5-232 63-189 190 66 110 246 141 360 208 97 57 179 119 179 268 0 236-176 319-417 321-139 1-239-21-324-69v-166c89 44 194 82 324 86 154 5 272-60 229-214-87-145-336-165-454-283-49-49-83-106-83-201 0-211 164-288 381-291 135-2 236 33 330 76l-63 147c-79-33-167-68-273-72"/>
     </g>
    </g>
    <g transform="translate(3310)">
     <g transform="translate(0,326)">
      <path d="m674-1118c257 0 369 132 368 401v717h-182v-707c-1-164-59-259-217-260-230-2-287 167-287 398v569h-182v-1556h182c-2 202 6 416-8 606h10c61-100 160-168 316-168"/>
     </g>
    </g>
    <g transform="translate(4516)">
     <g transform="translate(0,326)"></g>
    </g>
   </g>
   <g transform="matrix(.00878 0 0 .00878 224 453.14)">
    <g transform="translate(0,326)">
     <path d="m612 0h-530v-102l172-41v-1176l-172-41v-102h530v102l-172 41v1176l172 41v102"/>
    </g>
    <g transform="translate(694)">
     <g transform="translate(0,326)">
      <path d="m674-1118c257 0 369 132 368 401v717h-182v-707c-1-164-59-259-217-260-230-2-287 167-287 398v569h-182v-1098h148l26 148h10c61-100 160-168 316-168"/>
     </g>
    </g>
    <g transform="translate(1900)">
     <g transform="translate(0,326)">
      <path d="m356 0h-182v-1098h182v1098zm-90-1280c-65 0-106-43-106-115 0-74 40-114 106-114 70 0 105 42 107 114 2 71-44 115-107 115"/>
     </g>
    </g>
    <g transform="translate(2430)">
     <g transform="translate(0,326)">
      <path d="m371-324c1 116 27 195 135 195 53 0 108-9 149-21v138c-47 20-111 31-178 32-210 0-290-128-289-344v-637h-155v-81l155-78 78-230h105v252h276v137h-276v637"/>
     </g>
    </g>
    <g transform="translate(3124)">
     <g transform="translate(0,326)">
      <path d="m356 0h-182v-1098h182v1098zm-90-1280c-65 0-106-43-106-115 0-74 40-114 106-114 70 0 105 42 107 114 2 71-44 115-107 115"/>
     </g>
    </g>
    <g transform="translate(3654)">
     <g transform="translate(0,326)">
      <path d="m528-1118c261 0 396 106 396 366v752h-131l-37-152h-8c-73 102-160 175-336 172-207-4-318-117-318-327 0-109 39-193 116-252s194-91 351-96l184-7c13-190-36-305-217-305-119 0-209 41-292 82l-64-137c93-49 217-96 356-96zm-245 813c0 117 66 178 176 178 189 0 281-117 284-311v-99c-222 12-460-2-460 232"/>
     </g>
    </g>
    <g transform="translate(4741)">
     <g transform="translate(0,326)">
      <path d="m356 0h-182v-1556h182v1556"/>
     </g>
    </g>
    <g transform="translate(5271)">
     <g transform="translate(0,326)"></g>
    </g>
   </g>
   <g transform="matrix(.00878 0 0 .00878 275 453.14)">
    <g transform="translate(0,326)">
     <path d="m481-967c-140-5-232 63-189 190 66 110 246 141 360 208 97 57 179 119 179 268 0 236-176 319-417 321-139 1-239-21-324-69v-166c89 44 194 82 324 86 154 5 272-60 229-214-87-145-336-165-454-283-49-49-83-106-83-201 0-211 164-288 381-291 135-2 236 33 330 76l-63 147c-79-33-167-68-273-72"/>
    </g>
    <g transform="translate(924)">
     <g transform="translate(0,326)">
      <path d="m944-53c-94 46-196 77-336 73-333-9-495-220-495-561 0-264 92-451 269-538 104-51 258-51 363-3 158 72 246 228 248 455v113h-692c6 236 86 371 309 375 139 2 240-31 334-76v162zm-147-609c-2-176-59-305-234-305-171 0-246 129-258 305h492"/>
     </g>
    </g>
    <g transform="translate(2020)">
     <g transform="translate(0,326)">
      <path d="m371-324c1 116 27 195 135 195 53 0 108-9 149-21v138c-47 20-111 31-178 32-210 0-290-128-289-344v-637h-155v-81l155-78 78-230h105v252h276v137h-276v637"/>
     </g>
    </g>
   </g>
   <g transform="matrix(.00878 0 0 .00878 317 113.14)">
    <g transform="translate(0,326)">
     <path d="m719-143c233-2 340-141 340-369v-952h186v948c-10 341-189 536-536 536-344 0-525-198-525-540v-942h187v952c0 232 114 369 348 367"/>
    </g>
    <g transform="translate(1430)">
     <g transform="translate(0,326)">
      <path d="m1075-1047c0 224-126 331-289 392l398 655h-219l-351-604h-229v604h-186v-1462h356c327 0 520 110 520 415zm-192 9c0-204-132-267-338-265h-160v541h164c207 1 334-71 334-276"/>
     </g>
    </g>
    <g transform="translate(2638)">
     <g transform="translate(0,326)">
      <path d="m199 0v-1462h186v1296h573v166h-759"/>
     </g>
    </g>
    <g transform="translate(3644)">
     <g transform="translate(0,326)">
      <path d="m481-967c-140-5-232 63-189 190 66 110 246 141 360 208 97 57 179 119 179 268 0 236-176 319-417 321-139 1-239-21-324-69v-166c89 44 194 82 324 86 154 5 272-60 229-214-87-145-336-165-454-283-49-49-83-106-83-201 0-211 164-288 381-291 135-2 236 33 330 76l-63 147c-79-33-167-68-273-72"/>
     </g>
    </g>
    <g transform="translate(4568)">
     <g transform="translate(0,326)"></g>
    </g>
   </g>
   <g transform="matrix(.00878 0 0 .00878 362 113.14)">
    <g transform="translate(0,326)">
     <path d="m356-950c63-97 155-168 314-168 308 0 417 247 417 567 0 259-75 450-246 535-51 25-108 36-171 36-155-1-249-68-314-159h-12c22 193 8 420 12 631h-182v-1590h148l26 148h8zm0 358c-4 254 32 463 281 461 90 0 153-39 199-109 81-124 82-503 0-624-45-67-110-103-201-103-222 0-275 157-279 375"/>
    </g>
    <g transform="translate(1200)">
     <g transform="translate(0,326)">
      <path d="m563-131c230 1 287-166 287-397v-570h182v1098h-147l-27-147h-10c-60 101-161 165-316 167-259 3-368-141-368-401v-717h182v707c0 164 60 259 217 260"/>
     </g>
    </g>
    <g transform="translate(2406)">
     <g transform="translate(0,326)">
      <path d="m481-967c-140-5-232 63-189 190 66 110 246 141 360 208 97 57 179 119 179 268 0 236-176 319-417 321-139 1-239-21-324-69v-166c89 44 194 82 324 86 154 5 272-60 229-214-87-145-336-165-454-283-49-49-83-106-83-201 0-211 164-288 381-291 135-2 236 33 330 76l-63 147c-79-33-167-68-273-72"/>
     </g>
    </g>
    <g transform="translate(3330)">
     <g transform="translate(0,326)">
      <path d="m674-1118c257 0 369 132 368 401v717h-182v-707c-1-164-59-259-217-260-230-2-287 167-287 398v569h-182v-1556h182c-2 202 6 416-8 606h10c61-100 160-168 316-168"/>
     </g>
    </g>
    <g transform="translate(4536)">
     <g transform="translate(0,326)">
      <path d="m944-53c-94 46-196 77-336 73-333-9-495-220-495-561 0-264 92-451 269-538 104-51 258-51 363-3 158 72 246 228 248 455v113h-692c6 236 86 371 309 375 139 2 240-31 334-76v162zm-147-609c-2-176-59-305-234-305-171 0-246 129-258 305h492"/>
     </g>
    </g>
    <g transform="translate(5632)">
     <g transform="translate(0,326)">
      <path d="m856-958c-21-183-9-398-12-598h182v1556h-147l-27-147h-8c-63 95-155 167-314 167-307 0-417-246-417-567 0-260 76-450 247-535 51-25 108-36 170-36 155 1 249 69 314 160h12zm-12 452c5-254-32-463-281-461-90 0-153 39-199 109-81 124-82 504 0 624 45 66 110 103 201 103 222 0 275-157 279-375"/>
     </g>
    </g>
    <g transform="translate(6832)">
     <g transform="translate(0,326)"></g>
    </g>
   </g>
   <g transform="matrix(.00878 0 0 .00878 427 113.14)">
    <g transform="translate(0,326)">
     <path d="m371-324c1 116 27 195 135 195 53 0 108-9 149-21v138c-47 20-111 31-178 32-210 0-290-128-289-344v-637h-155v-81l155-78 78-230h105v252h276v137h-276v637"/>
    </g>
    <g transform="translate(694)">
     <g transform="translate(0,326)">
      <path d="m113-551c0-340 147-567 481-567 325 0 475 233 475 567 0 342-147 571-481 571-325 0-475-235-475-571zm477-416c-231 0-289 166-289 416s60 420 291 420 289-170 289-420c0-251-60-416-291-416"/>
     </g>
    </g>
    <g transform="translate(1876)">
     <g transform="translate(0,326)"></g>
    </g>
   </g>
   <g transform="matrix(.00878 0 0 .00878 448 113.14)">
    <g transform="translate(0,326)">
     <path d="m125-735c0-454 187-750 637-750 442 0 631 305 631 752 0 356-126 601-379 708 59 131 155 219 270 297l-121 142c-136-98-261-229-327-398-499 33-711-273-711-751zm637-586c-333 0-440 248-440 588 0 338 105 590 438 590s436-251 436-590-102-588-434-588"/>
    </g>
    <g transform="translate(1518)">
     <g transform="translate(0,326)">
      <path d="m563-131c230 1 287-166 287-397v-570h182v1098h-147l-27-147h-10c-60 101-161 165-316 167-259 3-368-141-368-401v-717h182v707c0 164 60 259 217 260"/>
     </g>
    </g>
    <g transform="translate(2724)">
     <g transform="translate(0,326)">
      <path d="m944-53c-94 46-196 77-336 73-333-9-495-220-495-561 0-264 92-451 269-538 104-51 258-51 363-3 158 72 246 228 248 455v113h-692c6 236 86 371 309 375 139 2 240-31 334-76v162zm-147-609c-2-176-59-305-234-305-171 0-246 129-258 305h492"/>
     </g>
    </g>
    <g transform="translate(3820)">
     <g transform="translate(0,326)">
      <path d="m563-131c230 1 287-166 287-397v-570h182v1098h-147l-27-147h-10c-60 101-161 165-316 167-259 3-368-141-368-401v-717h182v707c0 164 60 259 217 260"/>
     </g>
    </g>
    <g transform="translate(5026)">
     <g transform="translate(0,326)">
      <path d="m944-53c-94 46-196 77-336 73-333-9-495-220-495-561 0-264 92-451 269-538 104-51 258-51 363-3 158 72 246 228 248 455v113h-692c6 236 86 371 309 375 139 2 240-31 334-76v162zm-147-609c-2-176-59-305-234-305-171 0-246 129-258 305h492"/>
     </g>
    </g>
   </g>
   <path d="m490 220 80 80" stroke="#000" stroke-miterlimit="10" stroke-width="2" fill="none"/>
   <path d="m490 220-3-3" stroke="#000" stroke-miterlimit="10" stroke-width="2" fill="none"/>
   <path d="m570 300-14-7 7-7 7 14z"/>
   <path d="m570 300-14-7 7-7 7 14z" stroke="#000" stroke-miterlimit="10" stroke-width="2" fill="none"/>
   <g clip-path="url(#t)">
    <path fill="url(#d)" d="m330 185c0-3 2-5 5-5h150c2 0 5 2 5 5v70c0 2-3 5-5 5h-150c-3 0-5-3-5-5v-70z"/>
    <path d="m330 185c0-3 2-5 5-5h150c2 0 5 2 5 5v70c0 2-3 5-5 5h-150c-3 0-5-3-5-5v-70z" stroke="#000" stroke-miterlimit="10" stroke-width="2" fill="none"/>
   </g>
   <g clip-path="url(#s)">
    <path fill="url(#a)" d="m570 285c0-3 2-5 5-5h150c2 0 5 2 5 5v70c0 2-3 5-5 5h-150c-3 0-5-3-5-5v-70z"/>
    <path d="m570 285c0-3 2-5 5-5h150c2 0 5 2 5 5v70c0 2-3 5-5 5h-150c-3 0-5-3-5-5v-70z" stroke="#000" stroke-miterlimit="10" stroke-width="2" fill="none"/>
   </g>
   <path d="m490 320h80" stroke="#000" stroke-miterlimit="10" stroke-width="2" fill="none"/>
   <path d="m490 320h-3" stroke="#000" stroke-miterlimit="10" stroke-width="2" fill="none"/>
   <path d="m570 320-15 4v-9l15 5z"/>
   <path d="m570 320-15 4v-9l15 5z" stroke="#000" stroke-miterlimit="10" stroke-width="2" fill="none"/>
   <g clip-path="url(#r)">
    <path fill="url(#e)" d="m330 285c0-3 2-5 5-5h150c2 0 5 2 5 5v70c0 2-3 5-5 5h-150c-3 0-5-3-5-5v-70z"/>
    <path d="m330 285c0-3 2-5 5-5h150c2 0 5 2 5 5v70c0 2-3 5-5 5h-150c-3 0-5-3-5-5v-70z" stroke="#000" stroke-miterlimit="10" stroke-width="2" fill="none"/>
   </g>
   <g clip-path="url(#q)">
    <path fill="url(#a)" d="m570 285c0-3 2-5 5-5h150c2 0 5 2 5 5v70c0 2-3 5-5 5h-150c-3 0-5-3-5-5v-70z"/>
    <path d="m570 285c0-3 2-5 5-5h150c2 0 5 2 5 5v70c0 2-3 5-5 5h-150c-3 0-5-3-5-5v-70z" stroke="#000" stroke-miterlimit="10" stroke-width="2" fill="none"/>
   </g>
   <path d="m490 420 80-80" stroke="#000" stroke-miterlimit="10" stroke-width="2" fill="none"/>
   <path d="m490 420-3 2" stroke="#000" stroke-miterlimit="10" stroke-width="2" fill="none"/>
   <path d="m570 340-7 13-7-7 14-6z"/>
   <path d="m570 340-7 13-7-7 14-6z" stroke="#000" stroke-miterlimit="10" stroke-width="2" fill="none"/>
   <g clip-path="url(#p)">
    <path fill="url(#c)" d="m330 385c0-3 2-5 5-5h150c2 0 5 2 5 5v70c0 2-3 5-5 5h-150c-3 0-5-3-5-5v-70z"/>
    <path d="m330 385c0-3 2-5 5-5h150c2 0 5 2 5 5v70c0 2-3 5-5 5h-150c-3 0-5-3-5-5v-70z" stroke="#000" stroke-miterlimit="10" stroke-width="2" fill="none"/>
   </g>
   <g clip-path="url(#o)">
    <path fill="url(#a)" d="m570 285c0-3 2-5 5-5h150c2 0 5 2 5 5v70c0 2-3 5-5 5h-150c-3 0-5-3-5-5v-70z"/>
    <path d="m570 285c0-3 2-5 5-5h150c2 0 5 2 5 5v70c0 2-3 5-5 5h-150c-3 0-5-3-5-5v-70z" stroke="#000" stroke-miterlimit="10" stroke-width="2" fill="none"/>
   </g>
   <path fill="url(#n)" d="m90 505c0-3 2.2-5 5-5h50c2 0 5 2 5 5v30c0 2-3 5-5 5h-50c-2.8 0-5-3-5-5v-30z"/>
   <path d="m90 505c0-3 2.2-5 5-5h50c2 0 5 2 5 5v30c0 2-3 5-5 5h-50c-2.8 0-5-3-5-5v-30z" stroke="#000" stroke-miterlimit="10" stroke-width="2" fill="none"/>
   <g transform="matrix(.0107 0 0 .0107 113 523.51)">
    <g transform="translate(0,326)">
     <path d="m711 0h-176c2-425-6-859 8-1274-81 86-178 158-269 234l-96-123 383-299h150v1462"/>
    </g>
   </g>
   <path fill="url(#m)" d="m680 265c0-3 2-5 5-5h50c2 0 5 2 5 5v30c0 2-3 5-5 5h-50c-3 0-5-3-5-5v-30z"/>
   <path d="m680 265c0-3 2-5 5-5h50c2 0 5 2 5 5v30c0 2-3 5-5 5h-50c-3 0-5-3-5-5v-30z" stroke="#000" stroke-miterlimit="10" stroke-width="2" fill="none"/>
   <g transform="matrix(.00878 0 0 .00878 705 283.14)">
    <g transform="translate(0,326)">
     <path d="m336-877c58-10 130-22 209-20 283 8 469 143 469 428 0 329-196 489-527 489-142 0-266-25-356-79v-172c89 59 218 96 361 96 215 0 335-100 335-314 0-201-133-296-344-294-81 1-161 14-231 26l-90-57 55-688h690v166h-532"/>
    </g>
   </g>
   <path fill="url(#l)" d="m450 525c0-3 2-5 5-5h50c2 0 5 2 5 5v30c0 2-3 5-5 5h-50c-3 0-5-3-5-5v-30z"/>
   <path d="m450 525c0-3 2-5 5-5h50c2 0 5 2 5 5v30c0 2-3 5-5 5h-50c-3 0-5-3-5-5v-30z" stroke="#000" stroke-miterlimit="10" stroke-width="2" fill="none"/>
   <g transform="matrix(.0107 0 0 .0107 473 543.51)">
    <g transform="translate(0,326)">
     <path d="m1087-328h-213v328h-176v-328h-675v-159l663-983h188v976h213v166zm-389-166c-1-266-1-537 13-788h-9c-23 63-56 128-90 180l-411 608h497"/>
    </g>
   </g>
   <path fill="url(#k)" d="m450 165c0-3 2-5 5-5h50c2 0 5 2 5 5v30c0 2-3 5-5 5h-50c-3 0-5-3-5-5v-30z"/>
   <path d="m450 165c0-3 2-5 5-5h50c2 0 5 2 5 5v30c0 2-3 5-5 5h-50c-3 0-5-3-5-5v-30z" stroke="#000" stroke-miterlimit="10" stroke-width="2" fill="none"/>
   <g transform="matrix(.0107 0 0 .0107 473 183.51)">
    <g transform="translate(0,326)">
     <path d="m524-1483c260 0 437 112 437 363 0 213-131 315-316 350v6c211 24 361 132 361 348 0 309-216 436-537 436-156 0-281-21-387-79v-170c100 54 241 96 383 96 214 0 354-79 354-289 0-249-250-266-514-258v-151h133c199-3 336-85 336-277 0-149-100-219-250-221-154-2-249 55-344 121l-92-125c108-85 245-150 436-150"/>
    </g>
   </g>
   <path fill="url(#j)" d="m80 265c0-3 2.2-5 5-5h50c2 0 5 2 5 5v30c0 2-3 5-5 5h-50c-2.8 0-5-3-5-5v-30z"/>
   <path d="m80 265c0-3 2.2-5 5-5h50c2 0 5 2 5 5v30c0 2-3 5-5 5h-50c-2.8 0-5-3-5-5v-30z" stroke="#000" stroke-miterlimit="10" stroke-width="2" fill="none"/>
   <g transform="matrix(.0107 0 0 .0107 103 283.51)">
    <g transform="translate(0,326)">
     <path d="m532-1483c259 0 418 134 418 391 0 213-106 338-210 463-129 155-283 306-421 455v8h689v166h-912v-156c158-173 332-353 484-529 95-110 186-210 186-400 0-154-83-244-236-244-144 0-233 68-317 137l-102-119c104-92 230-172 421-172"/>
    </g>
   </g>
   <path fill="url(#i)" d="m680 515c0-3 2-5 5-5h50c2 0 5 2 5 5v30c0 2-3 5-5 5h-50c-3 0-5-3-5-5v-30z"/>
   <path d="m680 515c0-3 2-5 5-5h50c2 0 5 2 5 5v30c0 2-3 5-5 5h-50c-3 0-5-3-5-5v-30z" stroke="#000" stroke-miterlimit="10" stroke-width="2" fill="none"/>
   <g transform="matrix(.0107 0 0 .0107 703 533.51)">
    <g transform="translate(0,326)">
     <path d="m1034-471c0 300-148 491-444 491-348 0-477-279-477-645 0-493 145-854 639-858 61 0 124 6 172 19v155c-88-31-234-31-324-3-221 69-291 288-301 567h12c57-101 150-170 307-170 275 0 416 167 416 444zm-176 0c0-185-81-301-264-301-140 0-234 72-278 170-52 116-2 271 52 349 45 64 115 122 220 120 193-4 270-137 270-338"/>
    </g>
   </g>
  </g>
 </g>
</svg>
