<?xml version="1.0" encoding="UTF-8"?>
<svg xmlns="http://www.w3.org/2000/svg" xmlns:xlink="http://www.w3.org/1999/xlink" fill-opacity="1" color-rendering="auto" color-interpolation="auto" stroke="black" text-rendering="auto" stroke-linecap="square" width="260" stroke-miterlimit="10" stroke-opacity="1" shape-rendering="auto" fill="black" stroke-dasharray="none" font-weight="normal" stroke-width="1" height="236" font-family="'Dialog'" font-style="normal" stroke-linejoin="miter" font-size="12" stroke-dashoffset="0" image-rendering="auto">
  <!--Generated by ySVG-->
  <defs id="genericDefs"/>
  <g>
    <defs id="defs1">
      <clipPath clipPathUnits="userSpaceOnUse" id="clipPath1">
        <path d="M0 0 L260 0 L260 236 L0 236 L0 0 Z"/>
      </clipPath>
      <clipPath clipPathUnits="userSpaceOnUse" id="clipPath2">
        <path d="M59 82 L319 82 L319 318 L59 318 L59 82 Z"/>
      </clipPath>
    </defs>
    <g fill="rgb(255,255,153)" transform="matrix(1,0,0,1,-59,-82)" stroke="rgb(255,255,153)">
      <ellipse rx="47.696" ry="96.5885" clip-path="url(#clipPath2)" cx="117" cy="210.98" stroke="none"/>
    </g>
    <g stroke-miterlimit="1.45" font-family="sans-serif" transform="matrix(1,0,0,1,-59,-82)" stroke-linecap="butt">
      <text x="92.8535" xml:space="preserve" y="105.5633" clip-path="url(#clipPath2)" stroke="none">Full Urls</text>
      <ellipse rx="47.696" fill="none" ry="96.5885" clip-path="url(#clipPath2)" cx="117" cy="210.98"/>
    </g>
    <g fill="rgb(255,255,153)" transform="matrix(1,0,0,1,-59,-82)" stroke="rgb(255,255,153)">
      <ellipse rx="47.696" ry="96.5885" clip-path="url(#clipPath2)" cx="261" cy="210.98" stroke="none"/>
    </g>
    <g stroke-miterlimit="1.45" font-family="sans-serif" transform="matrix(1,0,0,1,-59,-82)" stroke-linecap="butt">
      <text x="216.3457" xml:space="preserve" y="105.5633" clip-path="url(#clipPath2)" stroke="none">Shortened Urls</text>
      <ellipse rx="47.696" fill="none" ry="96.5885" clip-path="url(#clipPath2)" cx="261" cy="210.98"/>
    </g>
    <g fill="rgb(255,204,0)" transform="matrix(1,0,0,1,-59,-82)" stroke="rgb(255,204,0)">
      <circle r="15" clip-path="url(#clipPath2)" cx="117" cy="140" stroke="none"/>
    </g>
    <g stroke-miterlimit="1.45" font-family="sans-serif" transform="matrix(1,0,0,1,-59,-82)" stroke-linecap="butt">
      <text x="113.1826" xml:space="preserve" y="144.1562" clip-path="url(#clipPath2)" stroke="none">1</text>
      <circle fill="none" r="15" clip-path="url(#clipPath2)" cx="117" cy="140"/>
    </g>
    <g fill="rgb(255,204,0)" transform="matrix(1,0,0,1,-59,-82)" stroke="rgb(255,204,0)">
      <circle r="15" clip-path="url(#clipPath2)" cx="117" cy="187.5" stroke="none"/>
    </g>
    <g stroke-miterlimit="1.45" font-family="sans-serif" transform="matrix(1,0,0,1,-59,-82)" stroke-linecap="butt">
      <text x="113.1826" xml:space="preserve" y="191.6562" clip-path="url(#clipPath2)" stroke="none">2</text>
      <circle fill="none" r="15" clip-path="url(#clipPath2)" cx="117" cy="187.5"/>
    </g>
    <g fill="rgb(255,204,0)" transform="matrix(1,0,0,1,-59,-82)" stroke="rgb(255,204,0)">
      <circle r="15" clip-path="url(#clipPath2)" cx="117" cy="282.36" stroke="none"/>
    </g>
    <g stroke-miterlimit="1.45" font-family="sans-serif" transform="matrix(1,0,0,1,-59,-82)" stroke-linecap="butt">
      <text x="113.1826" xml:space="preserve" y="286.5162" clip-path="url(#clipPath2)" stroke="none">9</text>
      <circle fill="none" r="15" clip-path="url(#clipPath2)" cx="117" cy="282.36"/>
    </g>
    <g fill="rgb(255,204,0)" transform="matrix(1,0,0,1,-59,-82)" stroke="rgb(255,204,0)">
      <circle r="15" clip-path="url(#clipPath2)" cx="261" cy="140" stroke="none"/>
    </g>
    <g stroke-miterlimit="1.45" font-family="sans-serif" transform="matrix(1,0,0,1,-59,-82)" stroke-linecap="butt">
      <text x="256.8955" xml:space="preserve" y="144.1562" clip-path="url(#clipPath2)" stroke="none">A</text>
      <circle fill="none" r="15" clip-path="url(#clipPath2)" cx="261" cy="140"/>
    </g>
    <g fill="rgb(255,204,0)" transform="matrix(1,0,0,1,-59,-82)" stroke="rgb(255,204,0)">
      <circle r="15" clip-path="url(#clipPath2)" cx="261" cy="187.5" stroke="none"/>
    </g>
    <g stroke-miterlimit="1.45" font-family="sans-serif" transform="matrix(1,0,0,1,-59,-82)" stroke-linecap="butt">
      <text x="256.8838" xml:space="preserve" y="191.6562" clip-path="url(#clipPath2)" stroke="none">B</text>
      <circle fill="none" r="15" clip-path="url(#clipPath2)" cx="261" cy="187.5"/>
    </g>
    <g fill="rgb(255,204,0)" transform="matrix(1,0,0,1,-59,-82)" stroke="rgb(255,204,0)">
      <circle r="15" clip-path="url(#clipPath2)" cx="261" cy="282.36" stroke="none"/>
    </g>
    <g stroke-miterlimit="1.45" font-family="sans-serif" transform="matrix(1,0,0,1,-59,-82)" stroke-linecap="butt">
      <text x="256.8896" xml:space="preserve" y="286.5162" clip-path="url(#clipPath2)" stroke="none">Z</text>
      <circle fill="none" r="15" clip-path="url(#clipPath2)" cx="261" cy="282.36"/>
    </g>
    <g fill="rgb(255,204,0)" transform="matrix(1,0,0,1,-59,-82)" stroke="rgb(255,204,0)">
      <circle r="15" clip-path="url(#clipPath2)" cx="117" cy="234.93" stroke="none"/>
    </g>
    <g stroke-miterlimit="1.45" font-family="sans-serif" transform="matrix(1,0,0,1,-59,-82)" stroke-linecap="butt">
      <text x="113.1826" xml:space="preserve" y="239.0862" clip-path="url(#clipPath2)" stroke="none">7</text>
      <circle fill="none" r="15" clip-path="url(#clipPath2)" cx="117" cy="234.93"/>
    </g>
    <g fill="rgb(255,204,0)" transform="matrix(1,0,0,1,-59,-82)" stroke="rgb(255,204,0)">
      <circle r="15" clip-path="url(#clipPath2)" cx="261" cy="234.93" stroke="none"/>
    </g>
    <g stroke-miterlimit="1.45" font-family="sans-serif" transform="matrix(1,0,0,1,-59,-82)" stroke-linecap="butt">
      <text x="255.0674" xml:space="preserve" y="239.0862" clip-path="url(#clipPath2)" stroke="none">W</text>
      <circle fill="none" r="15" clip-path="url(#clipPath2)" cx="261" cy="234.93"/>
      <path fill="none" d="M132 140 L238 140" clip-path="url(#clipPath2)"/>
      <path d="M246 140 L234 135 L237 140 L234 145 Z" clip-path="url(#clipPath2)" stroke="none"/>
      <path fill="none" d="M132 187.5 L238 187.5" clip-path="url(#clipPath2)"/>
      <path d="M246 187.5 L234 182.5 L237 187.5 L234 192.5 Z" clip-path="url(#clipPath2)" stroke="none"/>
      <path fill="none" d="M132 282.36 L238 282.36" clip-path="url(#clipPath2)"/>
      <path d="M246 282.36 L234 277.36 L237 282.36 L234 287.36 Z" clip-path="url(#clipPath2)" stroke="none"/>
    </g>
  </g>
</svg>
