<?xml version="1.0" encoding="UTF-8"?>
<svg xmlns="http://www.w3.org/2000/svg" xmlns:xlink="http://www.w3.org/1999/xlink" fill-opacity="1" color-rendering="auto" color-interpolation="auto" stroke="black" text-rendering="auto" stroke-linecap="square" width="321" stroke-miterlimit="10" stroke-opacity="1" shape-rendering="auto" fill="black" stroke-dasharray="none" font-weight="normal" stroke-width="1" height="120" font-family="Arial" font-style="normal" stroke-linejoin="miter" font-size="12" stroke-dashoffset="0" image-rendering="auto">
  <!--Generated by ySVG-->
  <defs id="genericDefs"/>
  <g>
    <defs id="defs1">
      <clipPath clipPathUnits="userSpaceOnUse" id="clipPath1">
        <path d="M0 0 L321 0 L321 120 L0 120 L0 0 Z"/>
      </clipPath>
      <clipPath clipPathUnits="userSpaceOnUse" id="clipPath2">
        <path d="M549 -120 L870 -120 L870 0 L549 0 L549 -120 Z"/>
      </clipPath>
    </defs>
    <g fill="rgb(255,204,0)" transform="matrix(1,0,0,1,-549,120)" stroke="rgb(255,204,0)">
      <circle r="15" clip-path="url(#clipPath2)" cx="600" cy="-60" stroke="none"/>
    </g>
    <g transform="matrix(1,0,0,1,-549,120)">
      <text x="596.2061" y="-55.4648" clip-path="url(#clipPath2)" stroke="none">1</text>
      <circle stroke-linecap="butt" clip-path="url(#clipPath2)" fill="none" r="15" cx="600" cy="-60" stroke-miterlimit="1.45"/>
      <circle fill="rgb(255,204,0)" r="15" clip-path="url(#clipPath2)" cx="690" cy="-30" stroke="none"/>
      <text x="686.2061" y="-25.4648" clip-path="url(#clipPath2)" stroke="none">2</text>
      <circle stroke-linecap="butt" clip-path="url(#clipPath2)" fill="none" r="15" cx="690" cy="-30" stroke-miterlimit="1.45"/>
      <circle fill="rgb(255,204,0)" r="15" clip-path="url(#clipPath2)" cx="690" cy="-90" stroke="none"/>
      <text x="686.2061" y="-85.4648" clip-path="url(#clipPath2)" stroke="none">3</text>
      <circle stroke-linecap="butt" clip-path="url(#clipPath2)" fill="none" r="15" cx="690" cy="-90" stroke-miterlimit="1.45"/>
      <circle fill="rgb(255,204,0)" r="15" clip-path="url(#clipPath2)" cx="780" cy="-90" stroke="none"/>
      <text x="776.2061" y="-85.4648" clip-path="url(#clipPath2)" stroke="none">4</text>
      <circle stroke-linecap="butt" clip-path="url(#clipPath2)" fill="none" r="15" cx="780" cy="-90" stroke-miterlimit="1.45"/>
      <circle fill="rgb(255,204,0)" r="15" clip-path="url(#clipPath2)" cx="840" cy="-90" stroke="none"/>
      <text x="836.2061" y="-85.4648" clip-path="url(#clipPath2)" stroke="none">5</text>
      <circle stroke-linecap="butt" clip-path="url(#clipPath2)" fill="none" r="15" cx="840" cy="-90" stroke-miterlimit="1.45"/>
      <circle fill="rgb(255,204,0)" r="15" clip-path="url(#clipPath2)" cx="840" cy="-30" stroke="none"/>
      <text x="836.2061" y="-25.4648" clip-path="url(#clipPath2)" stroke="none">6</text>
      <circle stroke-linecap="butt" clip-path="url(#clipPath2)" fill="none" r="15" cx="840" cy="-30" stroke-miterlimit="1.45"/>
      <circle fill="rgb(255,204,0)" r="15" clip-path="url(#clipPath2)" cx="780" cy="-30" stroke="none"/>
      <text x="776.2061" y="-25.4648" clip-path="url(#clipPath2)" stroke="none">7</text>
      <circle stroke-linecap="butt" clip-path="url(#clipPath2)" fill="none" r="15" cx="780" cy="-30" stroke-miterlimit="1.45"/>
      <path fill="none" d="M603.3527 -74.636 L603.7109 -79.5616 L603.5714 -81.9841 L603.1641 -84.2578 L602.4554 -86.3641 L601.4118 -88.2843 L600 -90 L598.2025 -91.4937 L596.0665 -92.753 L593.6552 -93.7667 L591.0317 -94.5238 L588.2595 -95.013 L585.4018 -95.2232 L582.5217 -95.1432 L579.6826 -94.7619 L576.9476 -94.0681 L574.3799 -93.0506 L572.043 -91.6983 L570 -90 L568.3017 -87.957 L566.9494 -85.62 L565.9319 -83.0525 L565.2381 -80.3175 L564.8568 -77.4783 L564.7768 -74.5982 L564.987 -71.7404 L565.4762 -68.9683 L566.2333 -66.3449 L567.247 -63.9335 L568.5063 -61.7975 L570 -60 L571.7156 -58.5882 L573.6359 -57.5446 L575.7422 -56.8359 L577.3647 -56.5452 L577.4647 -56.5482" stroke-miterlimit="1.45" clip-path="url(#clipPath2)" stroke-linecap="butt"/>
      <path d="M585.4611 -56.7862 L573.3177 -61.427 L576.4651 -56.5185 L573.6152 -51.4314 Z" stroke-miterlimit="1.45" clip-path="url(#clipPath2)" stroke-linecap="butt" stroke="none"/>
      <path fill="none" d="M680.7458 -41.8066 L675.9375 -52.5 L675 -60 L675.9375 -67.5 L677.2493 -70.998 L677.3022 -71.0828" stroke-miterlimit="1.45" clip-path="url(#clipPath2)" stroke-linecap="butt"/>
      <path d="M681.541 -77.8675 L670.9424 -70.3396 L676.7724 -70.2347 L679.4233 -65.0412 Z" stroke-miterlimit="1.45" clip-path="url(#clipPath2)" stroke-linecap="butt" stroke="none"/>
      <path fill="none" d="M699.2542 -78.1934 L704.0625 -67.5 L705 -60 L704.0625 -52.5 L702.7507 -49.002 L702.6978 -48.9172" stroke-miterlimit="1.45" clip-path="url(#clipPath2)" stroke-linecap="butt"/>
      <path d="M698.459 -42.1325 L709.0576 -49.6604 L703.2276 -49.7653 L700.5767 -54.9588 Z" stroke-miterlimit="1.45" clip-path="url(#clipPath2)" stroke-linecap="butt" stroke="none"/>
      <path fill="none" d="M791.8066 -99.2542 L802.5 -104.0625 L810 -105 L817.5 -104.0625 L820.998 -102.7508 L821.0828 -102.6978" stroke-miterlimit="1.45" clip-path="url(#clipPath2)" stroke-linecap="butt"/>
      <path d="M827.8662 -98.4569 L820.3416 -109.0578 L820.2349 -103.2279 L815.0405 -100.5786 Z" stroke-miterlimit="1.45" clip-path="url(#clipPath2)" stroke-linecap="butt" stroke="none"/>
      <path fill="none" d="M849.2542 -78.1934 L854.0625 -67.5 L855 -60 L854.0625 -52.5 L852.7507 -49.002 L852.6978 -48.9172" stroke-miterlimit="1.45" clip-path="url(#clipPath2)" stroke-linecap="butt"/>
      <path d="M848.459 -42.1325 L859.0576 -49.6604 L853.2276 -49.7653 L850.5767 -54.9588 Z" stroke-miterlimit="1.45" clip-path="url(#clipPath2)" stroke-linecap="butt" stroke="none"/>
      <path fill="none" d="M828.1934 -20.7458 L817.5 -15.9375 L810 -15 L802.5 -15.9375 L799.002 -17.2492 L798.9172 -17.3022" stroke-miterlimit="1.45" clip-path="url(#clipPath2)" stroke-linecap="butt"/>
      <path d="M792.1337 -21.543 L799.6585 -10.9422 L799.7652 -16.7721 L804.9595 -19.4215 Z" stroke-miterlimit="1.45" clip-path="url(#clipPath2)" stroke-linecap="butt" stroke="none"/>
      <path fill="none" d="M770.7458 -41.8066 L765.9375 -52.5 L765 -60 L765.9375 -67.5 L767.2493 -70.998 L767.3022 -71.0828" stroke-miterlimit="1.45" clip-path="url(#clipPath2)" stroke-linecap="butt"/>
      <path d="M771.541 -77.8675 L760.9424 -70.3396 L766.7724 -70.2347 L769.4233 -65.0412 Z" stroke-miterlimit="1.45" clip-path="url(#clipPath2)" stroke-linecap="butt" stroke="none"/>
    </g>
  </g>
</svg>
