<?xml version="1.0" encoding="UTF-8"?>
<svg xmlns="http://www.w3.org/2000/svg" xmlns:xlink="http://www.w3.org/1999/xlink" fill-opacity="1" color-rendering="auto" color-interpolation="auto" stroke="black" text-rendering="auto" stroke-linecap="square" width="231" stroke-miterlimit="10" stroke-opacity="1" shape-rendering="auto" fill="black" stroke-dasharray="none" font-weight="normal" stroke-width="1" height="139" font-family="arial, helvetica, sans-serif" font-style="normal" stroke-linejoin="miter" font-size="12" stroke-dashoffset="0" image-rendering="auto">
  <!--Generated by ySVG-->
  <defs id="genericDefs"/>
  <g>
    <defs id="defs1">
      <clipPath clipPathUnits="userSpaceOnUse" id="clipPath1">
        <path d="M0 0 L231 0 L231 139 L0 139 L0 0 Z"/>
      </clipPath>
      <clipPath clipPathUnits="userSpaceOnUse" id="clipPath2">
        <path d="M372 158 L603 158 L603 297 L372 297 L372 158 Z"/>
      </clipPath>
    </defs>
    <g fill="rgb(255,204,0)" transform="matrix(1,0,0,1,-372,-158)" stroke="rgb(255,204,0)">
      <circle r="15" clip-path="url(#clipPath2)" cx="440" cy="185" stroke="none"/>
      <text x="430.5137" y="189.5352" clip-path="url(#clipPath2)" fill="black" font-family="arial, helvetica, sans-serif" stroke="none" xml:space="preserve">0.4</text>
      <text x="380.0898" y="182.4688" clip-path="url(#clipPath2)" fill="black" font-family="arial, helvetica, sans-serif" stroke="none" xml:space="preserve">Under</text>
      <text x="393.8594" y="196.6016" clip-path="url(#clipPath2)" fill="black" font-family="arial, helvetica, sans-serif" stroke="none" xml:space="preserve">Bed</text>
    </g>
    <g stroke-linecap="butt" transform="matrix(1,0,0,1,-372,-158)" stroke-miterlimit="1.45">
      <circle fill="none" r="15" clip-path="url(#clipPath2)" cx="440" cy="185"/>
    </g>
    <g fill="rgb(255,204,0)" transform="matrix(1,0,0,1,-372,-158)" stroke="rgb(255,204,0)">
      <circle r="15" clip-path="url(#clipPath2)" cx="525" cy="185" stroke="none"/>
      <text x="515.5137" y="189.5352" clip-path="url(#clipPath2)" fill="black" font-family="arial, helvetica, sans-serif" stroke="none" xml:space="preserve">0.1</text>
      <text x="546" y="182.4688" clip-path="url(#clipPath2)" fill="black" font-family="arial, helvetica, sans-serif" stroke="none" xml:space="preserve">Behind</text>
      <text x="546" y="196.6016" clip-path="url(#clipPath2)" fill="black" font-family="arial, helvetica, sans-serif" stroke="none" xml:space="preserve">Blinds</text>
    </g>
    <g stroke-linecap="butt" transform="matrix(1,0,0,1,-372,-158)" stroke-miterlimit="1.45">
      <circle fill="none" r="15" clip-path="url(#clipPath2)" cx="525" cy="185"/>
    </g>
    <g fill="rgb(255,204,0)" transform="matrix(1,0,0,1,-372,-158)" stroke="rgb(255,204,0)">
      <circle r="15" clip-path="url(#clipPath2)" cx="525" cy="270" stroke="none"/>
      <text x="515.5137" y="274.5352" clip-path="url(#clipPath2)" fill="black" font-family="arial, helvetica, sans-serif" stroke="none" xml:space="preserve">0.3</text>
      <text x="546" y="267.4688" clip-path="url(#clipPath2)" fill="black" font-family="arial, helvetica, sans-serif" stroke="none" xml:space="preserve">Inside</text>
      <text x="546" y="281.6016" clip-path="url(#clipPath2)" fill="black" font-family="arial, helvetica, sans-serif" stroke="none" xml:space="preserve">Cabinet</text>
    </g>
    <g stroke-linecap="butt" transform="matrix(1,0,0,1,-372,-158)" stroke-miterlimit="1.45">
      <circle fill="none" r="15" clip-path="url(#clipPath2)" cx="525" cy="270"/>
    </g>
    <g fill="rgb(255,204,0)" transform="matrix(1,0,0,1,-372,-158)" stroke="rgb(255,204,0)">
      <circle r="15" clip-path="url(#clipPath2)" cx="440" cy="270" stroke="none"/>
      <text x="430.5137" y="274.5352" clip-path="url(#clipPath2)" fill="black" font-family="arial, helvetica, sans-serif" stroke="none" xml:space="preserve">0.2</text>
      <text x="384.3496" y="267.4688" clip-path="url(#clipPath2)" fill="black" font-family="arial, helvetica, sans-serif" stroke="none" xml:space="preserve">Front</text>
      <text x="386.3594" y="281.6016" clip-path="url(#clipPath2)" fill="black" font-family="arial, helvetica, sans-serif" stroke="none" xml:space="preserve">Door</text>
    </g>
    <g stroke-linecap="butt" transform="matrix(1,0,0,1,-372,-158)" stroke-miterlimit="1.45">
      <circle fill="none" r="15" clip-path="url(#clipPath2)" cx="440" cy="270"/>
      <path fill="none" d="M455 185 L510 185" clip-path="url(#clipPath2)"/>
      <rect x="476.7061" y="175.9336" clip-path="url(#clipPath2)" fill="white" width="11.5879" height="18.1328" stroke="none"/>
      <text x="478.7061" xml:space="preserve" y="189.5352" font-family="arial, helvetica, sans-serif" clip-path="url(#clipPath2)" stroke="none">9</text>
      <path fill="none" d="M525 200 L525 255" clip-path="url(#clipPath2)"/>
      <rect x="519.2061" y="218.4336" clip-path="url(#clipPath2)" fill="white" width="11.5879" height="18.1328" stroke="none"/>
      <text x="521.2061" xml:space="preserve" y="232.0352" font-family="arial, helvetica, sans-serif" clip-path="url(#clipPath2)" stroke="none">6</text>
      <path fill="none" d="M510 270 L455 270" clip-path="url(#clipPath2)"/>
      <rect x="476.7061" y="260.9336" clip-path="url(#clipPath2)" fill="white" width="11.5879" height="18.1328" stroke="none"/>
      <text x="478.7061" xml:space="preserve" y="274.5352" font-family="arial, helvetica, sans-serif" clip-path="url(#clipPath2)" stroke="none">2</text>
      <path fill="none" d="M440 255 L440 200" clip-path="url(#clipPath2)"/>
      <rect x="434.2061" y="218.4336" clip-path="url(#clipPath2)" fill="white" width="11.5879" height="18.1328" stroke="none"/>
      <text x="436.2061" xml:space="preserve" y="232.0352" font-family="arial, helvetica, sans-serif" clip-path="url(#clipPath2)" stroke="none">5</text>
      <path fill="none" d="M450.6066 259.3934 L514.3934 195.6066" clip-path="url(#clipPath2)"/>
      <rect x="476.7061" y="218.4336" clip-path="url(#clipPath2)" fill="white" width="11.5879" height="18.1328" stroke="none"/>
      <text x="478.7061" xml:space="preserve" y="232.0352" font-family="arial, helvetica, sans-serif" clip-path="url(#clipPath2)" stroke="none">5</text>
    </g>
  </g>
</svg>
