<?xml version="1.0" encoding="UTF-8"?>
<svg xmlns="http://www.w3.org/2000/svg" xmlns:xlink="http://www.w3.org/1999/xlink" fill-opacity="1" color-rendering="auto" color-interpolation="auto" stroke="black" text-rendering="auto" stroke-linecap="square" width="300" stroke-miterlimit="10" stroke-opacity="1" shape-rendering="auto" fill="black" stroke-dasharray="none" font-weight="normal" stroke-width="1" height="260" font-family="'Dialog'" font-style="normal" stroke-linejoin="miter" font-size="12" stroke-dashoffset="0" image-rendering="auto">
  <!--Generated by ySVG-->
  <defs id="genericDefs"/>
  <g>
    <defs id="defs1">
      <clipPath clipPathUnits="userSpaceOnUse" id="clipPath1">
        <path d="M0 0 L300 0 L300 260 L0 260 L0 0 Z"/>
      </clipPath>
      <clipPath clipPathUnits="userSpaceOnUse" id="clipPath2">
        <path d="M-10 -10 L290 -10 L290 250 L-10 250 L-10 -10 Z"/>
      </clipPath>
    </defs>
    <g fill="rgb(255,204,0)" transform="matrix(1,0,0,1,10,10)" stroke="rgb(255,204,0)">
      <circle r="15" clip-path="url(#clipPath2)" cx="140" cy="15" stroke="none"/>
      <text x="132.2891" y="19.5352" clip-path="url(#clipPath2)" fill="black" font-family="arial,helvetica,sans-serif" stroke="none" xml:space="preserve">FD</text>
    </g>
    <g stroke-linecap="butt" transform="matrix(1,0,0,1,10,10)" stroke-miterlimit="1.45">
      <circle fill="none" r="15" clip-path="url(#clipPath2)" cx="140" cy="15"/>
    </g>
    <g fill="rgb(255,204,0)" transform="matrix(1,0,0,1,10,10)" stroke="rgb(255,204,0)">
      <circle r="15" clip-path="url(#clipPath2)" cx="40" cy="85" stroke="none"/>
      <text x="32.3916" y="89.5352" clip-path="url(#clipPath2)" fill="black" font-family="arial,helvetica,sans-serif" stroke="none" xml:space="preserve">UB</text>
    </g>
    <g stroke-linecap="butt" transform="matrix(1,0,0,1,10,10)" stroke-miterlimit="1.45">
      <circle fill="none" r="15" clip-path="url(#clipPath2)" cx="40" cy="85"/>
    </g>
    <g fill="rgb(255,204,0)" transform="matrix(1,0,0,1,10,10)" stroke="rgb(255,204,0)">
      <circle r="15" clip-path="url(#clipPath2)" cx="140" cy="85" stroke="none"/>
      <text x="133.0977" y="89.5352" clip-path="url(#clipPath2)" fill="black" font-family="arial,helvetica,sans-serif" stroke="none" xml:space="preserve">BB</text>
    </g>
    <g stroke-linecap="butt" transform="matrix(1,0,0,1,10,10)" stroke-miterlimit="1.45">
      <circle fill="none" r="15" clip-path="url(#clipPath2)" cx="140" cy="85"/>
    </g>
    <g fill="rgb(255,153,204)" transform="matrix(1,0,0,1,10,10)" stroke="rgb(255,153,204)">
      <circle r="15" clip-path="url(#clipPath2)" cx="240" cy="85" stroke="none"/>
      <text x="234.1201" y="89.5352" clip-path="url(#clipPath2)" fill="black" font-family="arial,helvetica,sans-serif" stroke="none" xml:space="preserve">IC</text>
    </g>
    <g fill="red" stroke-miterlimit="1.45" transform="matrix(1,0,0,1,10,10)" stroke-linecap="butt" stroke="red">
      <circle fill="none" r="15" clip-path="url(#clipPath2)" cx="240" cy="85"/>
    </g>
    <g fill="rgb(255,204,0)" transform="matrix(1,0,0,1,10,10)" stroke="rgb(255,204,0)">
      <circle r="15" clip-path="url(#clipPath2)" cx="15" cy="155" stroke="none"/>
      <text x="8.0977" y="159.5352" clip-path="url(#clipPath2)" fill="black" font-family="arial,helvetica,sans-serif" stroke="none" xml:space="preserve">BB</text>
    </g>
    <g stroke-linecap="butt" transform="matrix(1,0,0,1,10,10)" stroke-miterlimit="1.45">
      <circle fill="none" r="15" clip-path="url(#clipPath2)" cx="15" cy="155"/>
    </g>
    <g fill="rgb(255,204,0)" transform="matrix(1,0,0,1,10,10)" stroke="rgb(255,204,0)">
      <circle r="15" clip-path="url(#clipPath2)" cx="65" cy="155" stroke="none"/>
      <text x="59.1201" y="159.5352" clip-path="url(#clipPath2)" fill="black" font-family="arial,helvetica,sans-serif" stroke="none" xml:space="preserve">IC</text>
    </g>
    <g stroke-linecap="butt" transform="matrix(1,0,0,1,10,10)" stroke-miterlimit="1.45">
      <circle fill="none" r="15" clip-path="url(#clipPath2)" cx="65" cy="155"/>
    </g>
    <g fill="rgb(255,204,0)" transform="matrix(1,0,0,1,10,10)" stroke="rgb(255,204,0)">
      <circle r="15" clip-path="url(#clipPath2)" cx="15" cy="225" stroke="none"/>
      <text x="9.1201" y="229.5352" clip-path="url(#clipPath2)" fill="black" font-family="arial,helvetica,sans-serif" stroke="none" xml:space="preserve">IC</text>
    </g>
    <g stroke-linecap="butt" transform="matrix(1,0,0,1,10,10)" stroke-miterlimit="1.45">
      <circle fill="none" r="15" clip-path="url(#clipPath2)" cx="15" cy="225"/>
    </g>
    <g fill="rgb(255,204,0)" transform="matrix(1,0,0,1,10,10)" stroke="rgb(255,204,0)">
      <circle r="15" clip-path="url(#clipPath2)" cx="65" cy="225" stroke="none"/>
      <text x="58.0977" y="229.5352" clip-path="url(#clipPath2)" fill="black" font-family="arial,helvetica,sans-serif" stroke="none" xml:space="preserve">BB</text>
    </g>
    <g stroke-linecap="butt" transform="matrix(1,0,0,1,10,10)" stroke-miterlimit="1.45">
      <circle fill="none" r="15" clip-path="url(#clipPath2)" cx="65" cy="225"/>
    </g>
    <g fill="rgb(255,204,0)" transform="matrix(1,0,0,1,10,10)" stroke="rgb(255,204,0)">
      <circle r="15" clip-path="url(#clipPath2)" cx="115" cy="155" stroke="none"/>
      <text x="109.1201" y="159.5352" clip-path="url(#clipPath2)" fill="black" font-family="arial,helvetica,sans-serif" stroke="none" xml:space="preserve">IC</text>
    </g>
    <g stroke-linecap="butt" transform="matrix(1,0,0,1,10,10)" stroke-miterlimit="1.45">
      <circle fill="none" r="15" clip-path="url(#clipPath2)" cx="115" cy="155"/>
    </g>
    <g fill="rgb(255,204,0)" transform="matrix(1,0,0,1,10,10)" stroke="rgb(255,204,0)">
      <circle r="15" clip-path="url(#clipPath2)" cx="165" cy="155" stroke="none"/>
      <text x="157.3916" y="159.5352" clip-path="url(#clipPath2)" fill="black" font-family="arial,helvetica,sans-serif" stroke="none" xml:space="preserve">UB</text>
    </g>
    <g stroke-linecap="butt" transform="matrix(1,0,0,1,10,10)" stroke-miterlimit="1.45">
      <circle fill="none" r="15" clip-path="url(#clipPath2)" cx="165" cy="155"/>
    </g>
    <g fill="rgb(255,204,0)" transform="matrix(1,0,0,1,10,10)" stroke="rgb(255,204,0)">
      <circle r="15" clip-path="url(#clipPath2)" cx="115" cy="225" stroke="none"/>
      <text x="107.3916" y="229.5352" clip-path="url(#clipPath2)" fill="black" font-family="arial,helvetica,sans-serif" stroke="none" xml:space="preserve">UB</text>
    </g>
    <g stroke-linecap="butt" transform="matrix(1,0,0,1,10,10)" stroke-miterlimit="1.45">
      <circle fill="none" r="15" clip-path="url(#clipPath2)" cx="115" cy="225"/>
    </g>
    <g fill="rgb(255,204,0)" transform="matrix(1,0,0,1,10,10)" stroke="rgb(255,204,0)">
      <circle r="15" clip-path="url(#clipPath2)" cx="165" cy="225" stroke="none"/>
      <text x="159.1201" y="229.5352" clip-path="url(#clipPath2)" fill="black" font-family="arial,helvetica,sans-serif" stroke="none" xml:space="preserve">IC</text>
    </g>
    <g stroke-linecap="butt" transform="matrix(1,0,0,1,10,10)" stroke-miterlimit="1.45">
      <circle fill="none" r="15" clip-path="url(#clipPath2)" cx="165" cy="225"/>
    </g>
    <g fill="rgb(255,153,204)" transform="matrix(1,0,0,1,10,10)" stroke="rgb(255,153,204)">
      <circle r="15" clip-path="url(#clipPath2)" cx="215" cy="155" stroke="none"/>
      <text x="207.3916" y="159.5352" clip-path="url(#clipPath2)" fill="black" font-family="arial,helvetica,sans-serif" stroke="none" xml:space="preserve">UB</text>
    </g>
    <g fill="red" stroke-miterlimit="1.45" transform="matrix(1,0,0,1,10,10)" stroke-linecap="butt" stroke="red">
      <circle fill="none" r="15" clip-path="url(#clipPath2)" cx="215" cy="155"/>
    </g>
    <g fill="rgb(255,153,204)" transform="matrix(1,0,0,1,10,10)" stroke="rgb(255,153,204)">
      <circle r="15" clip-path="url(#clipPath2)" cx="265" cy="155" stroke="none"/>
      <text x="258.0977" y="159.5352" clip-path="url(#clipPath2)" fill="black" font-family="arial,helvetica,sans-serif" stroke="none" xml:space="preserve">BB</text>
    </g>
    <g fill="red" stroke-miterlimit="1.45" transform="matrix(1,0,0,1,10,10)" stroke-linecap="butt" stroke="red">
      <circle fill="none" r="15" clip-path="url(#clipPath2)" cx="265" cy="155"/>
    </g>
    <g fill="rgb(255,153,204)" transform="matrix(1,0,0,1,10,10)" stroke="rgb(255,153,204)">
      <circle r="15" clip-path="url(#clipPath2)" cx="215" cy="225" stroke="none"/>
      <text x="208.0977" y="229.5352" clip-path="url(#clipPath2)" fill="black" font-family="arial,helvetica,sans-serif" stroke="none" xml:space="preserve">BB</text>
    </g>
    <g fill="red" stroke-miterlimit="1.45" transform="matrix(1,0,0,1,10,10)" stroke-linecap="butt" stroke="red">
      <circle fill="none" r="15" clip-path="url(#clipPath2)" cx="215" cy="225"/>
    </g>
    <g fill="rgb(255,153,204)" transform="matrix(1,0,0,1,10,10)" stroke="rgb(255,153,204)">
      <circle r="15" clip-path="url(#clipPath2)" cx="265" cy="225" stroke="none"/>
      <text x="257.3916" y="229.5352" clip-path="url(#clipPath2)" fill="black" font-family="arial,helvetica,sans-serif" stroke="none" xml:space="preserve">UB</text>
    </g>
    <g fill="red" stroke-miterlimit="1.45" transform="matrix(1,0,0,1,10,10)" stroke-linecap="butt" stroke="red">
      <circle fill="none" r="15" clip-path="url(#clipPath2)" cx="265" cy="225"/>
      <path fill="none" d="M127.7115 23.6019 L58.8423 71.8104" clip-path="url(#clipPath2)" stroke="black"/>
      <path fill="black" d="M52.2885 76.3981 L64.9866 73.6127 L59.6616 71.2369 L59.2519 65.4204 Z" clip-path="url(#clipPath2)" stroke="none"/>
      <path fill="none" d="M140 30 L140 62" clip-path="url(#clipPath2)" stroke="black"/>
      <path fill="black" d="M140 70 L145 58 L140 61 L135 58 Z" clip-path="url(#clipPath2)" stroke="none"/>
      <path fill="none" d="M152.2885 23.6019 L221.1577 71.8104" clip-path="url(#clipPath2)"/>
      <path d="M227.7115 76.3981 L220.748 65.4204 L220.3384 71.2369 L215.0134 73.6127 Z" clip-path="url(#clipPath2)" stroke="none"/>
      <path fill="none" d="M34.955 99.1261 L22.7357 133.3399" clip-path="url(#clipPath2)" stroke="black"/>
      <path fill="black" d="M20.045 140.8739 L28.7898 131.2547 L23.0721 132.3982 L19.3724 127.8913 Z" clip-path="url(#clipPath2)" stroke="none"/>
      <path fill="none" d="M45.045 99.1261 L57.2643 133.3399" clip-path="url(#clipPath2)" stroke="black"/>
      <path fill="black" d="M59.955 140.8739 L60.6276 127.8913 L56.9279 132.3982 L51.2102 131.2547 Z" clip-path="url(#clipPath2)" stroke="none"/>
      <path fill="none" d="M15 170 L15 202" clip-path="url(#clipPath2)" stroke="black"/>
      <path fill="black" d="M15 210 L20 198 L15 201 L10 198 Z" clip-path="url(#clipPath2)" stroke="none"/>
      <path fill="none" d="M65 170 L65 202" clip-path="url(#clipPath2)" stroke="black"/>
      <path fill="black" d="M65 210 L70 198 L65 201 L60 198 Z" clip-path="url(#clipPath2)" stroke="none"/>
      <path fill="none" d="M134.955 99.1261 L122.7357 133.3399" clip-path="url(#clipPath2)" stroke="black"/>
      <path fill="black" d="M120.0451 140.8739 L128.7898 131.2547 L123.0721 132.3982 L119.3724 127.8913 Z" clip-path="url(#clipPath2)" stroke="none"/>
      <path fill="none" d="M145.045 99.1261 L157.2643 133.3399" clip-path="url(#clipPath2)" stroke="black"/>
      <path fill="black" d="M159.955 140.8739 L160.6276 127.8913 L156.9279 132.3982 L151.2102 131.2547 Z" clip-path="url(#clipPath2)" stroke="none"/>
      <path fill="none" d="M115 170 L115 202" clip-path="url(#clipPath2)" stroke="black"/>
      <path fill="black" d="M115 210 L120 198 L115 201 L110 198 Z" clip-path="url(#clipPath2)" stroke="none"/>
      <path fill="none" d="M165 170 L165 202" clip-path="url(#clipPath2)" stroke="black"/>
      <path fill="black" d="M165 210 L170 198 L165 201 L160 198 Z" clip-path="url(#clipPath2)" stroke="none"/>
      <path fill="none" d="M234.955 99.1261 L222.7357 133.3399" clip-path="url(#clipPath2)"/>
      <path d="M220.045 140.8739 L228.7898 131.2547 L223.0721 132.3982 L219.3724 127.8913 Z" clip-path="url(#clipPath2)" stroke="none"/>
      <path fill="none" d="M245.045 99.1261 L257.2643 133.3399" clip-path="url(#clipPath2)"/>
      <path d="M259.955 140.8739 L260.6276 127.8913 L256.9279 132.3982 L251.2102 131.2547 Z" clip-path="url(#clipPath2)" stroke="none"/>
      <path fill="none" d="M215 170 L215 202" clip-path="url(#clipPath2)"/>
      <path d="M215 210 L220 198 L215 201 L210 198 Z" clip-path="url(#clipPath2)" stroke="none"/>
      <path fill="none" d="M265 170 L265 202" clip-path="url(#clipPath2)"/>
      <path d="M265 210 L270 198 L265 201 L260 198 Z" clip-path="url(#clipPath2)" stroke="none"/>
    </g>
  </g>
</svg>
